<svg xmlns="http://www.w3.org/2000/svg" viewBox="0 0 2817.72 1722.1">
  <defs>
    <style>
      .cls-1 {
        isolation: isolate;
      }

      .cls-2 {
        fill: #fbeedd;
      }

      .cls-3 {
        fill: #8ec3a7;
      }

      .cls-4 {
        fill: #45283d;
      }

      .cls-5 {
        fill: #eeb6a0;
      }

      .cls-6 {
        fill: #dd7869;
      }

      .cls-7 {
        fill: #fafcfb;
      }

      .cls-8 {
        fill: #e07868;
      }

      .cls-9 {
        fill: #458ca4;
      }

      .cls-10 {
        fill: #a9d4df;
      }

      .cls-11 {
        fill: #468a8a;
      }

      .cls-12 {
        fill: #bde5ed;
      }

      .cls-13 {
        fill: #df464d;
      }

      .cls-14 {
        fill: #eb5354;
      }

      .cls-15 {
        fill: #68b4d3;
      }

      .cls-16 {
        fill: #f0a27b;
      }

      .cls-17 {
        fill: #47242e;
      }

      .cls-18 {
        fill: #d04c45;
      }

      .cls-19 {
        fill: #2f1a2b;
      }

      .cls-20 {
        fill: #395171;
      }

      .cls-21 {
        fill: #324a65;
      }

      .cls-22 {
        fill: #44283d;
      }

      .cls-23 {
        fill: #1d1d1b;
      }

      .cls-24 {
        fill: #d9624b;
      }

      .cls-25 {
        fill: #eeb59c;
      }

      .cls-26 {
        fill: #eb9557;
      }

      .cls-27 {
        fill: #1f121c;
      }

      .cls-28, .cls-41, .cls-44 {
        mix-blend-mode: multiply;
      }

      .cls-29 {
        fill: #d8ecf2;
      }

      .cls-30 {
        opacity: 0.6;
      }

      .cls-31 {
        fill: #f4fffd;
      }

      .cls-32 {
        fill: #f5c78e;
      }

      .cls-33 {
        fill: #55344e;
      }

      .cls-34 {
        fill: #1e121c;
      }

      .cls-35 {
        fill: #de6b79;
      }

      .cls-36 {
        fill: #ec7d84;
      }

      .cls-37 {
        fill: #391c26;
      }

      .cls-38 {
        fill: #569fc4;
      }

      .cls-39 {
        fill: #3a7a76;
      }

      .cls-40 {
        fill: #2a1826;
      }

      .cls-41, .cls-45 {
        opacity: 0.5;
      }

      .cls-42 {
        fill: #579594;
      }

      .cls-43 {
        fill: #f6cc8f;
      }

      .cls-44 {
        opacity: 0.3;
      }
    </style>
  </defs>
  <g class="cls-1">
    <g id="Ebene_2" data-name="Ebene 2">
      <g id="eatable_onboarding" data-name="eatable onboarding">
        <g id="entdecken">
          <path class="cls-2" d="M2105.72,1718.59l443.23,3s288.51-231.77,267.7-718.85c-17.6-411.79-353.73-824.45-782.34-887.4-398.08-58.46-733.93,375.19-1173.65,326C-162.8,326.76-148.58,1618.07,259.74,1718.59Z"/>
          <path class="cls-3" d="M458.94,1719.19a16.07,16.07,0,0,0-4.46-10.2c-6.27-6.68-17-12.13-35-13.39,0,0,6.2-111.62-78.12-119-96.7-8.48-97.87,101.19-97.87,101.19s-43.95-41.73-75.66,11.17c0,0-54.78-31.66-82.41,26.82a9.23,9.23,0,0,0-.89,3.43Z"/>
          <path class="cls-3" d="M2333.63,1715.46a17.88,17.88,0,0,1,5-11.33c7-7.42,18.85-13.47,38.85-14.87,0,0-6.89-124,86.74-132.17,107.39-9.41,108.69,112.37,108.69,112.37s48.81-46.34,84,12.41c0,0,60.84-35.16,91.53,29.78a10.48,10.48,0,0,1,1,3.81Z"/>
          <g>
            <path class="cls-4" d="M1774.47,586.09c10.24,20.7-2.26,90.46-2.26,90.46l-6.83-1c0-2.34-.61-9.14-.61-9.14l-3.33,8.58-26.56-3.81.58-108.5S1764.23,565.4,1774.47,586.09Z"/>
            <path class="cls-5" d="M1761.19,601.16s12.28,49.43-17,56.26l-1.5,37.77-40-10.49L1707,563.13s11.91,1.88,11.87,2.86S1761.19,601.16,1761.19,601.16Z"/>
            <path class="cls-6" d="M1745.54,631.86a.37.37,0,0,1,0-.73c2.39-.43,4-3.3,4.45-4.24-3.31-1.92-5.28-4.33-5.87-7.17-1-4.64,2.09-8.7,2.22-8.87l.52-.07.07.52s-3,4-2.09,8.27c.56,2.71,2.52,5,5.81,6.84l.29.16-.13.31c-.08.18-1.9,4.39-5.14,5Z"/>
            <path class="cls-6" d="M1743.83,669l.4-11.53s-19.46-1.82-31.16-9.77C1713.07,647.65,1728.77,663.82,1743.83,669Z"/>
            <path d="M1736.79,615.54a2.05,2.05,0,1,1-2-2.12A2,2,0,0,1,1736.79,615.54Z"/>
            <path d="M1757.54,616.92a2.06,2.06,0,1,1-2-2.12A2.06,2.06,0,0,1,1757.54,616.92Z"/>
            <path class="cls-7" d="M1729.58,630.34c.22.07,13.22,6.23,13.22,6.23s-4.29,4.5-9.13,2.22S1729.58,630.34,1729.58,630.34Z"/>
            <path class="cls-4" d="M1747,576s-6.26,24.84-30.16,33.82-11.37,41-11.37,41l-21.34-34.38s2.29-45.16,22.8-53.33C1721.88,557.18,1749.89,561.83,1747,576Z"/>
            <path class="cls-4" d="M1728.61,607.87a.67.67,0,0,0,.66,0s5.29-2.9,10.34-.87a.7.7,0,0,0,.92-.41.74.74,0,0,0-.41-1c-5.69-2.29-11.31.82-11.54,1a.73.73,0,0,0-.28,1Z"/>
            <path class="cls-4" d="M1760,611.78a.71.71,0,0,0,.64-.21.73.73,0,0,0,0-1c-.2-.19-5-4.72-11.2-4.06a.73.73,0,1,0,.16,1.46c5.55-.59,10,3.61,10,3.66Z"/>
            <polygon class="cls-5" points="1747.38 589.97 1735.35 575.82 1742.38 587.01 1747.38 589.97"/>
            <path class="cls-4" d="M1678.75,590.21c6.53-25.31,34.92-28.92,34.92-28.92l-3,49.87s-6.14,21.53-4.87,54l.45,6.13a179.84,179.84,0,0,1-21.69-3.77c-.65-4.8-1.76-12.6-1.76-12.6l-3.52,11.22c-2.55-.72-5.11-1.52-7.57-2.43C1671.74,663.71,1673.43,610.79,1678.75,590.21Z"/>
            <path class="cls-5" d="M1714,620.18a11.52,11.52,0,1,1-11.12-11.91A11.52,11.52,0,0,1,1714,620.18Z"/>
            <path class="cls-6" d="M1701.4,626.86a4.84,4.84,0,0,1-4.44-3.78,4.58,4.58,0,0,1,2-5.26,5.45,5.45,0,0,1,6,.34,5.09,5.09,0,0,0-2.16-2.75,7.14,7.14,0,0,0-5.06-.5.35.35,0,0,1-.45-.25.37.37,0,0,1,.24-.46,7.89,7.89,0,0,1,5.65.58,6.25,6.25,0,0,1,2.81,4.32l.28,1.3-.91-1c-.11-.11-2.73-2.84-6-1a3.86,3.86,0,0,0-1.67,4.43,4.07,4.07,0,0,0,3.8,3.24.38.38,0,0,1,.37.37.37.37,0,0,1-.38.36Z"/>
          </g>
          <g>
            <polygon class="cls-5" points="1831.74 564.77 1883.05 612.54 1846.02 647.79 1812.67 597.15 1831.74 564.77"/>
            <g>
              <path class="cls-5" d="M1761.45,565.62c-12.92,3.29-4.26,9.39-4.26,9.39-6.76,2.48-6.87,5.19-5.79,7a4.93,4.93,0,0,0,3.76,2.33c2.86.3,9.14.93,15.74,1.47h0s6.87.11,21.28,7.52a74.07,74.07,0,0,0,45.35,7.42h0l-5.79-36c-.21.11-49.39-13.13-57.21-12.64-12.19.77-9.15,4.06-9.15,4.06C1751.38,561.09,1761.45,565.62,1761.45,565.62Z"/>
              <g>
                <path class="cls-8" d="M1757.28,575.71c.08,0,8.59-1.09,14-.65a.7.7,0,0,0,.76-.64.71.71,0,0,0-.43-.71l-.21-.05c-5.57-.45-14,.61-14.31.65a.7.7,0,0,0-.61.79A.71.71,0,0,0,1757.28,575.71Z"/>
                <path class="cls-8" d="M1761.55,566.32a43.29,43.29,0,0,1,13.07.52.7.7,0,0,0,.42-1.34l-.12,0a44.23,44.23,0,0,0-13.56-.53.7.7,0,0,0,.19,1.39Z"/>
                <path class="cls-8" d="M1765.5,556.88a37.64,37.64,0,0,1,11.6,0,.7.7,0,0,0,.82-.56.69.69,0,0,0-.42-.77l-.14,0a38.4,38.4,0,0,0-12.1,0,.71.71,0,0,0-.57.82A.69.69,0,0,0,1765.5,556.88Z"/>
              </g>
            </g>
            <path class="cls-9" d="M1882.12,599.3s76.89,107.33,85.43,132.42,4.81,51.26-9.61,65.15-167.25-10.64-167.25-10.64L1797,678.79l86.9,39.61-54.07-89.73S1849,606.78,1882.12,599.3Z"/>
            <path d="M1903.69,743a1.1,1.1,0,0,1-.86-.4l-20.2-24.16-55.06-24.85a1.13,1.13,0,0,1,.92-2.06L1884,716.61l20.54,24.56a1.13,1.13,0,0,1-.15,1.58A1.08,1.08,0,0,1,1903.69,743Z"/>
            <path d="M1883.33,718.65a1.12,1.12,0,0,1-1-.54l-54.07-89.73a1.13,1.13,0,0,1,1.93-1.16L1884.29,717a1.12,1.12,0,0,1-.38,1.54A1.16,1.16,0,0,1,1883.33,718.65Z"/>
            <g>
              <polygon class="cls-5" points="1799.01 1689.39 1717.76 1690.5 1716.6 1613.88 1797.53 1603.77 1799.01 1689.39"/>
              <g>
                <path class="cls-10" d="M1716.29,1698.73h70.86l28.74-31.29,52.54,31.29h11.32a8.26,8.26,0,0,1,8.21,6.47,8.07,8.07,0,0,1-7.91,9.66H1715.28a2.19,2.19,0,0,1-2.19-2.19v-10.73A3.21,3.21,0,0,1,1716.29,1698.73Z"/>
                <path class="cls-11" d="M1716.92,1698.83v-29.09s11.93-16.07,30.1-7.87c0,0,27.49,19.5,51.72-4.09l60.16,26.68s16.5,5.52,21,14.37Z"/>
                <rect x="1716.32" y="1669.74" width="1.21" height="28.94"/>
                <path d="M1771.66,1670.05a28.26,28.26,0,0,0,3.73-.2l-.18-1.19a42.71,42.71,0,0,1-27.84-7.28l-.69,1A44.51,44.51,0,0,0,1771.66,1670.05Z"/>
                <rect x="1727.45" y="1685.67" width="1.21" height="9.27" transform="translate(-639 2180.56) rotate(-56.07)"/>
                <rect x="1732.97" y="1684.2" width="1.21" height="9.27" transform="translate(-635.92 2181.72) rotate(-56)"/>
                <path d="M1885.66,1713.46a8.66,8.66,0,0,0-5.61-15.27H1717.13a4.64,4.64,0,0,0-4.64,4.64v8h1.2v-8a3.45,3.45,0,0,1,3.44-3.44h162.92a7.46,7.46,0,0,1,4.83,13.15Z"/>
                <path d="M1879.51,1699.05l1.09-.52c-.14-.28-3.44-7-15.75-12.3-12.11-5.16-65.33-28.77-65.87-29l-.49,1.11c.54.23,53.77,23.85,65.88,29C1876.22,1692.4,1879.47,1699,1879.51,1699.05Z"/>
              </g>
            </g>
            <g>
              <polygon class="cls-5" points="1657.09 1689.39 1575.84 1690.5 1574.68 1613.88 1655.61 1603.77 1657.09 1689.39"/>
              <g>
                <path class="cls-12" d="M1574.37,1698.73h70.86l28.73-31.29,52.55,31.29h11.32a8.26,8.26,0,0,1,8.21,6.47,8.07,8.07,0,0,1-7.91,9.66H1573.36a2.19,2.19,0,0,1-2.19-2.19v-10.73A3.21,3.21,0,0,1,1574.37,1698.73Z"/>
                <path class="cls-3" d="M1575,1698.83v-29.09s11.93-16.07,30.1-7.87c0,0,27.49,19.5,51.71-4.09l60.17,26.68s16.49,5.52,21,14.37Z"/>
                <rect x="1574.39" y="1669.74" width="1.21" height="28.94"/>
                <path d="M1629.73,1670.05a28.52,28.52,0,0,0,3.74-.2l-.18-1.19a42.74,42.74,0,0,1-27.85-7.28l-.68,1A44.5,44.5,0,0,0,1629.73,1670.05Z"/>
                <rect x="1585.53" y="1685.67" width="1.21" height="9.27" transform="translate(-701.67 2062.96) rotate(-56.07)"/>
                <rect x="1591.04" y="1684.2" width="1.21" height="9.27" transform="translate(-698.49 2064.06) rotate(-56)"/>
                <path d="M1743.74,1713.46a8.66,8.66,0,0,0-5.61-15.27H1575.21a4.65,4.65,0,0,0-4.65,4.64v8h1.21v-8a3.45,3.45,0,0,1,3.44-3.44h162.92a7.46,7.46,0,0,1,4.83,13.15Z"/>
                <path d="M1737.58,1699.05l1.09-.52c-.13-.28-3.43-7-15.75-12.3-12.1-5.16-65.33-28.77-65.86-29l-.49,1.11c.54.23,53.77,23.85,65.88,29C1734.3,1692.4,1737.55,1699,1737.58,1699.05Z"/>
              </g>
            </g>
            <path class="cls-13" d="M1674.57,998.4s8.58,404.42,38.1,637.83c0,0,39.33,12.37,88.77-10.76l2.1-596.06-11.65-37.5Z"/>
            <path class="cls-14" d="M1570.79,1002.31s-17.29,398.68,2,633.59c0,0,36.74,23.15,87.12,3.12l86.72-582.34.07-143.71Z"/>
            <path d="M1622.72,1648.05a127.89,127.89,0,0,1-50.48-10.93l-.62-.3-.12-.67c-16.56-89.6-6-531.19-5.88-535.63a1.36,1.36,0,0,1,1.36-1.33h0a1.36,1.36,0,0,1,1.33,1.39c-.11,4.44-10.61,443.49,5.71,534.39,5.52,2.51,47.07,20.19,85.34,2.81a1.36,1.36,0,1,1,1.13,2.47A90.83,90.83,0,0,1,1622.72,1648.05Z"/>
            <path d="M1741,1640.62a133.86,133.86,0,0,1-28.6-3.06,1.36,1.36,0,0,1,.58-2.66c45.16,9.87,81.69-7.47,87.12-10.25l2.1-540a1.36,1.36,0,0,1,1.36-1.36h0a1.36,1.36,0,0,1,1.36,1.37l-2.1,541.63-.7.38C1801.79,1626.84,1776.51,1640.62,1741,1640.62Z"/>
            <path d="M1595.07,1644.77a1.36,1.36,0,0,1-1.36-1.34l-2.39-159.93a1.36,1.36,0,0,1,1.35-1.38h0a1.37,1.37,0,0,1,1.37,1.34l2.38,159.93a1.36,1.36,0,0,1-1.34,1.38Z"/>
            <path d="M1742.62,1640.64a1.37,1.37,0,0,1-1.36-1.28l-9-155.81a1.36,1.36,0,0,1,1.28-1.43,1.34,1.34,0,0,1,1.44,1.28l9,155.8a1.37,1.37,0,0,1-1.28,1.44Z"/>
            <path class="cls-15" d="M1797,678.79s-.8,77.22-.27,114.59,14,268.08,14,268.08-72.07,14.26-121.73,12.66-126.75-26.43-126.75-26.43l10.31-248.77s5.88-96.11,16.56-111.06S1687.7,667,1687.7,667,1774.53,671.31,1797,678.79Z"/>
            <g>
              <path class="cls-5" d="M1634,975.19c6.75,11.51-3.68,9.63-3.68,9.63,3,6.55,1.14,8.54-.92,9.06a5,5,0,0,1-4.31-1C1622.87,991,1618,987,1613,982.67h0s-17.17-9.56-49.22-22.82l-12.19-6.5,33.63-28.76c.07.22.14.49.21.69,10.53,3.63,22.78,7.85,25.8,8.87,5.53,1.87,22,14.32,26,21.06,7.26,12.22.7,10.56.7,10.56C1644.3,979.17,1634,975.19,1634,975.19Z"/>
              <g>
                <path class="cls-8" d="M1629.76,985.25c0-.07-5.26-6.88-9.39-10.42a.7.7,0,0,1-.07-1,.68.68,0,0,1,.8-.19.52.52,0,0,1,.19.11c4.23,3.64,9.37,10.35,9.59,10.64a.69.69,0,0,1-.13,1A.7.7,0,0,1,1629.76,985.25Z"/>
                <path class="cls-8" d="M1633.44,975.61a43.52,43.52,0,0,0-9.56-8.93.72.72,0,0,1-.2-1,.7.7,0,0,1,.86-.26l.12.06a44.15,44.15,0,0,1,9.91,9.27.7.7,0,0,1-.14,1A.71.71,0,0,1,1633.44,975.61Z"/>
                <path class="cls-8" d="M1637.37,966.17a37.37,37.37,0,0,0-8.14-8.26.7.7,0,0,1,.67-1.22l.13.07a38.12,38.12,0,0,1,8.5,8.61.7.7,0,0,1-1.16.8Z"/>
              </g>
            </g>
            <path class="cls-15" d="M1588.27,782.36l-62.48,47.26,68.88,86.5s-13.61,26.43-44.85,40.85c0,0-104.92-80.1-108.12-119.34s82.49-129.64,153-154.12S1588.27,782.36,1588.27,782.36Z"/>
            <path class="cls-5" d="M1779.77,675.11s-15.89,21-46.73,22-59.85-20-69.37-27.9C1663.67,669.2,1697.86,656.42,1779.77,675.11Z"/>
            <path d="M1679.41,1509.53h-.17a1.11,1.11,0,0,1-.94-1.28l59.31-398.3,25.19-19.1a1.13,1.13,0,1,1,1.36,1.8l-24.46,18.54-59.18,397.39A1.12,1.12,0,0,1,1679.41,1509.53Z"/>
            <path d="M1815.7,1060.51h0Z"/>
            <path d="M1549.82,958.09a1.1,1.1,0,0,1-1-.71,1.12,1.12,0,0,1,.62-1.46c23.79-9.5,41-35.27,43.89-39.72l-68-85.45h-17.67a1.13,1.13,0,0,1,0-2.26h18.76L1596,916l-.4.67c-.19.31-18.74,30.66-45.4,41.31A1,1,0,0,1,1549.82,958.09Z"/>
            <path d="M1525.79,830.75a1.13,1.13,0,0,1-.67-2L1594,777.28a1.13,1.13,0,1,1,1.35,1.8l-68.88,51.44A1.16,1.16,0,0,1,1525.79,830.75Z"/>
            <path d="M1570.78,841.82h0a1.11,1.11,0,0,1-1.07-1.17l2-46.19a1.13,1.13,0,0,1,2.25.1l-2,46.19A1.13,1.13,0,0,1,1570.78,841.82Z"/>
          </g>
          <g>
            <path class="cls-3" d="M1050.85,681.16l-98.77,31.62-85.45-103-59.27,9.79s85.3,187.89,109.73,191.63,137.49-20.52,137.49-20.52Z"/>
            <path class="cls-16" d="M1093.23,590.49l.37-11.48a27.6,27.6,0,0,1,19.34-25.51c19.39-6,40.68,3.93,40.68,3.93s7.32,11.75,8,13.12-8.5-3.36-8.5-3.36Z"/>
            <path class="cls-16" d="M1092.07,626.14l1.58-48.42,62.6-16.59,0,59.08-1,15.21s3.31,31.13,1.66,37.57-11.45,19.11-28.75,18.55a47.28,47.28,0,0,1-14.22-2.68,18,18,0,0,1-11.69-19.8l3.59-23C1090.78,643.41,1092.07,626.14,1092.07,626.14Z"/>
            <path class="cls-17" d="M1132.21,601.18a.73.73,0,0,1-.41-.4c-.21-.48-5.22-11.91-15-8.71a.72.72,0,0,1-.91-.46.71.71,0,0,1,.46-.91c11.06-3.62,16.74,9.39,16.8,9.52a.73.73,0,0,1-.92,1Z"/>
            <path class="cls-17" d="M1102.79,590.38a.72.72,0,0,1-.5,0c-.08,0-7.59-3.09-9.9.76a.72.72,0,0,1-1.24-.74c2.95-4.91,11.34-1.5,11.69-1.35a.72.72,0,0,1,0,1.35Z"/>
            <path d="M1101.45,601.16a.42.42,0,0,1-.31,0s-4.59-1.86-6,.46a.43.43,0,0,1-.6.15.44.44,0,0,1-.15-.59c1.79-3,6.86-.91,7.08-.82a.44.44,0,0,1,.23.57A.46.46,0,0,1,1101.45,601.16Z"/>
            <path d="M1120,604.35a2.16,2.16,0,1,1,2.09,2.23A2.16,2.16,0,0,1,1120,604.35Z"/>
            <path class="cls-18" d="M1176.11,572.57c4.12,16.16-4.08,24.37-4.39,29.14s1.87,37.07-20.66,33.93l-4.36-53.38,8.56-20.91-1.61-4.67S1172,556.4,1176.11,572.57Z"/>
            <path class="cls-16" d="M1150.43,617.58a13,13,0,1,1,13.4-12.55A13,13,0,0,1,1150.43,617.58Z"/>
            <path class="cls-8" d="M1154.52,603.31c-3.57-2.38-6.75.52-6.89.64l-.94.89.35-1.25a7,7,0,0,1,3.47-4.62,8.76,8.76,0,0,1,6.34-.21.35.35,0,0,1,.21.46.36.36,0,0,1-.46.22,8.1,8.1,0,0,0-5.77.18,5.86,5.86,0,0,0-2.73,3.11,6.08,6.08,0,0,1,6.82,0,5.08,5.08,0,0,1,1.86,6,5.42,5.42,0,0,1-5.22,3.88h-.08a.36.36,0,0,1-.34-.38.35.35,0,0,1,.37-.34h.07a4.65,4.65,0,0,0,4.51-3.39A4.4,4.4,0,0,0,1154.52,603.31Z"/>
            <path class="cls-8" d="M1105.85,646.07s23.29,5.48,35.57-13.55c0,0-2,28.92-38.22,30.5Z"/>
            <path class="cls-8" d="M1112.24,618.45a.36.36,0,0,1-.35.24l-.11,0-7.71-2.83,2.94-17.51a.36.36,0,0,1,.42-.3.35.35,0,0,1,.29.41l-2.84,16.93L1112,618A.35.35,0,0,1,1112.24,618.45Z"/>
            <polygon class="cls-16" points="1153.95 614.98 1155.66 639.47 1147.07 639.89 1147.87 615.45 1153.95 614.98"/>
            <path class="cls-18" d="M1113.34,539.55c16.47,6,47.33,6.28,55.49,22S1146.67,583,1146.67,583s-55-5.07-58-18.09,10-12.93,10-12.93S1096.88,533.58,1113.34,539.55Z"/>
            <path class="cls-18" d="M1137,579.84c-6.63-3.73,12.69-6.77,13.27-6.46s11.48,6.35,10,6-12.43.18-12.43.18l-.39,11.9a24,24,0,0,0-3.6,15.79s-3.41,1.12-3.9-1.68S1143.6,583.58,1137,579.84Z"/>
            <path class="cls-7" d="M1102.48,622.12s15.16-.62,15.4-.59c0,0-1.83,6.29-7.46,6.51S1102.48,622.12,1102.48,622.12Z"/>
            <path class="cls-16" d="M1395.63,1089.72a5.6,5.6,0,0,1-7.75,1.58h0a5.61,5.61,0,0,1-1.58-7.76l16.26-32.13c1.12-1.68,5.06-2.49,8.39-2.39,31.76-9,35.38-15.37,44.16-17l1.25,6.89,6,33.12a83.74,83.74,0,0,0,10.34,28.47l1.29,2.21a5.59,5.59,0,0,1-2.33,7.83,5.71,5.71,0,0,1-7.42-2.34l-9.37-16a1.36,1.36,0,0,0-2.42,1.21l10.57,25.25a4.51,4.51,0,0,1-3.38,6.4,7.27,7.27,0,0,1-7.79-4.13L1441,1095.17a1.36,1.36,0,0,0-1.52-.8l-.45.09a1.35,1.35,0,0,0-1.06,1.6l6.16,30.35a5.71,5.71,0,0,1-4,6.69,5.58,5.58,0,0,1-7-4.28l-6.21-30.53a1.35,1.35,0,0,0-1.6-1.06l-1.43.29a1.35,1.35,0,0,0-1.08,1.42l2,28.88a5.71,5.71,0,0,1-4.81,6.12,5.59,5.59,0,0,1-6.34-5.15s-5.45-43.86-6.87-50.65Z"/>
            <polygon class="cls-16" points="1275.9 1617.04 1278.58 1695.98 1209.71 1690.54 1201.3 1598.45 1275.9 1617.04"/>
            <path class="cls-19" d="M1143.42,1714.86a6.76,6.76,0,0,1-6.65-8.07,6.91,6.91,0,0,1,6.87-5.43l9.47,0,43.94-26.32,24.13,26.15,59.33-.15a2.67,2.67,0,0,1,2.69,2.67l0,9a1.84,1.84,0,0,1-1.84,1.84Z"/>
            <path class="cls-10" d="M1161.07,1689.36l50.32-22.47c20.34,19.7,43.31,3.32,43.31,3.32,15.2-6.91,25.23,6.52,25.23,6.52l.06,24.36-136.45.34C1147.26,1694,1161.07,1689.36,1161.07,1689.36Z"/>
            <rect x="1279.45" y="1676.73" width="1.01" height="24.24" transform="translate(-4.26 3.24) rotate(-0.14)"/>
            <path d="M1231.11,1676a35.82,35.82,0,0,0,23.3-6.16l.58.83a37.25,37.25,0,0,1-20.9,6.49,27,27,0,0,1-3.13-.16Z"/>
            <rect x="1266.76" y="1693.47" width="7.76" height="1.01" transform="translate(-731.1 1003.26) rotate(-34.09)"/>
            <rect x="1262.15" y="1692.25" width="7.76" height="1.01" transform="translate(-731.94 1002.56) rotate(-34.15)"/>
            <path d="M1139.37,1712.93l-.65.77a7.25,7.25,0,0,1,4.66-12.8l136.43-.35a3.91,3.91,0,0,1,3.9,3.88l0,6.74h-1l0-6.73a2.89,2.89,0,0,0-2.89-2.88l-136.42.35a6.25,6.25,0,0,0-4,11Z"/>
            <path d="M1143.84,1701.62l-.91-.43c.11-.24,2.86-5.91,13.16-10.33,10.12-4.35,54.65-24.24,55.09-24.44l.42.93c-.45.2-45,20.08-55.11,24.43C1146.58,1696,1143.87,1701.56,1143.84,1701.62Z"/>
            <polygon class="cls-16" points="994.99 1597.1 1066.43 1592.09 1051.69 1695.88 981.71 1690.16 994.99 1597.1"/>
            <path class="cls-19" d="M917.77,1714.86a6.75,6.75,0,0,1-6.64-8.07,6.9,6.9,0,0,1,6.86-5.43l9.48,0L971.4,1675l24.13,26.15,59.34-.15a2.69,2.69,0,0,1,2.69,2.67l0,9a1.83,1.83,0,0,1-1.83,1.84Z"/>
            <path class="cls-10" d="M935.42,1689.36l50.33-22.47c20.33,19.7,43.31,3.32,43.31,3.32,15.19-6.91,25.22,6.52,25.22,6.52l.06,24.36-136.44.34C921.62,1694,935.42,1689.36,935.42,1689.36Z"/>
            <rect x="1053.81" y="1676.73" width="1.01" height="24.24" transform="translate(-4.26 2.66) rotate(-0.14)"/>
            <path d="M1005.47,1676a35.84,35.84,0,0,0,23.3-6.16l.57.83a37.23,37.23,0,0,1-20.89,6.49,27,27,0,0,1-3.13-.16Z"/>
            <rect x="1041.12" y="1693.47" width="7.76" height="1.01" transform="translate(-769.81 876.65) rotate(-34.08)"/>
            <rect x="1036.5" y="1692.25" width="7.76" height="1.01" transform="translate(-770.91 876.04) rotate(-34.15)"/>
            <path d="M913.73,1712.93l-.65.77a7.25,7.25,0,0,1,4.66-12.8l136.42-.35a3.89,3.89,0,0,1,3.9,3.88l0,6.74h-1l0-6.73a2.89,2.89,0,0,0-2.88-2.88l-136.43.35a6.25,6.25,0,0,0-4,11Z"/>
            <path d="M918.2,1701.62l-.92-.43c.11-.24,2.86-5.91,13.17-10.33,10.12-4.35,54.64-24.24,55.09-24.44l.41.93c-.45.2-45,20.08-55.11,24.43C920.93,1696,918.22,1701.56,918.2,1701.62Z"/>
            <path class="cls-9" d="M1060.57,1664.42c-13.41,3.9-81.46-10.61-80-21.4l84.13-627.86a24.12,24.12,0,0,1,.9-4.11l.85-2.76A25,25,0,0,1,1102.53,994l86.8,49.07a24.94,24.94,0,0,1,12.26,26.22C1188.16,1142.28,1087.78,1656.51,1060.57,1664.42Z"/>
            <path class="cls-15" d="M1294.2,1661.66c-.83,10.42-97.26.68-98-8.18l-38.73-288-6.43-255.36-26.48-142.28,178.79,82.7s-20.48,146-23.84,310C1277.66,1451.52,1300.5,1583.08,1294.2,1661.66Z"/>
            <path d="M1191.18,1614.1a1.08,1.08,0,0,1-.9-.91l-33.85-247.55v-.05l-4.79-190.49a1.06,1.06,0,0,1,1-1.09,1.08,1.08,0,0,1,1.1,1l4.8,190.36,33.84,247.49a1.07,1.07,0,0,1-.91,1.2Z"/>
            <path d="M1281.21,1335.54h0c0,.51.06,1.26.08,2.36.59,38,2,107,4.82,142.41a1.08,1.08,0,0,1-1,1.15,1,1,0,0,1-.24,0,1.07,1.07,0,0,1-.91-1c-2.81-35.49-4.23-104.54-4.83-142.55,0-.56,0-1,0-1.41h0l0-1a.17.17,0,0,0,0-.07c.17-2.35,12.83-195.19,13-197.14a1.07,1.07,0,1,1,2.14.14l-12.81,195c-.06,1-.11,1.69-.18,2.17Z"/>
            <path d="M991.25,1569.82h0a1.06,1.06,0,0,1-.9-1.2l61.47-464.48a1.07,1.07,0,0,1,1.2-.92,1,1,0,0,1,.92,1.2L992.45,1568.9A1.07,1.07,0,0,1,991.25,1569.82Z"/>
            <path class="cls-3" d="M1325,904.37c-11.19-12.83-49.71-60.23-49.71-60.23l29.92,228.51s-125.72,45.34-253,10.77c0,0-9.3-213.39-14.27-353.94-.84-23.76-1.28-34.71,3.17-41.07,2.17-3.08,4.47-6.19,9.78-7.25,44-8.78,135.68-22.31,156.27-17.74,42.88,9.5,207.73,155,218.68,184.25S1471,1036.91,1471,1036.91s-14.29,15.38-86.36,20.21C1384.68,1057.12,1336.17,917.19,1325,904.37Z"/>
            <path d="M1411.23,1056.16c-14.26,1.91-25.37,2.57-26.45,2.63l-1.36.08-.35-1.31c-16-59.25-57.3-147.57-59.52-152.29L1242.06,807a1.67,1.67,0,1,1,2.57-2.14l81.63,98.47.23.35c.42.91,42.75,90.86,59.45,151.71,9.34-.64,64.48-5,84.09-19.79a1.68,1.68,0,0,1,2,2.68C1459,1048.08,1431.81,1053.41,1411.23,1056.16Z"/>
            <path d="M1292.34,974.53h0a1.67,1.67,0,0,1-1.87-1.44L1273.6,844.36a1.69,1.69,0,0,1,1.44-1.88h0a1.68,1.68,0,0,1,1.88,1.44l16.85,128.74A1.67,1.67,0,0,1,1292.34,974.53Z"/>
            <path d="M1380.59,797.88c-106.17-99.47-164.35-129.41-164.92-129.7a1.67,1.67,0,1,1,1.51-3c.58.29,59.1,30.37,165.7,130.24a1.68,1.68,0,0,1-.92,2.88A1.68,1.68,0,0,1,1380.59,797.88Z"/>
            <path d="M1230.32,1088.71a1.75,1.75,0,0,1,1.93,1.37,1.68,1.68,0,0,1-1.38,1.93q-8.22,1.35-16.11,2.41c-101.62,13.56-162.56-9.19-163.2-9.44l-1-.39-14.12-371.25a1.7,1.7,0,0,1,1.6-1.74,1.68,1.68,0,0,1,1.74,1.61l14,369C1062.61,1085.27,1127.49,1105.72,1230.32,1088.71Z"/>
            <g>
              <polygon class="cls-20" points="962.48 606.82 1077.27 603.84 1077.27 583.64 962.48 580.66 962.48 606.82"/>
              <polygon class="cls-21" points="882.92 614.83 997.72 610.03 997.72 577.46 882.92 572.65 882.92 614.83"/>
              <polygon class="cls-20" points="727 628.18 882.92 620.33 882.92 567.15 727 559.3 727 628.18"/>
              <rect class="cls-21" x="1077.27" y="581.3" width="6.41" height="24.88" transform="translate(2160.96 1187.48) rotate(180)"/>
              <rect class="cls-21" x="720.59" y="551.31" width="6.41" height="84.86" transform="translate(1447.6 1187.48) rotate(180)"/>
            </g>
            <g>
              <path class="cls-16" d="M838.07,572l-2-17.6s-2.8-2.69-6.22-2.19-4.84,3-4.78,3.53l2,17.68c.24,2.14,2.66,3.7,5.59,3.42C835.88,576.49,838.33,574.26,838.07,572Z"/>
              <path class="cls-16" d="M826.81,574.34l-1.68-19.61a6,6,0,0,0-5.09-1.3c-3.43.44-5.92,2.48-5.87,3.05l1.63,19.12c.19,2.15,2.56,3.74,5.49,3.51C824.5,578.85,827,576.66,826.81,574.34Z"/>
              <path class="cls-16" d="M815.35,576.21l-1.27-18.3a5.58,5.58,0,0,0-4.72-1.25c-3.19.38-5.54,2.26-5.5,2.8l1.23,17.84c.14,2,2.32,3.51,5,3.32C813.14,580.41,815.5,578.38,815.35,576.21Z"/>
              <path class="cls-8" d="M839.1,571.8l-2-17.41c0-.42-.54-.7-1.11-.61s-1,.48-.95.9L837,572.1a3,3,0,0,1-1.14,2.58,5.69,5.69,0,0,1-3.25,1.35c-2.34.22-4.33-1-4.54-2.81l-2-19.05c-.05-.41-.55-.69-1.12-.61a1.05,1.05,0,0,0-.94.74.43.43,0,0,0,0,.16l2,19c.29,2.59,3.2,4.37,6.64,4a8.23,8.23,0,0,0,4.74-2A4.48,4.48,0,0,0,839.1,571.8Z"/>
              <path class="cls-16" d="M848.88,572.55l-1.69-17.8c-.18-2-3.28-3.29-5.27-3.07-3.43.39-5.9,2.52-5.85,3.09l1.81,19.07c.2,2.1,2.48,3.7,5.36,3.52C846.53,577.15,849.11,574.9,848.88,572.55Z"/>
              <path class="cls-8" d="M849.92,572.41,848.26,555c0-.42-.54-.7-1.11-.62s-1,.48-1,.89l1.66,17.46a3.06,3.06,0,0,1-1.18,2.58,5.75,5.75,0,0,1-3.27,1.32c-2.34.2-4.31-1.05-4.48-2.85l-1.72-19.09c0-.42-.53-.7-1.1-.63a1.08,1.08,0,0,0-1,.73,1,1,0,0,0,0,.17L836.85,574c.25,2.6,3.13,4.4,6.56,4.11a8.37,8.37,0,0,0,4.78-1.93A4.58,4.58,0,0,0,849.92,572.41Z"/>
              <path class="cls-8" d="M827.84,574.21l-1.68-19.61c0-.42-.52-.7-1.1-.63s-1,.48-1,.89l1.67,19.61a3.06,3.06,0,0,1-1.21,2.57,5.6,5.6,0,0,1-3.27,1.3c-2.33.19-4.06-1-4.22-2.76l-1.24-18.68c0-.42-.51-.7-1.08-.64a1.08,1.08,0,0,0-1,.74.71.71,0,0,0,0,.14L815,575.83c.23,2.62,2.87,4.32,6.29,4a8.38,8.38,0,0,0,4.78-1.91A4.57,4.57,0,0,0,827.84,574.21Z"/>
              <path class="cls-8" d="M817.11,576.15l-1.27-18.3c0-.42-.52-.7-1.09-.63s-1,.46-1,.88L815,576.4a2.87,2.87,0,0,1-1.14,2.35,5.3,5.3,0,0,1-3,1.17c-2.15.15-3.92-1-4-2.68l-1.23-17.84c0-.42-.52-.71-1.09-.64a1.07,1.07,0,0,0-1,.74.66.66,0,0,0,0,.14l1.24,17.85c.17,2.45,2.83,4.19,6.07,4a7.87,7.87,0,0,0,4.53-1.76A4.35,4.35,0,0,0,817.11,576.15Z"/>
            </g>
          </g>
          <g>
            <path class="cls-22" d="M461.89,1075.75c-13.43,13.89-22.54,30.07-7.89,60.35s136.4.58,136.4.58,31.62-4.5,33.36-38.26-34.84-51.87-45-52.59-9.26-14-18.87-29.85-25.47-9.19-35.18-10.05-19.57-29.46-39.64-7.33-6.7,40.94-6.7,40.94C488.29,1057.88,470.14,1067.22,461.89,1075.75Z"/>
            <g>
              <path class="cls-16" d="M556.16,1129.6l-10.4-92.36-52.7,9.75s-1.64,45.75,7,54.87c0,0,4.3,4.89,13.16,4.06l3.17,28.15Z"/>
              <path class="cls-8" d="M504.61,1075.88l-.27.18.15.3c.09.17,2.21,4.18,5.44,4.5H510a.37.37,0,0,0,0-.73c-2.38-.24-4.18-2.94-4.7-3.83,3.11-2.14,4.87-4.67,5.23-7.51.59-4.64-2.73-8.4-2.87-8.56a.36.36,0,1,0-.54.49s3.24,3.68,2.69,8C509.46,1071.41,507.71,1073.83,504.61,1075.88Z"/>
              <path class="cls-8" d="M513.26,1105.92l1.28,11.32c14.44-6.21,28.65-23.33,28.65-23.33C532.28,1102.64,513.26,1105.92,513.26,1105.92Z"/>
              <path class="cls-22" d="M513.3,1058.28c6.77-6.84,15.81.52,16.19.83a.71.71,0,0,0,.55.17.74.74,0,0,0,.48-.26.73.73,0,0,0-.09-1c-.11-.09-10.45-8.53-18.17-.75a.73.73,0,0,0,1,1Z"/>
              <path class="cls-22" d="M495.05,1059.17c2.83-3,9.1,1.19,9.16,1.24a.74.74,0,0,0,.49.12.7.7,0,0,0,.52-.31.72.72,0,0,0-.18-1c-.3-.21-7.37-5-11.06-1a.73.73,0,1,0,1.07,1Z"/>
              <path class="cls-23" d="M501.09,1066.62a2,2,0,1,0-1.79,2.24A2,2,0,0,0,501.09,1066.62Z"/>
              <path class="cls-23" d="M518.94,1064.61a2,2,0,1,0-4,.46,2,2,0,0,0,4-.46Z"/>
              <path class="cls-16" d="M564.13,1068.26a11.38,11.38,0,1,0-10,12.58A11.37,11.37,0,0,0,564.13,1068.26Z"/>
              <path class="cls-8" d="M552.2,1065.25a7,7,0,0,1,4.94-.88.36.36,0,0,0,.43-.28.35.35,0,0,0-.28-.43,7.72,7.72,0,0,0-5.51,1,6.19,6.19,0,0,0-2.44,4.48l-.17,1.29.82-1c.1-.12,2.47-3,5.83-1.41a3.82,3.82,0,0,1,2,4.23,4,4,0,0,1-3.5,3.48.36.36,0,0,0-.33.4.36.36,0,0,0,.4.32h.07a4.8,4.8,0,0,0,4.08-4.07,4.5,4.5,0,0,0-2.39-5,5.36,5.36,0,0,0-5.85.79A5,5,0,0,1,552.2,1065.25Z"/>
            </g>
            <path class="cls-16" d="M545.76,1037.24s-5.1-17.1-28.16-12.57S493.06,1047,493.06,1047l1.7-.31,25-1.06Z"/>
            <path class="cls-22" d="M525.9,1039.47s8.85,22.25,22.33,19.66,2.49-33.55,2.49-33.55-26.58-7.49-28.19-7.31-28.75,1.6-28.75,1.6l-2.38,12.39S507.47,1044.8,525.9,1039.47Z"/>
            <path class="cls-24" d="M514.82,1070.68a.45.45,0,0,0,.1.9A.45.45,0,0,0,514.82,1070.68Z"/>
            <path class="cls-24" d="M517.73,1072a.45.45,0,0,0,.1.89A.45.45,0,0,0,517.73,1072Z"/>
            <path class="cls-24" d="M522.31,1068.2a.45.45,0,0,0,.1.9A.45.45,0,0,0,522.31,1068.2Z"/>
            <path class="cls-24" d="M526.91,1071a.45.45,0,0,0,.1.9A.45.45,0,0,0,526.91,1071Z"/>
            <path class="cls-24" d="M530.86,1066.11a.45.45,0,0,0,.1.9A.45.45,0,0,0,530.86,1066.11Z"/>
            <path class="cls-24" d="M533.2,1072.39a.45.45,0,0,0,.1.9A.45.45,0,0,0,533.2,1072.39Z"/>
            <path class="cls-24" d="M505.54,1069.07a.45.45,0,0,0,.1.89A.45.45,0,0,0,505.54,1069.07Z"/>
            <path class="cls-24" d="M502.62,1073.07a.45.45,0,0,0,.1.9A.45.45,0,0,0,502.62,1073.07Z"/>
            <path class="cls-24" d="M498.4,1071.91a.45.45,0,0,0,.1.9A.45.45,0,0,0,498.4,1071.91Z"/>
            <path class="cls-24" d="M498.82,1078.31a.45.45,0,0,0,.1.89A.45.45,0,0,0,498.82,1078.31Z"/>
            <path class="cls-24" d="M495.37,1074.91a.45.45,0,0,0,.1.9A.45.45,0,0,0,495.37,1074.91Z"/>
            <path class="cls-24" d="M495.45,1069.28a.45.45,0,0,0,.1.9A.45.45,0,0,0,495.45,1069.28Z"/>
            <path class="cls-24" d="M521.27,1074.45a.45.45,0,0,0,.1.9A.45.45,0,0,0,521.27,1074.45Z"/>
            <path class="cls-7" d="M515.34,1089.46c4.83-1.57,4.87-7.48,4.87-7.48s-13,4.19-13.21,4.29C507,1086.27,510.5,1091,515.34,1089.46Z"/>
            <g>
              <path class="cls-25" d="M472.06,1249.59s-45.83,50.82-61,59.22c-12.29,6.82-129.76-15.35-168.35-22.57l8-47.7c4.3-.14,129.45,9.78,129.45,9.78l44.59-48.86Z"/>
              <path class="cls-8" d="M391.13,1275.17c2.72-1.78-1.11-6.17-4.23-15.44-3.22-7.43-5.28-17.28-8.28-12.19C379.54,1249.74,388.26,1277.2,391.13,1275.17Z"/>
              <path class="cls-25" d="M220.49,1234.82l-1.08-1.13c-3.28-.17-9.85-.93-17.57-1.39-.79,6.48-1.56,11.46-2.35,11.47v1.44a1.34,1.34,0,0,1-.39.94c0,6.65.15,15.09-.17,22.17-.23,5-2.07,9.23,1.75,12.22,2.21,1.73,14.63,3,19.08,3.08l29.55,3.37c.08-8.81,4.83-47.18,3.42-48.58Z"/>
              <g>
                <path class="cls-15" d="M197.42,1207.83l9.83-1,.65-.07,9.83-1,19.75,110.87a5.46,5.46,0,0,1-4.8,6.39l-25,2.68a5.47,5.47,0,0,1-6-5.23Z"/>
                <path class="cls-26" d="M195.16,1194.85h24a2.66,2.66,0,0,1,2.66,2.66v11.63a0,0,0,0,1,0,0H192.5a0,0,0,0,1,0,0v-11.63A2.66,2.66,0,0,1,195.16,1194.85Z" transform="translate(541.29 2375.05) rotate(173.88)"/>
                <path class="cls-27" d="M202.08,1210.21l15.86-1.7a5.11,5.11,0,0,0,4.53-5.62l-1-9.61-1,.1,1,9.61a4.14,4.14,0,0,1-3.67,4.55l-15.86,1.7Z"/>
                <g class="cls-28">
                  <circle class="cls-29" cx="200.82" cy="1140.9" r="53.55" transform="translate(-68.55 14.21) rotate(-3.46)"/>
                </g>
                <g class="cls-30">
                  <path class="cls-31" d="M162.49,1134.82c4.13,3.33,13.13-1,20.11-9.62s9.27-18.36,5.14-21.69-13.13,1-20.1,9.63S158.36,1131.49,162.49,1134.82Z"/>
                </g>
                <rect class="cls-27" x="227.33" y="1207.14" width="0.97" height="111.76" transform="translate(-220.26 60.38) rotate(-10.21)"/>
                <path class="cls-27" d="M230.11,1105l.7-.67c-.08-.09-8.59-8.83-20.23-10.06l-.1,1C221.76,1096.39,230,1104.88,230.11,1105Z"/>
                <path class="cls-27" d="M227.72,1111.25l.7-.68c-.08-.09-8.59-8.83-20.23-10.06l-.11,1C219.36,1102.67,227.64,1111.16,227.72,1111.25Z"/>
                <path class="cls-32" d="M206.53,1194.15a53.55,53.55,0,1,1,47.53-59A53.55,53.55,0,0,1,206.53,1194.15Zm56-59.86a62.06,62.06,0,1,0-55.09,68.33A62.07,62.07,0,0,0,262.53,1134.29Z"/>
                <path class="cls-27" d="M207.49,1203.1A62.55,62.55,0,1,0,153,1100.53l.75.63a61.57,61.57,0,1,1,9.83,88.82l-.59.77A62.29,62.29,0,0,0,207.49,1203.1Z"/>
              </g>
              <path class="cls-25" d="M194.27,1248.71c-.45,3.66,1.71,5.8,2.31,5.89l18.72,2.86c2.27.35,4.53-1.7,5.06-4.8.58-3.38-1-6.52-3.48-6.89l-18.64-2.84S194.71,1245.06,194.27,1248.71Z"/>
              <path class="cls-25" d="M192.85,1259.18c-.49,3.65.91,6.78,1.51,6.88l20.11,3.61c2.26.41,4.56-1.58,5.13-4.66.63-3.38-.94-6.56-3.38-7l-20.62-3.7S193.34,1255.53,192.85,1259.18Z"/>
              <path class="cls-8" d="M194.84,1255.33a1.12,1.12,0,0,1-.49-1.17c.07-.61.49-1.05.94-1l20.15,3.18c1.89.29,3.71-1.42,4.13-3.89a5.94,5.94,0,0,0-.49-3.71,3.24,3.24,0,0,0-2.33-1.89l-18.45-2.81a1.05,1.05,0,0,1-.67-1.23c.08-.61.5-1,.94-1l18.45,2.82a4.79,4.79,0,0,1,3.42,2.76,8.84,8.84,0,0,1,.71,5.43c-.61,3.61-3.25,6.12-6,5.7L195,1255.39A.58.58,0,0,1,194.84,1255.33Z"/>
              <path class="cls-25" d="M197.11,1236.21c-.55,3.63.95,6.76,1.55,6.86l20.11,3.42c2.22.37,4.49-1.52,5.1-4.53.7-3.45-.9-6.72-3.38-7.14l-18.77-3.19C199.64,1231.28,197.43,1234.09,197.11,1236.21Z"/>
              <path class="cls-8" d="M198.38,1244a1.13,1.13,0,0,1-.49-1.18c.09-.61.51-1,1-1l20.11,3.51c1.89.32,3.72-1.35,4.17-3.82a6.12,6.12,0,0,0-.46-3.72,3.25,3.25,0,0,0-2.32-1.93l-18.41-3.13a1,1,0,0,1-.65-1.23c.08-.61.5-1,.94-1l18.41,3.13a4.83,4.83,0,0,1,3.4,2.82,8.88,8.88,0,0,1,.66,5.44c-.65,3.61-3.3,6.08-6,5.61l-20.1-3.51A.49.49,0,0,1,198.38,1244Z"/>
              <path class="cls-8" d="M194.79,1266.62a1.13,1.13,0,0,1-.49-1.21c.09-.61.52-1,1-.94l19.54,3.89c1.91.35,3.56-1.12,4-3.57a6,6,0,0,0-.43-3.72,3.3,3.3,0,0,0-2.31-2l-20.62-3.7a1,1,0,0,1-.65-1.24c.08-.61.51-1,.95-1l20.62,3.71a4.85,4.85,0,0,1,3.38,2.85,8.92,8.92,0,0,1,.64,5.45c-.67,3.59-3.15,5.83-5.9,5.34l-19.56-3.89Z"/>
              <path class="cls-25" d="M241.42,1245.74c.62,3.78-1.5,10.26-2.13,10.38l-20.3.61c-2.3.42-4.69-1.52-5.36-4.65-.78-3.58.84-7,3.42-7.48l19.51-3.57C238.72,1240.64,241.06,1243.54,241.42,1245.74Z"/>
              <path class="cls-8" d="M240.54,1257.4a1.18,1.18,0,0,0,.49-1.24c-.09-.63-.54-1.07-1-1l-21.23.41c-2,.36-3.9-1.36-4.4-3.92a6.37,6.37,0,0,1,.43-3.89,3.43,3.43,0,0,1,2.39-2l19.13-3.5A1.08,1.08,0,0,0,237,1241c-.09-.63-.54-1.08-1-1l-19.13,3.5a5,5,0,0,0-3.5,3,9.21,9.21,0,0,0-.62,5.68c.72,3.75,3.52,6.28,6.36,5.76l21.24-.42A.49.49,0,0,0,240.54,1257.4Z"/>
              <path class="cls-25" d="M193.21,1271.05c-.48,3.39.8,6.33,1.36,6.44l18.69,3.67c2.1.41,4.25-1.42,4.81-4.28.61-3.13-.83-6.12-3.09-6.57l-19.17-3.76A6,6,0,0,0,193.21,1271.05Z"/>
              <path class="cls-8" d="M194.53,1277.81a1.15,1.15,0,0,1-.49-1.21c.09-.6.52-1,1-.94l18.68,3.67c1.73.34,3.43-1.16,3.87-3.41a5.63,5.63,0,0,0-.37-3.42,3,3,0,0,0-2.1-1.82l-19.16-3.76a1.05,1.05,0,0,1-.64-1.25c.09-.61.52-1,1-.94l19.16,3.76a4.6,4.6,0,0,1,3.16,2.74,8.43,8.43,0,0,1,.56,5.15c-.66,3.39-3.19,5.65-5.76,5.14l-18.68-3.66Z"/>
            </g>
            <path class="cls-13" d="M458.67,1147.36s-34.62,33.69-62,75.48c0,0,31.9,43.13,64.25,49s25.16-97,25.16-97Z"/>
            <path class="cls-14" d="M456.84,1149.6s-25.16,45.83-16.17,83.57,25.16,46.72,35,77.28,18.87,53,20.67,83.56c0,0,218.35,22.46,260.58,10.78,0,0-108-271.36-159.11-284.84S462.06,1138.62,456.84,1149.6Z"/>
            <path class="cls-14" d="M573.65,1116.7s74.14-13.37,126.25,47.73c0,0-10.63,58.48-63,68.33S573.65,1116.7,573.65,1116.7Z"/>
            <path class="cls-23" d="M495.37,1394.11c-3-30.14-8.48-46.69-16.09-69.59-1.06-3.18-2.15-6.48-3.29-10-4.95-15.14-10.25-24.43-15.86-34.26a247.73,247.73,0,0,1-16.76-34c-12.95-32.41,1.86-71.9,2-72.3l1.89.73c-.15.38-14.68,39.15-2,70.82a244.42,244.42,0,0,0,16.63,33.72c5.67,9.92,11,19.29,16,34.63,1.14,3.49,2.23,6.79,3.29,10,7.65,23,13.17,39.66,16.19,70Z"/>
            <g>
              <path class="cls-25" d="M803,1716.06H758.51s-4.93-31.13,0-31.13h28.21l21.61,21.6Z"/>
              <rect x="452.59" y="1682.59" width="0.87" height="21.38"/>
              <polygon points="442.47 1700.07 441.99 1699.33 447.52 1695.5 448.01 1696.24 442.47 1700.07"/>
              <path class="cls-10" d="M760.13,1664.61l47,19.89,10.05,29.35,43.86-6.55,7.51,3.18a6,6,0,0,0,7.31-2.1,5.93,5.93,0,0,0-2.47-8.79l-109.3-46.23a1.6,1.6,0,0,0-2.08.87l-3.09,7.31A2.33,2.33,0,0,0,760.13,1664.61Z"/>
              <path class="cls-14" d="M760.57,1664.73l-8.37,19.79s3.29,14.28,17.71,13.8c0,0,23.84-5.56,33.12,17.3l47.59-1.28s12.53.88,18-3.89Z"/>
              <path d="M876.71,1702.11a6.43,6.43,0,0,1,.13,5.36,6.33,6.33,0,0,1-8.24,3.47l-108.07-45.72a3.39,3.39,0,0,1-1.74-4.46l2.31-5.47.8.33-2.31,5.48a2.5,2.5,0,0,0,1.29,3.3L869,1710.12a5.45,5.45,0,0,0,7.09-3,5.58,5.58,0,0,0-.11-4.61Z"/>
              <path class="cls-33" d="M450.35,1715.94H761.21v-57.55c-33-16.32-107-36.43-114.48-38.42l-.61-.17A661,661,0,0,0,714.43,1549c17.26-24.61,23.93-47.1,26.15-64a126.6,126.6,0,0,0-1.52-31.55c-.38-2-.65-3.09-.65-3.09l-72.29-14-50.53,51.14S495.49,1613,486.73,1643.2,450.35,1715.94,450.35,1715.94Z"/>
              <path class="cls-34" d="M632.63,1629.25a.79.79,0,0,0,.75.58l.2,0c.2-.06,2.89-.91,13.15-9.83,9-7.86,24-22,48.3-47.46a202.36,202.36,0,0,0,19.4-23.52c17.26-24.61,23.93-47.1,26.15-64,2.47-18.81-.57-30.74-.63-31a.77.77,0,0,0-.89-.56H739a.78.78,0,0,0-.55,1c.14.55,14.09,55.67-44.54,117-50.89,53.25-60.35,56.74-60.74,56.86A.79.79,0,0,0,632.63,1629.25Z"/>
              <path class="cls-34" d="M761.21,1716.72a.79.79,0,0,0,.79-.71c1-11.15,0-55.74,0-57.64v-.5l-.47-.2c-.64-.28-65.21-28.22-115.23-38.64l-.77-.16-.17.77a38.1,38.1,0,0,1-3.78,9,.79.79,0,0,0,1.39.75,44.49,44.49,0,0,0,3.74-8.69c47.52,10,107.84,35.67,113.73,38.2.11,5.07,1,46.52,0,56.94a.79.79,0,0,0,.72.86Z"/>
              <path class="cls-34" d="M747.14,1706.16a.79.79,0,0,0,.78-.71c0-.32,3.51-32.49-1-53.48a.79.79,0,0,0-.93-.61.8.8,0,0,0-.61.94c4.48,20.74,1,52.66,1,53a.79.79,0,0,0,.7.87Z"/>
            </g>
            <g>
              <polygon class="cls-25" points="458.39 1692.83 529.15 1693.17 529.76 1632.03 459.23 1624.51 458.39 1692.83"/>
              <path class="cls-10" d="M529.82,1700.85h-60l-24.34-27.2-44.52,27.2h-9.59a7,7,0,0,0-6.95,5.62,7,7,0,0,0,6.7,8.39h139.6a1.88,1.88,0,0,0,1.85-1.9v-9.33A2.74,2.74,0,0,0,529.82,1700.85Z"/>
              <path class="cls-14" d="M529.29,1700.92v-25.28s-10.11-14-25.51-6.83c0,0-23.28,16.94-43.81-3.56l-51,23.19s-14,4.79-17.76,12.48Z"/>
              <path d="M386.33,1713.65a7.61,7.61,0,0,1-2.59-5.75,7.44,7.44,0,0,1,7.34-7.53h138a4,4,0,0,1,3.93,4v7h-1v-7a3,3,0,0,0-2.91-3h-138a6.41,6.41,0,0,0-6.32,6.48,6.55,6.55,0,0,0,2.23,4.95Z"/>
              <path class="cls-22" d="M391.54,1701.12l-.92-.45c.11-.25,2.91-6.13,13.34-10.69,10.25-4.49,55.35-25,55.8-25.21l.42,1c-.46.2-45.56,20.73-55.82,25.21C394.32,1695.34,391.57,1701.06,391.54,1701.12Z"/>
            </g>
            <path class="cls-22" d="M753.78,1401.16,493,1355.71A52.69,52.69,0,0,0,439.52,1402c-2,16.63-.4,51.32-.1,73.47.7,51.93,14.74,188.07,14.74,188.07h77.9l9.16-170.71c3.14.84,120.73,57.49,199.1,6.06,23.52-15.44,21.45-71.64,20-90.5A8,8,0,0,0,753.78,1401.16Z"/>
            <g>
              <path class="cls-25" d="M633.87,1394.94c-10.94,2.58-30.36,5.87-37.86,5.49h0a10.25,10.25,0,0,1-1.8-.21h-.06l-.37-.11a37.52,37.52,0,0,0-7-1.53c-7.83-2.19-15.67-5.49-18.3-5.63-2.42-.13-6.71,2.48-9.38,4.28a5.75,5.75,0,0,1-7.19-.46,5,5,0,0,1-1.31-5.07s-7.38-1.55-5.07-7.77c0,0-8.12-1.61-2.11-10.38a5.83,5.83,0,0,1-1.43-7.28c2.2-4.49,11.26-11.9,13.16-12.63s29.36-4.73,29.36-4.73,34.21,1.37,36.05,1Z"/>
              <path class="cls-8" d="M566.63,1361.12a.6.6,0,0,1-.41.24c-.07,0-6.85,1.17-9.15,2.32-1.86.94-9.45,7.18-13.21,10.35a.65.65,0,0,1-.91-.07.64.64,0,0,1,.08-.91c.44-.37,11-9.27,13.46-10.51s9.24-2.4,9.52-2.44a.64.64,0,0,1,.75.52A.62.62,0,0,1,566.63,1361.12Z"/>
              <path class="cls-8" d="M568.14,1373.6a.66.66,0,0,1-.42.24,45.32,45.32,0,0,0-8.48,2.07c-3,1.26-13.21,8.46-13.31,8.54a.66.66,0,0,1-.91-.15.64.64,0,0,1,.15-.9c.43-.3,10.4-7.36,13.57-8.68a45.55,45.55,0,0,1,8.8-2.15.64.64,0,0,1,.73.54A.66.66,0,0,1,568.14,1373.6Z"/>
              <path class="cls-8" d="M570.06,1382.67a.66.66,0,0,1-.45.25,31,31,0,0,0-6.78,1.58c-3.12,1.18-11.74,7.63-11.82,7.7a.67.67,0,0,1-.92-.12.64.64,0,0,1,.14-.9c.36-.27,8.85-6.63,12.14-7.88a31.79,31.79,0,0,1,7.12-1.66.63.63,0,0,1,.57,1Z"/>
            </g>
            <path class="cls-25" d="M617.09,1393.71s15,1,16.78,1.23,19.57-4.89,19.57-4.89l4.68-24.49-30-21.94-12.53,8.94Z"/>
            <path class="cls-25" d="M698.25,1169.13c-13.77,30.49-22.76,40.57-58.1,58l53.31,55.11-74.88,70.27,34.86,37.49s118.5-43.66,122.69-105.36C777.86,1259.23,715.59,1192.18,698.25,1169.13Z"/>
            <path class="cls-23" d="M628.79,1232.74l-.42-.58c-6.48-8.92-46.25-52.25-46.65-52.69l1.49-1.37c1.6,1.75,38.68,42.15,46.35,52.28,6.27-2.14,54.23-19.89,69.38-65.55l1.92.64c-16.48,49.64-70.83,66.89-71.38,67.06Z"/>
            <polygon class="cls-23" points="532.96 1663.63 531.16 1663.53 540.3 1493.17 526.46 1476.83 527.84 1475.66 542.14 1492.56 532.96 1663.63"/>
            <path class="cls-23" d="M653.1,1521.3c-40.36,0-111.48-27.32-112.2-27.59l.65-1.68c.72.27,71.52,27.47,111.54,27.47h1.2c48.45-.68,84.76-14.08,97.13-35.85l1.56.89c-12.69,22.33-49.57,36.07-98.66,36.76Z"/>
            <path class="cls-16" d="M564.2,1117.24s-18.75,36.87-39.65,38.37S507,1126.48,507,1126.48,536.41,1115.41,564.2,1117.24Z"/>
          </g>
          <g>
            <path class="cls-35" d="M2301,1067.06l98.77,31.62,85.44-103,59.27,9.79s-85.29,187.89-109.73,191.63-137.49-20.52-137.49-20.52Z"/>
            <path class="cls-36" d="M2310.15,1070.53s5.86,52.35,3.71,89.66-20.62,289.69-20.62,289.69-78,9.65-127.4,4.48-124.52-35.46-124.52-35.46l28.15-247.39s13.94-103.19,25.67-117.33,98.69-6,98.69-6S2288.32,1061.46,2310.15,1070.53Z"/>
            <path class="cls-5" d="M2219.54,941.68,2283.07,963l-3.87,53.77s-.56,18.23-16.53,19.36l1.21,24.47a19,19,0,0,1-14.33,19.46,49.18,49.18,0,0,1-15.1,1.24c-18.06-1.3-26.86-15.64-27.88-22.56s5.85-39.17,5.85-39.17l.6-16Z"/>
            <path d="M2256.18,984.87c-7.89-7.4-17.69,1.31-18.1,1.68a.74.74,0,0,1-.56.19.68.68,0,0,1-.5-.25.76.76,0,0,1,.05-1.07c.11-.1,11.23-10,20.14-1.66a.77.77,0,0,1,0,1.07A.75.75,0,0,1,2256.18,984.87Z"/>
            <path d="M2279.62,982.49c-3.34-3.33-10.17,1.74-10.24,1.79a.69.69,0,0,1-.51.15.75.75,0,0,1-.39-1.36c.32-.25,7.94-5.91,12.2-1.66a.76.76,0,0,1-1.06,1.08Z"/>
            <path d="M2248,990.58a2.26,2.26,0,1,1,2.09,2.43A2.26,2.26,0,0,1,2248,990.58Z"/>
            <path d="M2231,965.12l-11.8-14.8s-1-2.83-2.07-7.09,12.1-13.84,23.07-19.14,16.79,7.23,26.12,3.84c17.09-6.21,29.95,3.64,32.46,8.21,5.1,9.26,16.83,19.13-4,35.4S2231,965.12,2231,965.12Z"/>
            <path d="M2216.76,1020.27c-23.78.82-18-32.76-17.77-37.79s-5.69-14.32.37-30.8,23.38-14.38,23.38-14.38l-2.19,4.71,6.61,22.84Z"/>
            <path class="cls-5" d="M2206.84,986.82a13.58,13.58,0,1,1,12.56,14.61A13.62,13.62,0,0,1,2206.84,986.82Z"/>
            <path class="cls-8" d="M2221,982.57c-2.56-1.67-5.95-.83-6-.82a.37.37,0,0,1-.46-.28.38.38,0,0,1,.27-.46,9.09,9.09,0,0,1,6.58.92,7.36,7.36,0,0,1,3.09,5.22l.24,1.34-.89-1c-.13-.15-3.12-3.53-7.1-1.43a4.68,4.68,0,0,0-2.2,5.25,4.88,4.88,0,0,0,4.32,4h.08a.39.39,0,0,1,.35.4.38.38,0,0,1-.4.36h-.08a5.66,5.66,0,0,1-5-4.63,5.38,5.38,0,0,1,2.59-6.08,6.34,6.34,0,0,1,7.09.76A6.17,6.17,0,0,0,2221,982.57Z"/>
            <path class="cls-8" d="M2227.14,1018.05c10.69,21.27,35.53,18.08,35.53,18.08l.89,18C2226,1048.55,2227.14,1018.05,2227.14,1018.05Z"/>
            <path class="cls-8" d="M2266.3,985.65a.37.37,0,0,1,.4.35l1.13,18.67-8.33,2.12h-.12a.37.37,0,0,1-.34-.29.39.39,0,0,1,.28-.46l7.72-2-1.09-18A.37.37,0,0,1,2266.3,985.65Z"/>
            <path class="cls-7" d="M2253,1013.76c.23,0,14.93.68,14.93.68s-2.28,6-7.75,5.72S2253,1013.76,2253,1013.76Z"/>
            <path d="M2199.22,1457.8c-16.2,0-32.2-.83-45.84-3.09a1.13,1.13,0,0,1,.37-2.23c49.08,8.13,129.06-2.31,138.43-3.59,1.12-15.38,15.73-217.84,18.35-255.36,2.72-38.74,1-102.66,1-103.3a1.11,1.11,0,0,1,1.09-1.15,1.13,1.13,0,0,1,1.16,1.09c0,.64,1.68,64.66-1,103.52s-18.26,254.11-18.41,256.27l-.07.91-.9.13C2292.76,1451.09,2245.14,1457.8,2199.22,1457.8Zm94-7.92h0Z"/>
            <g>
              <path class="cls-25" d="M1997.38,1715.58h44.52s4.93-31.13,0-31.13h-28.21l-21.6,21.6Z"/>
              <rect x="2346.96" y="1682.12" width="0.87" height="21.38"/>
              <polygon points="2357.94 1699.59 2358.42 1698.85 2352.89 1695.02 2352.4 1695.76 2357.94 1699.59"/>
              <path class="cls-37" d="M2040.28,1664.13l-47,19.89-10,29.35-43.87-6.55-7.51,3.18a6,6,0,0,1-4.84-10.89l109.3-46.23a1.6,1.6,0,0,1,2.08.87l3.09,7.31A2.33,2.33,0,0,1,2040.28,1664.13Z"/>
              <path class="cls-38" d="M2039.84,1664.25l8.37,19.79s-3.29,14.28-17.7,13.8c0,0-23.85-5.56-33.13,17.3l-47.59-1.28s-12.53.88-18-3.89Z"/>
              <path d="M1923.7,1701.64a6.44,6.44,0,0,0-.13,5.35,6.33,6.33,0,0,0,8.24,3.47l108.07-45.72a3.39,3.39,0,0,0,1.74-4.46l-2.31-5.47-.8.33,2.31,5.48a2.5,2.5,0,0,1-1.29,3.3l-108.06,45.72a5.46,5.46,0,0,1-7.1-3,5.58,5.58,0,0,1,.11-4.61Z"/>
              <path class="cls-9" d="M2350.06,1715.46H2039.2v-57.55c33-16.32,107-36.43,114.48-38.42l.61-.17a661,661,0,0,1-68.31-70.81c-17.26-24.61-23.93-47.1-26.15-64a126.65,126.65,0,0,1,1.52-31.56c.38-2,.65-3.09.65-3.09l72.29-14,76.22,51s120.87,147.22,129.64,177.4S2350.06,1715.46,2350.06,1715.46Z"/>
              <path class="cls-34" d="M2167.78,1628.77a.79.79,0,0,1-.75.58l-.2,0c-.2-.06-2.89-.91-13.15-9.83-9-7.86-24-22-48.29-47.46a201.49,201.49,0,0,1-19.41-23.52c-17.26-24.61-23.93-47.1-26.15-64-2.46-18.82.57-30.74.64-31a.76.76,0,0,1,.88-.56h.08a.78.78,0,0,1,.55,1c-.14.55-14.09,55.67,44.55,117,50.88,53.25,60.35,56.74,60.73,56.86A.79.79,0,0,1,2167.78,1628.77Z"/>
              <path class="cls-34" d="M2039.2,1716.25a.78.78,0,0,1-.78-.72c-1.05-11.15-.05-55.74,0-57.63l0-.51.46-.2c.64-.28,65.21-28.22,115.24-38.64l.77-.16.16.77a38.67,38.67,0,0,0,3.78,9,.79.79,0,0,1-1.39.75,44.76,44.76,0,0,1-3.74-8.68c-47.52,10-107.84,35.66-113.73,38.19-.11,5.07-1,46.52,0,56.94a.79.79,0,0,1-.71.86Z"/>
              <path class="cls-34" d="M2053.27,1705.68a.79.79,0,0,1-.78-.71c0-.32-3.51-32.49,1-53.48a.79.79,0,1,1,1.54.33c-4.48,20.74-1,52.66-1,53a.79.79,0,0,1-.7.87Z"/>
            </g>
            <g>
              <polygon class="cls-25" points="2342.02 1698.32 2271.26 1698.66 2270.65 1637.52 2341.18 1630 2342.02 1698.32"/>
              <path class="cls-37" d="M2270.59,1706.34h60l24.34-27.2,44.52,27.2h9.59a7,7,0,0,1,.25,14H2269.74a1.89,1.89,0,0,1-1.86-1.91v-9.33A2.75,2.75,0,0,1,2270.59,1706.34Z"/>
              <path class="cls-38" d="M2271.12,1706.42v-25.28s10.11-14,25.51-6.84c0,0,23.28,17,43.81-3.56l51,23.2s14,4.79,17.76,12.48Z"/>
              <path d="M2414.08,1719.14a7.6,7.6,0,0,0,2.6-5.74,7.46,7.46,0,0,0-7.35-7.54h-138a4,4,0,0,0-3.93,4v7h1v-7a3,3,0,0,1,2.91-3h138a6.41,6.41,0,0,1,6.32,6.49,6.53,6.53,0,0,1-2.23,4.94Z"/>
              <path d="M2408.87,1706.61l.92-.45c-.11-.24-2.91-6.12-13.34-10.69-10.25-4.48-55.35-25-55.8-25.21l-.42,1c.46.21,45.56,20.73,55.82,25.22C2406.09,1700.83,2408.84,1706.55,2408.87,1706.61Z"/>
            </g>
            <path class="cls-15" d="M2046.64,1406.65l247.48-62.28a50.73,50.73,0,0,1,61,34.87,177.72,177.72,0,0,1,5.75,28.3c2,16.62.4,51.31.1,73.47-.7,51.93-14.74,188.06-14.74,188.06h-77.9l-9.16-170.71c-3.14.85-120.73,57.5-199.1,6.06-23.52-15.43-21.45-71.63-20.05-90.49A8,8,0,0,1,2046.64,1406.65Z"/>
            <polygon class="cls-23" points="2267.45 1669.12 2258.27 1498.05 2272.57 1481.15 2273.95 1482.32 2260.11 1498.67 2269.25 1669.02 2267.45 1669.12"/>
            <path class="cls-23" d="M2147.31,1526.79h-1.22c-49.09-.69-86-14.44-98.66-36.77l1.56-.89c12.38,21.77,48.68,35.17,97.13,35.85,39.77.56,112-27.18,112.74-27.46l.65,1.68C2258.79,1499.48,2187.67,1526.79,2147.31,1526.79Z"/>
            <g>
              <polygon class="cls-3" points="2391.5 1003.4 2280.72 1000.52 2280.72 981.03 2391.5 978.15 2391.5 1003.4"/>
              <polygon class="cls-39" points="2468.27 1011.13 2357.49 1006.49 2357.49 975.06 2468.27 970.42 2468.27 1011.13"/>
              <polygon class="cls-3" points="2618.71 1024.01 2468.27 1016.44 2468.27 965.12 2618.71 957.54 2618.71 1024.01"/>
              <rect class="cls-39" x="2274.54" y="978.77" width="6.18" height="24.01"/>
              <rect class="cls-39" x="2618.71" y="949.83" width="6.18" height="81.89"/>
            </g>
            <g>
              <path class="cls-16" d="M2513.78,957.85l2-17.6s2.8-2.69,6.22-2.19,4.85,3,4.78,3.53l-2,17.68c-.24,2.14-2.65,3.7-5.58,3.42C2516,962.39,2513.52,960.16,2513.78,957.85Z"/>
              <path class="cls-16" d="M2525.05,960.24l1.68-19.61a6,6,0,0,1,5.08-1.3c3.43.44,5.92,2.48,5.88,3l-1.64,19.12c-.18,2.15-2.55,3.74-5.48,3.51C2527.35,964.76,2524.85,962.56,2525.05,960.24Z"/>
              <path class="cls-16" d="M2536.51,962.11l1.27-18.3a5.56,5.56,0,0,1,4.71-1.25c3.2.38,5.55,2.26,5.51,2.8l-1.24,17.84c-.14,2-2.32,3.51-5.05,3.32C2538.72,966.31,2536.36,964.28,2536.51,962.11Z"/>
              <path class="cls-8" d="M2512.75,957.7l1.95-17.41c.05-.42.55-.7,1.12-.61s1,.48.95.9L2514.82,958a3,3,0,0,0,1.14,2.58,5.69,5.69,0,0,0,3.24,1.35c2.35.22,4.34-1,4.54-2.81l2-19c0-.41.54-.69,1.11-.61a1.06,1.06,0,0,1,1,.74.86.86,0,0,1,0,.16l-2,19c-.29,2.59-3.21,4.37-6.64,4a8.26,8.26,0,0,1-4.75-2A4.48,4.48,0,0,1,2512.75,957.7Z"/>
              <path class="cls-16" d="M2503,958.45l1.69-17.8c.19-2,3.28-3.29,5.28-3.06,3.43.39,5.9,2.51,5.84,3.08L2514,959.74c-.2,2.1-2.47,3.7-5.35,3.52C2505.32,963.05,2502.75,960.8,2503,958.45Z"/>
              <path class="cls-8" d="M2501.94,958.31l1.66-17.46c0-.42.53-.7,1.1-.62s1,.48,1,.89L2504,958.58a3.1,3.1,0,0,0,1.19,2.58,5.75,5.75,0,0,0,3.26,1.32c2.35.2,4.32-1.05,4.49-2.85l1.72-19.09c0-.42.53-.7,1.1-.63a1.08,1.08,0,0,1,.95.73.49.49,0,0,1,0,.17L2515,959.9c-.24,2.6-3.13,4.4-6.56,4.11a8.34,8.34,0,0,1-4.77-1.93A4.53,4.53,0,0,1,2501.94,958.31Z"/>
              <path class="cls-8" d="M2524,960.11l1.67-19.61c0-.42.53-.7,1.1-.63s1,.48,1,.89l-1.68,19.61a3.12,3.12,0,0,0,1.21,2.57,5.73,5.73,0,0,0,3.28,1.31c2.32.18,4.06-1,4.21-2.77L2536,942.8c0-.42.51-.7,1.08-.64a1.08,1.08,0,0,1,1,.74.65.65,0,0,1,0,.14l-1.24,18.69c-.22,2.62-2.86,4.32-6.28,4a8.44,8.44,0,0,1-4.79-1.91A4.56,4.56,0,0,1,2524,960.11Z"/>
              <path class="cls-8" d="M2534.75,962.05l1.27-18.3c0-.42.51-.7,1.08-.63s1,.46,1,.88l-1.26,18.3a2.84,2.84,0,0,0,1.14,2.35,5.23,5.23,0,0,0,3,1.17c2.15.15,3.92-1,4-2.68l1.24-17.84c0-.42.51-.71,1.09-.64a1.08,1.08,0,0,1,1,.74.66.66,0,0,1,0,.14l-1.24,17.85c-.17,2.45-2.84,4.19-6.07,4a7.92,7.92,0,0,1-4.54-1.76A4.36,4.36,0,0,1,2534.75,962.05Z"/>
            </g>
          </g>
          <path class="cls-15" d="M1797,688.34s28.77,46.93,13.72,109.56-8.61,119.67-8.61,119.67l-32.61-54.38Z"/>
          <g>
            <path class="cls-16" d="M2002.13,1413.53a5.59,5.59,0,0,0,7.75,1.57h0a5.59,5.59,0,0,0,1.57-7.75l-16.26-32.13c-1.11-1.68-5.06-2.5-8.39-2.39-31.75-9-35.37-15.37-44.16-17l-1.24,6.89-6,33.12a83.93,83.93,0,0,1-10.33,28.47l-1.29,2.21a5.59,5.59,0,0,0,2.33,7.83,5.73,5.73,0,0,0,7.42-2.35l9.36-16a1.39,1.39,0,0,1,1.45-.65,1.36,1.36,0,0,1,1,1.86l-10.58,25.25a4.5,4.5,0,0,0,3.39,6.39,7.25,7.25,0,0,0,7.79-4.12l10.79-25.75a1.36,1.36,0,0,1,1.52-.81l.45.1a1.36,1.36,0,0,1,1.06,1.6l-6.17,30.34a5.73,5.73,0,0,0,4,6.7,5.6,5.6,0,0,0,7-4.28l6.2-30.53a1.36,1.36,0,0,1,1.6-1.07l1.43.29a1.38,1.38,0,0,1,1.09,1.43l-2,28.88a5.71,5.71,0,0,0,4.8,6.12,5.58,5.58,0,0,0,6.34-5.15s5.46-43.86,6.87-50.65Z"/>
            <path class="cls-36" d="M2038,1253.17c4.73-10.33,39.83-38.49,66.27-63.38a370.49,370.49,0,0,0,44-49.56l.77-1a105.89,105.89,0,0,0,11.4-43.64c2.26-53.24-56.33-47.12-56.33-47.12-37.63,19.5-124.24,137.2-145.73,181.35s-21.79,144.06-21.79,144.06,24.35,12.53,62,5.48C1998.55,1379.33,2030.79,1268.78,2038,1253.17Z"/>
          </g>
          <path class="cls-23" d="M1997.41,1379.11l2.28.45c3.79-19.3,39.86-126.68,41.59-129.46s19-19,25.38-24.94c50.88-41.15,83-84.84,83.27-85.28l-1.88-1.37c-.32.44-32.22,43.89-82.91,84.89-1,.94-23.42,21.68-25.82,25.45C2036.61,1253.1,2000.72,1362.25,1997.41,1379.11Z"/>
          <path class="cls-4" d="M1745.28,587.49s5.43,10.06,15.91,13.67l-7.08-6.84Z"/>
          <rect class="cls-40" x="63.78" y="1714.86" width="2726.68" height="7.23" rx="3.09"/>
          <g class="cls-28">
            <g class="cls-28">
              <g class="cls-28">
                <path class="cls-2" d="M732.92,815.52a86.7,86.7,0,0,0-9.31-26.59l14.13-18.26-10.53-11.76-10.52-11.76-19.71,12A86.77,86.77,0,0,0,671.59,747l-2.92-22.91-15.76-.87-15.76-.88-5.43,22.45a86.55,86.55,0,0,0-26.58,9.31l-18.26-14.13-11.77,10.53L563.35,761l12,19.71a86.9,86.9,0,0,0-12.2,25.39L540.27,809l-.88,15.77-.87,15.76L561,846a86.75,86.75,0,0,0,9.32,26.58l-14.14,18.26,10.53,11.76,10.53,11.77,19.71-12a86.71,86.71,0,0,0,25.38,12.2l2.92,22.91,15.76.87,15.76.88,5.44-22.44a87,87,0,0,0,26.58-9.32L707,921.55,718.77,911l11.76-10.53-12-19.71a86.65,86.65,0,0,0,12.2-25.39l22.91-2.91.87-15.77.88-15.76Zm-89.26,74.36A59.23,59.23,0,1,1,706.07,834,59.23,59.23,0,0,1,643.66,889.88Z"/>
              </g>
            </g>
          </g>
          <g class="cls-41">
            <g class="cls-28">
              <g class="cls-28">
                <path class="cls-2" d="M2053.7,308.31a86.66,86.66,0,0,0-9.32-26.58l14.13-18.26L2048,251.7l-10.53-11.76-19.71,12a86.71,86.71,0,0,0-25.38-12.2l-2.92-22.91-15.76-.87-15.76-.87-5.44,22.44a86.66,86.66,0,0,0-26.58,9.32l-18.26-14.13-11.76,10.52-11.76,10.53,12,19.71a86.77,86.77,0,0,0-12.2,25.39L1861,301.81l-.87,15.76-.88,15.76,22.44,5.44a86.92,86.92,0,0,0,9.32,26.58l-14.13,18.26,10.53,11.76L1898,407.14l19.71-12a87,87,0,0,0,25.39,12.21l2.92,22.9,15.76.88,15.76.87,5.43-22.44a86.92,86.92,0,0,0,26.58-9.32l18.26,14.13,11.76-10.53,11.77-10.52-12-19.71a86.91,86.91,0,0,0,12.21-25.39l22.9-2.92.88-15.76.87-15.77Zm-89.27,74.36a59.23,59.23,0,1,1,62.42-55.85A59.21,59.21,0,0,1,1964.43,382.67Z"/>
              </g>
            </g>
          </g>
          <g>
            <path class="cls-42" d="M1442.22,446.22s59.71,7.22,78.23,80.78C1520.45,527,1431.82,511.81,1442.22,446.22Z"/>
            <path class="cls-3" d="M1418,417s89.68-43.44,173.94,56.39C1592,473.37,1451.53,526.35,1418,417Z"/>
          </g>
          <g class="cls-28">
            <g class="cls-28">
              <g class="cls-28">
                <path class="cls-2" d="M493.31,524.71a193.94,193.94,0,0,0-22.92-58.59l30.08-41.88L476,398.82,451.6,373.4l-43,28.42a193.81,193.81,0,0,0-57.64-25.21l-8.35-50.9-35.25-.7-35.25-.69-10.34,50.53a193.89,193.89,0,0,0-58.58,22.92l-41.88-30.09-25.42,24.44-25.42,24.44,28.42,43a193.81,193.81,0,0,0-25.21,57.64l-50.89,8.35-.69,35.25-.7,35.25,50.53,10.35A193.89,193.89,0,0,0,134.82,665L104.74,706.9l24.44,25.42,24.43,25.42,43-28.42a193.64,193.64,0,0,0,57.63,25.21l8.35,50.9,35.25.69,35.25.7,10.34-50.53a193.89,193.89,0,0,0,58.58-22.92l41.89,30.09L469.35,739l25.42-24.44-28.42-43a193.76,193.76,0,0,0,25.21-57.65l50.89-8.34.69-35.25.7-35.26ZM362,683.77a132.28,132.28,0,1,1,58.8-177.6A132.27,132.27,0,0,1,362,683.77Z"/>
              </g>
            </g>
          </g>
          <g>
            <g>
              <g>
                <path class="cls-43" d="M1548.77,257.17a151.33,151.33,0,1,0-259,106.35h0s45.8,49,61.26,102.36c0,0,26.44,9,46.39,9.48,20-.5,46.4-9.48,46.4-9.48,15.46-53.38,61.26-102.36,61.26-102.36h0A150.85,150.85,0,0,0,1548.77,257.17Z"/>
                <path class="cls-15" d="M1397.41,554.81h0a23.52,23.52,0,0,1-23.52-23.52h47A23.52,23.52,0,0,1,1397.41,554.81Z"/>
                <path class="cls-15" d="M1347,453.82h100.89a0,0,0,0,1,0,0v40.42a43.49,43.49,0,0,1-43.49,43.49h-13.91A43.49,43.49,0,0,1,1347,494.24V453.82A0,0,0,0,1,1347,453.82Z"/>
                <g class="cls-44">
                  <path class="cls-43" d="M1548.77,257.17a150.61,150.61,0,0,0-25.26-83.73C1479.25,282.5,1408.67,355.85,1307,384.3c12.81,16.8,29.78,42.09,40,69.52h100.82c18.15-48.47,57.25-90.3,57.25-90.3h0A150.85,150.85,0,0,0,1548.77,257.17Z"/>
                </g>
              </g>
              <path class="cls-26" d="M1422.17,454.41l-4.33-1.18c.14-.52,14.25-52.41,24-105.57,17-92.22,7.22-111.78-.12-115.23-7.49-3.53-13.39-2.9-17.52,1.88-.3.35-.59.71-.87,1.1a28,28,0,0,1,13.75,19.7c1.68,10.7-3.11,21.39-10.67,23.82-1.84.59-5.36.89-8.41-3.72-4.84-7.32-6.35-25.61-.93-37.81a49.75,49.75,0,0,0-18.79-3.26H1394a49.75,49.75,0,0,0-18.79,3.26c5.42,12.2,3.91,30.49-.93,37.81-3,4.61-6.57,4.31-8.4,3.72-7.57-2.43-12.35-13.12-10.68-23.82a28,28,0,0,1,13.75-19.7c-.28-.39-.57-.75-.87-1.1-4.13-4.78-10-5.41-17.52-1.88-7.33,3.45-17.1,23-.12,115.23,9.79,53.16,23.9,105,24,105.57l-4.34,1.18c-.14-.52-14.29-52.57-24.12-105.91-13.56-73.63-12.7-112.92,2.62-120.13,11.88-5.6,19-1.46,22.83,3a20.22,20.22,0,0,1,1.52,2c5.29-2.26,12.14-3.72,21-3.72h4.37c8.86,0,15.71,1.47,21,3.72a20.3,20.3,0,0,1,1.53-2c3.85-4.46,10.94-8.6,22.83-3,15.32,7.21,16.17,46.5,2.61,120.13C1436.47,401.84,1422.31,453.89,1422.17,454.41Zm-51-215c-6.38,3.73-10.43,9.33-11.54,16.42-1.46,9.35,2.75,17.3,7.61,18.86.45.14,1.66.54,3.29-1.92C1374.63,266.47,1375.72,249.92,1371.13,239.38Zm50,0c-4.59,10.54-3.5,27.09.65,33.36,1.63,2.46,2.83,2.06,3.28,1.92,4.86-1.56,9.08-9.51,7.61-18.86C1431.57,248.71,1427.53,243.11,1421.14,239.38Z"/>
              <path class="cls-27" d="M1346.23,454.87c-1.2-3.45-1.75-4.71-2.94-7.48l-.65-1.51c-18.89-44.12-53.32-81.22-53.67-81.59l-.11-.12a151.55,151.55,0,0,1-43.86-107c0-84.06,68.39-152.46,152.45-152.46a152.12,152.12,0,0,1,127.62,69.05L1523.2,175a149.9,149.9,0,0,0-125.75-68c-82.83,0-150.21,67.38-150.21,150.21a149.34,149.34,0,0,0,43.35,105.56l1.47,1.48-.11,0c6.59,7.37,35.84,41.27,52.75,80.77l.65,1.51c1.21,2.81,1.77,4.1,3,7.62Z"/>
              <path class="cls-27" d="M1291.76,187.31l-2.15-.63c.11-.38,11.3-37.62,48.94-51.63l.78,2.11C1302.77,150.76,1291.87,186.94,1291.76,187.31Z"/>
              <path class="cls-27" d="M1298.7,200.77l-2.15-.62c.11-.38,11.29-37.63,48.94-51.63l.78,2.1C1309.71,164.22,1298.81,200.41,1298.7,200.77Z"/>
              <path class="cls-27" d="M1402.91,538.85h-11a46.13,46.13,0,0,1-46.07-46.07V452.69h102v2.25h-99.76v37.84a43.87,43.87,0,0,0,43.82,43.82h11A43.54,43.54,0,0,0,1433.64,524l1.57,1.6A45.79,45.79,0,0,1,1402.91,538.85Z"/>
              <path class="cls-27" d="M1398.06,555.94c-21.86,0-25-21.21-25-21.43l2.22-.3c.12.81,3,19.95,23.56,19.48l0,2.24Z"/>
              <path class="cls-27" d="M1501.21,341.89l-1.33-1.8c20-14.82,23.11-39.56,23.14-39.81l2.23.26C1525.22,300.8,1522,326.48,1501.21,341.89Z"/>
              <path class="cls-27" d="M1496.79,331.11l-1.34-1.8c14.56-10.8,16.86-28.85,16.88-29l2.23.26C1514.47,301.32,1512.15,319.72,1496.79,331.11Z"/>
              <path class="cls-27" d="M1342.33,474l0-2.24c.85,0,85.92-1.12,112.86-11.16l.78,2.1C1428.65,472.87,1345.84,474,1342.33,474Z"/>
              <path class="cls-27" d="M1342.34,493l0-2.25c.93,0,93.24-1.84,110.5-11.09l1.06,2C1436.13,491.09,1346.16,492.88,1342.34,493Z"/>
              <path class="cls-27" d="M1347,512.41l0-2.25c.84,0,83.68-.88,105.87-12.35l1,2C1431.19,511.52,1350.4,512.38,1347,512.41Z"/>
            </g>
            <path class="cls-26" d="M1207.54,233.35h-.28l-53.55-4.56a3.37,3.37,0,0,1,.57-6.71l53.55,4.56a3.37,3.37,0,0,1-.29,6.72Z"/>
            <path class="cls-26" d="M1235.24,148a3.35,3.35,0,0,1-1.9-.59L1189,117.09a3.37,3.37,0,1,1,3.8-5.56l44.36,30.35a3.37,3.37,0,0,1,.87,4.68A3.34,3.34,0,0,1,1235.24,148Z"/>
            <path class="cls-26" d="M1315.41,86.83a3.36,3.36,0,0,1-3.12-2.1l-20.23-49.8a3.37,3.37,0,1,1,6.24-2.53l20.23,49.79a3.37,3.37,0,0,1-1.86,4.39A3.29,3.29,0,0,1,1315.41,86.83Z"/>
            <path class="cls-26" d="M1584.65,243.05a3.36,3.36,0,0,1-.21-6.72l53.62-3.55a3.37,3.37,0,0,1,.45,6.72l-53.63,3.55Z"/>
            <path class="cls-26" d="M1558.58,157.22a3.37,3.37,0,0,1-1.86-6.18l44.93-29.5a3.37,3.37,0,1,1,3.69,5.63l-44.92,29.5A3.29,3.29,0,0,1,1558.58,157.22Z"/>
            <path class="cls-26" d="M1490,86.63a3.51,3.51,0,0,1-1.33-.27,3.38,3.38,0,0,1-1.77-4.42L1508,32.53a3.37,3.37,0,1,1,6.19,2.66l-21.16,49.4A3.38,3.38,0,0,1,1490,86.63Z"/>
            <path class="cls-26" d="M1403.64,60.48h-.06a3.36,3.36,0,0,1-3.31-3.42l.82-53.74A3.37,3.37,0,0,1,1404.46,0h0a3.37,3.37,0,0,1,3.32,3.42L1407,57.16A3.37,3.37,0,0,1,1403.64,60.48Z"/>
            <g class="cls-45">
              <path class="cls-31" d="M1499,184.2c-5.3,8.22-23.55,5.89-40.76-5.2s-26.88-26.75-21.58-35,23.55-5.89,40.76,5.2S1504.31,176,1499,184.2Z"/>
            </g>
          </g>
          <g class="cls-28">
            <path class="cls-2" d="M2479.51,658.3a147.57,147.57,0,0,0,8.92-47l36.31-14.81-5.47-26.25L2513.8,544l-39.2.9a147.2,147.2,0,0,0-26.94-39.54l15.2-36.15-22.42-14.7L2418,439.79l-27.09,28.37a147.46,147.46,0,0,0-47-8.92l-14.82-36.31-26.25,5.47-26.25,5.46.91,39.21A147.4,147.4,0,0,0,2238,500l-36.15-15.2-14.7,22.43-14.7,22.43,28.37,27.08a147.29,147.29,0,0,0-8.92,47l-36.31,14.81,5.46,26.25,5.47,26.25,39.2-.9a147.82,147.82,0,0,0,26.94,39.54l-15.2,36.15,22.43,14.7,22.43,14.7,27.08-28.37a147.56,147.56,0,0,0,47,8.92l14.82,36.31,26.25-5.47,26.25-5.46-.9-39.21A147.5,147.5,0,0,0,2442.32,715l36.16,15.19,14.7-22.42,14.69-22.43Zm-148.88,49.36A100.59,100.59,0,1,1,2440.29,617,100.6,100.6,0,0,1,2330.63,707.66Z"/>
          </g>
        </g>
      </g>
    </g>
  </g>
</svg>
