<svg xmlns="http://www.w3.org/2000/svg" viewBox="0 0 2726.68 1439.83">
  <defs>
    <style>
      .cls-1 {
        fill: #fbeedd;
      }

      .cls-2 {
        fill: #98baf4;
      }

      .cls-3 {
        fill: #ed975d;
      }

      .cls-4 {
        fill: #ffa412;
      }

      .cls-5, .cls-6 {
        fill: #ffb93e;
      }

      .cls-6 {
        opacity: 0.5;
      }

      .cls-7 {
        fill: #ffb27d;
      }

      .cls-8 {
        fill: #233862;
      }

      .cls-9 {
        fill: #202f54;
      }

      .cls-10 {
        fill: #2b478b;
      }

      .cls-11 {
        fill: #b0d0ff;
      }

      .cls-12 {
        fill: #739af0;
      }

      .cls-13 {
        fill: #afcdfb;
      }

      .cls-14 {
        fill: #ed985f;
      }

      .cls-15 {
        fill: #2c3a64;
      }

      .cls-16 {
        fill: #f99746;
      }

      .cls-17 {
        fill: #ed7d2b;
      }

      .cls-18 {
        fill: #8cb8ed;
      }

      .cls-19 {
        fill: #ffd6a1;
      }

      .cls-20 {
        fill: #6385db;
      }

      .cls-21 {
        fill: #4c79c9;
      }

      .cls-22 {
        fill: #88b3ff;
      }

      .cls-23 {
        fill: #182d4f;
      }

      .cls-24 {
        fill: #1a2f51;
      }

      .cls-25 {
        fill: #cfe5ff;
      }

      .cls-26 {
        fill: #e2915a;
      }

      .cls-27 {
        fill: #afd1f2;
      }

      .cls-28 {
        fill: #e86234;
      }

      .cls-29 {
        fill: #f77d48;
      }

      .cls-30 {
        fill: #ffe6c2;
      }

      .cls-31 {
        fill: #ea9678;
      }

      .cls-32 {
        fill: #bdd8f4;
      }

      .cls-33 {
        fill: #c65447;
      }

      .cls-34 {
        fill: #8fc482;
      }

      .cls-35 {
        fill: #a8d29f;
      }

      .cls-36 {
        fill: #f2b499;
      }

      .cls-37 {
        fill: #163560;
      }

      .cls-38 {
        fill: #fca56b;
      }
    </style>
  </defs>
  <g id="Ebene_2" data-name="Ebene 2">
    <g id="eatable_onboarding" data-name="eatable onboarding">
      <g id="kochen">
        <path class="cls-1" d="M2568.1,1436.21c-155.85,0-2426.12.47-2427.44-3l-.21-.44a2,2,0,0,1-.23-.64c-.87-1.71-349.8-483.69,192.66-819.22,37.36-23.12,61.16-44.84,75.92-65.76,69.14-97.88-59.5-177.92,79.57-298.34,194-168,405.65,17.85,621.35-58.31,38.1-13.45,76.34-35.08,114.63-68.3a419.48,419.48,0,0,1,70.44-49.1q5.82-3.24,11.75-6.34a503.22,503.22,0,0,1,47-21.42q16.28-6.45,33.19-11.93h0q26.84-8.7,55-15a730.21,730.21,0,0,1,82-13.51q18.32-2,36.9-3.16c112.89-7.12,232.42,7.86,342,38.67,124.33,35,235.81,90.26,310.21,156.73,28.19,25.18,156.32,155.47,55.32,334.54-63.77,113.08,203.39,221.07,298.32,350.18C2807.91,1210.13,2570.3,1431.94,2568.1,1436.21Z"/>
        <g>
          <path class="cls-2" d="M2213.4,1008.56c-1.42-7.15,2.17-8.83,2.17-8.83s71.65-22.63,77.64-25.39,52.24-65,52.24-65,17.5-25.66,34.88-22.7c15.11,2.57,22.24,13.19,25.55,23.75a32.08,32.08,0,0,1-10.62,34.56c-23.08,18.54-69.34,55.17-80.7,60.14-25.29,11-96.77,12.95-96.77,12.95A23,23,0,0,1,2213.4,1008.56Z"/>
          <path class="cls-3" d="M2211.18,999.05c-3.59-1.91-11.72-6.08-12-4.89-.17.86.4,2.21,1.49,3.54-4.74-1.11-9.48-1.63-20.07,1.84a8.21,8.21,0,0,0-4.9,4.19c-.89,1.87-1,4.08,2,5.45,6,2.74,4.12.88,12.46,4.92s17.94,4.11,23.12-.13l7.41-2.22-.65-12.56S2215.65,999.23,2211.18,999.05Z"/>
          <g>
            <path class="cls-4" d="M2026.93,1428l-284.77-113.2a59.85,59.85,0,0,1-33.51-77.73l182.78-459.84a59.87,59.87,0,0,1,77.74-33.52L2022.62,765c-1,14.75,6.17,29.77,20,35.27,14.59,5.8,34.88,5.07,43.1-10.17l165.13,65.64a30.09,30.09,0,0,0,2.69,16.4c5.16,10.74,19.22,15,30.76,11.69a59.73,59.73,0,0,1,3.12,50.86L2104.66,1394.5A59.85,59.85,0,0,1,2026.93,1428Z"/>
            <path class="cls-5" d="M2128.64,1204.29l-306.84-122a48,48,0,0,1-26.87-62.31l118.61-298.4L2022.62,765c-1,14.75,6.17,29.77,20,35.27,14.59,5.8,34.88,5.07,43.1-10.17l33.68,13.38a43.94,43.94,0,0,0-1.33,16.89c1.92,17.86,13.61,35.94,31.54,43.07,21.12,8.39,44.85-5.71,54.78-26.17l46.46,18.47a30.09,30.09,0,0,0,2.69,16.4c5.16,10.74,19.22,15,30.76,11.69a25.34,25.34,0,0,0,4.15-1.58,24.14,24.14,0,0,0,9.31-7.87l11.77,4.68L2191,1177.42A48,48,0,0,1,2128.64,1204.29Z"/>
            <g>
              <path class="cls-4" d="M2086.2,993c-17.94-7.13-29.62-25.21-31.54-43.07a42.72,42.72,0,0,1,2.51-20.38,43.2,43.2,0,0,1,20.66-22.64l.06,0a43.23,43.23,0,0,1,35.59-1.62c22.27,8.85,37.83,35.93,29,58.19S2108.45,1001.8,2086.2,993Z"/>
              <path class="cls-6" d="M2081.33,983.08c-14.16-5.63-23.82-19.13-26.67-33.19a42.72,42.72,0,0,1,2.51-20.38,43.2,43.2,0,0,1,20.66-22.64l.06,0a37.42,37.42,0,0,1,27.07.25c19.27,7.66,32.76,31.12,25.1,50.39S2100.6,990.74,2081.33,983.08Z"/>
            </g>
            <g>
              <path class="cls-4" d="M2205.17,903c9.73-4.68,21.59-2.65,29.67,3.33a23.61,23.61,0,0,1,8.92,25.82v0a24.14,24.14,0,0,1-12.82,15.25c-12.07,5.81-29.1,2-34.91-10.11S2193.11,908.81,2205.17,903Z"/>
              <path class="cls-6" d="M2211.08,904.74c7.68-3.69,16.89-2.55,23.76,1.6a23.61,23.61,0,0,1,8.92,25.82v0a20.94,20.94,0,0,1-10.36,11c-10.45,5-25.2,1.69-30.23-8.76S2200.63,909.77,2211.08,904.74Z"/>
            </g>
            <g>
              <path class="cls-4" d="M2114,1096.57c-6.11-11.83-4-26.52,3.07-36.69a29.09,29.09,0,0,1,31.52-11.9h0a29.83,29.83,0,0,1,19.25,15.27c7.58,14.68,3.43,35.81-11.25,43.4S2121.59,1111.24,2114,1096.57Z"/>
              <path class="cls-6" d="M2116,1089.23c-4.82-9.34-3.74-20.74,1.14-29.35a29.09,29.09,0,0,1,31.52-11.9h0a25.81,25.81,0,0,1,14,12.39c6.56,12.7,3,31-9.74,37.58S2122.51,1101.93,2116,1089.23Z"/>
            </g>
            <g>
              <path class="cls-4" d="M1962.71,1050.61c-12.54-11.42-16.55-29.9-12.6-45.19a37.12,37.12,0,0,1,32.38-28.19h.06a38,38,0,0,1,29.76,9.69c15.57,14.17,20,41.26,5.81,56.82S1978.27,1064.77,1962.71,1050.61Z"/>
              <path class="cls-6" d="M1961.77,1041c-9.9-9-13.66-23.11-11.66-35.56a37.12,37.12,0,0,1,32.38-28.19h.06a32.85,32.85,0,0,1,22.18,8.59c13.47,12.27,17.29,35.73,5,49.21S1975.24,1053.24,1961.77,1041Z"/>
            </g>
            <g>
              <path class="cls-4" d="M1903.66,962.5c-10.16-1.72-18.28-9.85-21.28-19a22.83,22.83,0,0,1-1-10.92,23.06,23.06,0,0,1,8.26-14.12l0,0a23.07,23.07,0,0,1,18.41-4.82c12.61,2.14,23.76,14.54,21.62,27.15S1916.27,964.64,1903.66,962.5Z"/>
              <path class="cls-6" d="M1900,957.89c-8-1.36-14.57-7.33-17.63-14.36a22.83,22.83,0,0,1-1-10.92,23.06,23.06,0,0,1,8.26-14.12l0,0a20,20,0,0,1,14.17-2.89c10.91,1.85,20.57,12.59,18.72,23.51S1910.93,959.74,1900,957.89Z"/>
            </g>
            <g>
              <path class="cls-4" d="M2071.93,1148.61c-8.3,3.46-18.08,1.23-24.53-4.11a19.94,19.94,0,0,1-5.79-7.61,20.14,20.14,0,0,1-.47-14.28v0a20.14,20.14,0,0,1,11.36-12.11c10.3-4.29,24.3-.32,28.59,10S2082.23,1144.33,2071.93,1148.61Z"/>
              <path class="cls-6" d="M2067.09,1146.9c-6.55,2.73-14.17,1.37-19.69-2.4a19.94,19.94,0,0,1-5.79-7.61,20.14,20.14,0,0,1-.47-14.28v0a17.48,17.48,0,0,1,9.12-8.72c8.92-3.71,21.05-.26,24.76,8.66S2076,1143.19,2067.09,1146.9Z"/>
            </g>
            <g>
              <path class="cls-4" d="M1917.88,809.91c4.9-16.24,19.85-27.83,35.34-30.85a37.11,37.11,0,0,1,39.4,17.05l0,.06a38,38,0,0,1,4.08,31c-6.08,20.15-28.61,35.81-48.76,29.73S1911.81,830.05,1917.88,809.91Z"/>
              <path class="cls-6" d="M1926.16,804.9c3.87-12.82,15-22.29,27.06-25.84a37.11,37.11,0,0,1,39.4,17.05l0,.06a32.9,32.9,0,0,1,1.8,23.72c-5.26,17.44-24.78,31-42.22,25.75S1920.9,822.34,1926.16,804.9Z"/>
            </g>
          </g>
          <path class="cls-7" d="M2400.34,876.28s-18,21.33-40.86,12.41c0,0-4.93-11.91-5-20.69,0-1.08,0-2.13,0-3.12-.13-9.89-.46-15.43-.46-15.43h0c1-.43,35-14.37,35-13.21C2388.39,863,2400.34,876.28,2400.34,876.28Z"/>
          <path class="cls-3" d="M2385.56,842.6c-3.27,6.07-14.5,17.94-31.11,22.28-.13-9.89-.46-15.43-.46-15.43h0C2355,849.19,2386.54,840.82,2385.56,842.6Z"/>
          <path class="cls-7" d="M2346.88,848.42s38.18,9,43.4-14.89,13.67-38.76-10.49-45.5-30.89,1.32-34.57,8.86S2337.09,845.47,2346.88,848.42Z"/>
          <path class="cls-8" d="M2389,840c.52.33,3.58,5.77,19.14-25.22,2.44-4.86,9.26-18.31,3.57-27.6s-23.5-14.63-40.27-17.81-12.34,13.71-25.29,13a2.77,2.77,0,0,0-3.1,1.76c-2.8,6.5,1.88,15.19,8.94,15.69,6.14.43,10.37-1.34,14.12-.16,6,1.9,8.17,11.41,8.62,14.46s1.15,5.58,8.74,2.85,3.43,10.76,2.21,13.33C2385.65,830.38,2384.62,837.25,2389,840Z"/>
          <g>
            <path class="cls-9" d="M2430.17,1435.48h23.61c4.95,0,10.45-5,11.83-14s11.54-14,13.75-21.45-9.08-17.89-9.08-17.89l-1.89-2.42-2-2.53-18.7,4.4s-.46,4.46-.75,10.13c-.2,4.09-.31,8.83-.08,13,.55,9.9-2.77,20.57-11.57,22.49S2430.17,1435.48,2430.17,1435.48Z"/>
            <path class="cls-9" d="M2326.39,1435.48h61.28a5.63,5.63,0,0,0,1.3-.38c4.09-2,2.81-17.71,2.32-22.55-.1-.9-.17-1.42-.17-1.42s-21.54-17.23-24.51-4c-.09.41-.2.82-.31,1.21h0c-3.74,12.35-20.46,18-30.12,19.52C2328.8,1429,2326.89,1433.33,2326.39,1435.48Z"/>
            <path class="cls-10" d="M2338.74,1081.7s3.28,40.83,7.12,89.9c5.23,66.67,11.51,148.55,12.14,164.06,1.07,26.94,5.39,70,5.39,70s10.22,10.24,30.7,5.92c0,0,18.24-61.51,23.45-126.59l.24-3.21c4.85-66.26,12.39-205.77,12.39-205.77Z"/>
            <path class="cls-8" d="M2338.74,1081.7s3.28,40.83,7.12,89.9L2417.54,1285l.24-3.21c4.85-66.26,12.39-205.77,12.39-205.77Z"/>
            <path class="cls-10" d="M2359.13,1073s33.12,136.58,58.41,212,26.36,112,26.36,112,28.66-5.6,31.76-11.18c0,0,9.82-129.22-9.67-166.16-11-20.87-9.15-69.22-9.15-91.25,0-40.81-12.74-81.35-12.74-81.35Z"/>
          </g>
          <path class="cls-11" d="M2472.51,1136.92c.39,2.51-122.42,25.76-138.9,8.09-.32-.35-2.05-51.34-3.45-91.07-.64-18.47-1.21-34.51-1.54-41.89-.08-1.85-.14-3.15-.19-3.81l-.18-2.56c-1-14.44-1.73-28.65-2-41.29a278.31,278.31,0,0,1,.67-28.48c.13-1.59.29-3.07.48-4.47,2.51-19,11.7-32.33,20.33-42.36l7.12-7.88a37.78,37.78,0,0,0,24.32-5.77c8.56-5.48,16.86-3.87,18.59-2.9,13.26,7.75,24.85,20,32,45.94C2433.71,932.41,2472.11,1134.17,2472.51,1136.92Z"/>
          <path class="cls-12" d="M2366.79,761.87s-4-19.59,9.85-32,32.42-9.79,42.84,1.66c3.22,3.54,21.57,0,32,11.08s8.61,28.74,5,36.81c-3.29,7.41,7.71,23.27-7.16,35.2-17.42,14-44,2.1-44,2.1S2387.07,762,2366.79,761.87Z"/>
          <path class="cls-13" d="M2344.26,782.76s57.24,5,54.15,49.44l23.17-33s-1.69-42.34-55.3-42.93Z"/>
          <path class="cls-2" d="M2404.2,952.21s-18.36,85-74,101.73c-.64-18.47-1.21-34.51-1.54-41.89Z"/>
          <path class="cls-3" d="M2232.31,1040.18c-3.87-1.26-12.6-4-12.63-2.74,0,.87.77,2.1,2.07,3.23-4.86-.28-9.61,0-19.45,5.29a8.21,8.21,0,0,0-4.09,5c-.55,2-.3,4.19,2.88,5,6.37,1.66,4.2.15,13.12,2.68s18.38.94,22.75-4.13l6.9-3.48-2.81-12.25S2236.74,1039.57,2232.31,1040.18Z"/>
          <path class="cls-11" d="M2236.15,1046.43c-2.64-6.8.6-9.07.6-9.07s66.64-34.73,72.05-38.48,40.17-73.1,40.17-73.1,12.78-28.3,30.41-28.4c15.32-.09,24.19,9.13,29.28,19a32.1,32.1,0,0,1-4.46,35.88c-19.51,22.26-58.71,66.37-69,73.23-23,15.27-93.05,29.55-93.05,29.55A22.83,22.83,0,0,1,2236.15,1046.43Z"/>
          <path class="cls-2" d="M2391.85,859.16s8.57,8.27,6,13.37c0,0-19.91,15.43-47.75,13.74a19.54,19.54,0,0,1,7.31-6.78C2361.89,877.34,2386.74,866.62,2391.85,859.16Z"/>
        </g>
        <rect class="cls-13" x="1532.69" y="898.3" width="9.52" height="309.4"/>
        <rect class="cls-13" x="1734.41" y="898.3" width="9.52" height="397.75"/>
        <g>
          <path class="cls-14" d="M1407,425c3.13,5.64,16.21-2.34,18.52-3.59,3.14-1.21,8.27-.35,8.27-.35s2.52-13.34-.76-13.14c-4.3.27-19-6.06-22.58-4.36S1403.49,419,1407,425Z"/>
          <path class="cls-15" d="M1576.91,214.65c.46-1.61,65.61,17.88,66.17,20.52,5.24,24.46.11,29.92-8.31,25.34-5.4-2.94-20.58,19.67-20.58,19.67l-44.87-59.28Z"/>
          <path class="cls-14" d="M1429.59,408.12l-2.17,11.15s.7.25,2,.6c3.95,1.1,13.5,3.89,24.5,6.49,12,3,25.82,5.82,36,6.4a37.32,37.32,0,0,0,9.58-.42c13.94-3,40.35-17.75,60.21-34.87a16.07,16.07,0,0,0,1.43-1.26c10.42-9.12,18.88-18.84,22.41-27.74a47.82,47.82,0,0,0,3.6-14.88,38.73,38.73,0,0,0-1.9-15.25,7.09,7.09,0,0,0-.69-1.93,32.3,32.3,0,0,0-5.82-10c-1.79-1.62-4.44-1.38-7.69.33l0,.08a42.51,42.51,0,0,0-9.21,6.81c-.12,0-.24.1-.27.19-.72.63-1.46,1.35-2.33,2.14a1.91,1.91,0,0,0-.56.48c-1.68,1.68-3.39,3.43-5.13,5.29-19.07,19.65-43.11,51.14-56.41,58.37-2.45,1.32-7.86,2.49-14.61,3.51-9,1.35-20.49,2.44-30.42,3.21C1439.59,407.71,1429.59,408.12,1429.59,408.12Z"/>
          <path class="cls-11" d="M1482.46,403.58c-.58,6.32-.3,18.18,7.42,29.18a37.32,37.32,0,0,0,9.58-.42c13.94-3,40.35-17.75,60.21-34.87a16.07,16.07,0,0,0,1.43-1.26c10.42-9.12,18.88-18.84,22.41-27.74a47.82,47.82,0,0,0,3.6-14.88,38.73,38.73,0,0,0-1.9-15.25,7.09,7.09,0,0,0-.69-1.93c-2.45-6.47,7.34-16.36,7.34-16.36-1.78-1.62-17.6,4.95-20.85,6.66l0,.08a42.51,42.51,0,0,0-9.21,6.81c-.12,0-.24.1-.27.19-.72.63-1.46,1.35-2.33,2.14a1.91,1.91,0,0,0-.56.48c-1.68,1.68-3.39,3.43-5.13,5.29-19.07,19.65-43.11,51.14-56.41,58.37C1494.62,401.39,1489.21,402.56,1482.46,403.58Z"/>
          <path class="cls-16" d="M1580.32,862.76l12.27,4.57s53.31-73.94,59.87-139c1.18-11.61.79-22.86-1.75-33.26,0,0,.52-3,1.43-8.23.42-2.46.95-5.41,1.54-8.8,1.73-9.93,4.11-23.52,6.84-39,6.27-35.6,14.4-81.11,20.71-114.57l-3.3-1.06-35.79-11.54-7.39-23.49-26.65-7S1602.15,493,1596.83,548c-1,7.21-1.87,15.17-2.54,23.8a470.43,470.43,0,0,0,2.53,96.34q1.83,14.34,4.68,29.57c1.4,7.44,1.61,17.57,1,29.2C1599.84,780.12,1580.32,862.76,1580.32,862.76Z"/>
          <path class="cls-17" d="M1594.29,571.83l57.85,115c.42-2.46.95-5.41,1.54-8.8,1.73-9.93,4.11-23.52,6.84-39,6.27-35.6,14.4-81.11,20.71-114.57l-3.3-1.06-35.79-11.54-7.39-23.49-26.65-7S1602.15,493,1596.83,548C1595.85,555.24,1595,563.2,1594.29,571.83Z"/>
          <path class="cls-16" d="M1619.74,496.14l1.34-11.48c22.44,6,82.39-16.65,82.39-16.65s21.74,19.1,18.89,64.91c-1.4,22.35-3.94,117.35-6.6,145.46-1,10.19-1.8,17.44-2.15,20.34v0a4,4,0,0,0,.65,2.49,132.24,132.24,0,0,1,9.81,20.63c26.08,69.51-4,155.11-4,155.11l-7.81-3.15s-17.13-95.26-31-137.35c-2.36-7.14-4.63-12.75-6.7-16.1-6-9.77-11.67-25.73-16.77-44.71-9.63-35.89-17.39-82.57-22.55-118.61C1634.46,557.09,1619.74,496.14,1619.74,496.14Z"/>
          <path class="cls-7" d="M1576.87,356.83a70,70,0,0,0,25.84,6.06c38.58,2.11,47.34-31.71,48.93-54.15a32.26,32.26,0,0,0-13.23-1.68c-2.74.15-5.6.43-8,.72-4.72-2.46-13.2-14.44-18.1-34.47l-1.66.78-27.84,13.08s3,9.06,5.14,17.73c1.71,6.78,2.93,13.34,1.91,15.17-2.2.89-3.51,1.45-3.51,1.45v0A191.27,191.27,0,0,0,1576.87,356.83Z"/>
          <path class="cls-11" d="M1567.22,382.14c.29.78.61,1.53,1,2.3,9.77,21,14.68,215.32,14.68,215.32-2.57,15.67,123.37,17.5,151.85-7.67,0,0-11.6-153-56.08-268.56l-12.78,10.9c-2.13-1.58-4.83-2.24-4.63-4.21.09-.93.21-1.86.35-2.8a79.9,79.9,0,0,1,5.59-18.66c-10.35-4.19-36.7-1-36.7-1L1610.7,322.7l-20.79-2.63c-16.52,6.48-25.63,14.68-25.63,14.68C1574.23,341.21,1559.53,361.73,1567.22,382.14Z"/>
          <path class="cls-14" d="M1582.86,287.18s3,9.05,5.14,17.72c16.27-4.54,21.21-21.64,22.7-30.81Z"/>
          <path class="cls-7" d="M1576.45,289.5s40,.59,39.94-24.29,5.14-41.57-20.37-43-30.46,8.06-32.48,16.37S1566.06,288.7,1576.45,289.5Z"/>
          <path class="cls-15" d="M1564.71,224.74c6.16-7.5,10.83-5.86,13.45-3.61,21.82-12,35.92,5.68,35.92,5.68a47.55,47.55,0,0,0,15.59,28.07s-7.28,4.5-24.07.21c-5.13-1.31-9.71-4.94-13.61-9.36a93.14,93.14,0,0,0,16.07,19.57c-20.07-9.24-28.16-37.12-29-40.06-2.43,2.19-7.23,7-8.69,11.62-2,6.34-2.86,19.39-6.66,18.95C1563.74,255.81,1555.47,236,1564.71,224.74Z"/>
          <path class="cls-10" d="M1674.64,883.36h61.81s1.48-9.42-1.75-16.56c-3.09-6.86-7.94-10-6.78-18.28-3.92,4.05-10.32,8.57-19.26,7.37-1.1,1.78-7.07,11.28-10.73,13.91C1693.89,872.7,1675.88,871.66,1674.64,883.36Z"/>
          <path class="cls-10" d="M1541.91,883.36h61.81s2.32-9.85-1.74-16.56c-3.6-5.94-2.22-9.32.44-14.23a24.07,24.07,0,0,1-10.41,2,21.76,21.76,0,0,1-9.19-3.24c-2.66,3-14,16-17.61,18.51C1561.17,872.7,1543.15,871.66,1541.91,883.36Z"/>
          <g>
            <path class="cls-8" d="M1632.2,374.7a3.23,3.23,0,1,0-2.4,4.28A3.49,3.49,0,0,0,1632.2,374.7Z"/>
            <path class="cls-8" d="M1594.34,378.45a3.23,3.23,0,1,0-2.41,4.28A3.51,3.51,0,0,0,1594.34,378.45Z"/>
            <path class="cls-8" d="M1636.89,419a3.23,3.23,0,1,0-2.4,4.28A3.48,3.48,0,0,0,1636.89,419Z"/>
            <path class="cls-8" d="M1599,422.75a3.23,3.23,0,1,0-2.4,4.28A3.48,3.48,0,0,0,1599,422.75Z"/>
          </g>
          <path class="cls-2" d="M1678.13,360.91s-4.45,127.75-99.07,136.46l-1.45-27.29,51.46-40.94Z"/>
          <path class="cls-7" d="M1538.77,476.23l3.25,11.89s4.08-.73,10.56-1.93c1.92-.35,3-.6,3-.6,5.28-1.08,11.53-2.4,18.25-4h.12c9.36-2.28,19.81-4.92,29.17-7.8,2.16-.6,4.32-1.32,6.37-2,1.44-.48,2.76-1,4.08-1.44l-19.69-26.06c-1.44,1.08-3,2-4.56,3-8,5.16-17.17,10.44-25.45,15.12-5.17,3-10.09,5.65-14.17,7.93C1543.1,474,1538.77,476.23,1538.77,476.23Z"/>
          <path class="cls-11" d="M1589.33,447.25c3.6,12.66,8.73,21.06,13.83,26.61,2.17-.67,4.29-1.35,6.34-2.05,7.7-2.69,14.39-5.57,19-8.45a11.28,11.28,0,0,0,1.3-.93c10.86-7.89,23.77-31.11,33.8-56,1.4-3.44,2.7-6.88,4-10.22a254.78,254.78,0,0,0,10.58-35.3,98.39,98.39,0,0,0,2.51-16.81,40,40,0,0,0,.09-4.73c-.18-26.94-13.55-30.66-13.55-30.66-.29-.09-.57-.18-.93-.27-2.33-.37-4.74,1.2-7.25,4.27-3.16,3.8-6.5,10-9.93,17.55-5.3,12-10.88,27.49-16.08,42.91-2.87,8.46-5.66,16.91-8.44,24.71-1.59,4.74-3.17,9.19-4.65,13.28-2.88,7.8-5.48,14.12-7.8,18.11-1.49,2.6-5.76,6.22-11.43,10.31C1597.33,442,1593.47,444.6,1589.33,447.25Z"/>
          <path class="cls-12" d="M1603.6,199.52s1-19.63,17.35-28.39S1654.7,169.41,1662,183c2.27,4.2,20.9,5.13,28.35,18.4s1.46,29.89-3.94,36.86c-5,6.39,1.9,24.38-15.36,32.37-20.22,9.36-43.14-8.5-43.14-8.5S1623.21,204.55,1603.6,199.52Z"/>
          <path class="cls-11" d="M1576.91,214.65s54.23,18.6,40.6,60.85l30.35-26.37s8.49-41.42-43.29-54.82Z"/>
          <path class="cls-18" d="M1634,307.41s-6-5.58-11.24-8.09c0,0-13.89,15.81-13.89,18.83s3.19,8.45,3.19,8.45S1622.77,324.62,1634,307.41Z"/>
          <path class="cls-12" d="M1589.2,310s-6.13,5.78-3.51,10.86c0,0,20.58,16,48.34,14.34a19.36,19.36,0,0,0-7.28-6.76C1622.23,326.32,1594.3,317.48,1589.2,310Z"/>
          <path class="cls-19" d="M1520.09,34.21l-147.6,294.31-1.33,2.62-2.15,4.3-8.38,16.72-18.94,37.75-36,71.87L1298,477l-7.75,15.45L1265.4,542l-22.55,45-21,41.79-8.6,17.14-11,.91,8.57-17.09,46-91.65,23.52-46.89,7.76-15.48,14.64-29.18L1333,386l21.56-43,9.86-19.66,4.36-8.69L1511.63,30Z"/>
          <path class="cls-19" d="M1532.39,47.62c-4,6-70.66,136.66-146.59,286.19q-7.66,15.15-15.48,30.51c-19.3,38-39,76.82-58.12,114.65q-3.92,7.72-7.8,15.38c-.58,1.17-1.17,2.33-1.76,3.49-12.17,24.05-24.1,47.58-35.52,70.18-10.47,20.68-20.53,40.58-30,59.34q-4.45,8.77-8.72,17.22-5.51.51-11.11,1c2.15-4.24,5.07-10,8.68-17.16,5.37-10.6,12.23-24.19,20.29-40.1,1.53-3,3.08-6.08,4.69-9.25,12.3-24.31,27-53.27,43-84.93l.56-1.12c2.57-5.09,5.18-10.22,7.8-15.43h0c8.65-17.1,17.65-34.84,26.84-53,11.34-22.38,23-45.33,34.62-68.3,1.11-2.17,2.2-4.34,3.31-6.51,3.36-6.65,6.68-13.14,9.89-19.51,145.15-285.89,147.18-287.83,148.41-289l6.48,6.88A5,5,0,0,0,1532.39,47.62Z"/>
          <path class="cls-19" d="M1388.23,207.34l-4.48,5.74L1186.06,465.74l-12.12,15.49L1051.28,638l-13,16.57q-6.06.1-12.14.19l12.91-16.52,123.45-157.77,12.15-15.54,206.11-263.42,5.73,4.47Z"/>
          <path class="cls-19" d="M1340.87,234.9,1119.69,461.81l-15.27,15.66L947.54,638.42l-15.67,16.07c-4.32-.08-8.63-.18-12.93-.27l15.58-16L1091.7,477,1107,461.24,1334.1,228.29Z"/>
          <path class="cls-19" d="M1592.91,399.43l-4.49,5.75L1390.73,657.84l-12.12,15.49L1256,830.1l-13,16.57q-6.06.11-12.14.19l12.91-16.52L1367.2,672.57,1379.35,657l206.11-263.42,5.73,4.47Z"/>
          <path class="cls-19" d="M1525.82,466.33,1309,697.44l-15,16L1140.3,877.32l-15.36,16.37-12.94,0,15.28-16.3,154.06-164.23,15-16,222.56-237.27Z"/>
          <rect class="cls-19" x="1075.89" y="337.91" width="524.63" height="9.46" transform="translate(532.09 1464.41) rotate(-68.66)"/>
          <path class="cls-19" d="M1279.39,646.84l-17.31,14.47c93.39-195.95,288.71-607.13,292.56-619.1l9.12,2.53C1560.67,56.32,1307.26,588.37,1279.39,646.84Z"/>
          <polygon class="cls-19" points="1305.04 678.35 1281.81 707.1 1573.11 56.06 1581.74 59.92 1305.04 678.35"/>
          <path class="cls-19" d="M1253.23,634l-8.89-3.24c67.87-186.61,196.87-543,199.31-556.16l9.3,1.7C1449.83,93.33,1261.25,611.91,1253.23,634Z"/>
          <polygon class="cls-19" points="1253.52 666.2 1240.09 672.49 1513.58 92.91 1522.14 96.95 1253.52 666.2"/>
          <path class="cls-7" d="M1537.32,474.63a63.13,63.13,0,0,0-13.82-4.09c-5.06-.91-11.62-1.73-11.16,0s11.08,5,11.39,5.7S1537.32,474.63,1537.32,474.63Z"/>
          <path class="cls-7" d="M1501.24,486.58c2.06,1.58,18.53,8,24.8,6,3.51-1.1,15.69-4.11,20.62-5.32l9-1.74-5.29-15.42a4,4,0,0,0-.65.19c-2,.7-5.89,2.61-11,3.37-6.25.93-14-3-18.11-.77-8.59,4.71-20.45-.07-23.18,2.44C1495.37,477.26,1496.11,482.65,1501.24,486.58Z"/>
          <path class="cls-7" d="M1405.24,409.81c1.28-3,4-8.08,10.61-7.36,7.91.85,22.21,9.06-5.61,24.11C1402,431,1402.59,416.06,1405.24,409.81Z"/>
        </g>
        <g>
          <path class="cls-20" d="M547.78,864.47H408.52a27.5,27.5,0,0,1-27.42-27.41h0a27.5,27.5,0,0,1,27.42-27.42H547.78a27.5,27.5,0,0,1,27.41,27.42h0A27.5,27.5,0,0,1,547.78,864.47Z"/>
          <path class="cls-12" d="M1521.35,864.47H1382.09a27.49,27.49,0,0,1-27.41-27.41h0a27.49,27.49,0,0,1,27.41-27.42h139.26a27.5,27.5,0,0,1,27.42,27.42h0A27.5,27.5,0,0,1,1521.35,864.47Z"/>
          <path class="cls-20" d="M1429.42,635.11v682.3a115.18,115.18,0,0,1-115.18,115.19H633.7a115.19,115.19,0,0,1-115.19-115.19V635.11Z"/>
          <path class="cls-12" d="M1429.42,635.62v682.3c0,63.62-51.36,115.19-114.72,115.19H792.44c-63.36,0-114.74-51.57-114.74-115.19V635.62Z"/>
          <path class="cls-21" d="M1433.1,664.19H514.83a16.75,16.75,0,0,1-16.7-16.7h0a16.75,16.75,0,0,1,16.7-16.69H1433.1a16.75,16.75,0,0,1,16.7,16.69h0A16.75,16.75,0,0,1,1433.1,664.19Z"/>
          <path class="cls-22" d="M1382,943V763.09s5.53-59.93-37.88-64.66-59.19,20.5-51.3,64.66-6.31,288.59,14.19,307.51,61.51,18.93,69.39,0S1382,943,1382,943Z"/>
        </g>
        <path class="cls-19" d="M1208.81,979.81c0-1.23-2.3-124.58-5.65-216.68-3.66-100.21-25.71-160.84-60.52-166.35-15-2.36-28.25,3-39.36,15.8-8.81,10.2-11.16,18.11-11.2,18.22h-15.55c6.65-18.61,30.24-53.43,68.23-47.44,57.27,9.06,69.68,116.21,72,179.28,3.37,92.22,5.65,215.69,5.67,216.92Z"/>
        <g>
          <path class="cls-23" d="M1037.28,1422.66c.1,5,.74,9.82,2.57,11.71h73.37c-.93-2.66-3.57-6.65-11.11-7.87-8.55-1.39-20.5-11.06-28.29-19.3-2.78-2.92-6.24-.82-7.15-4.86-3.45-15.37-28.54,4.71-28.54,4.71A125,125,0,0,0,1037.28,1422.66Z"/>
          <path class="cls-24" d="M925.25,1422.66c.1,5,.73,9.82,2.56,11.71h73.38c-.93-2.66-3.57-6.65-11.11-7.87-8.56-1.39-21.9-5.51-29.69-13.75a22,22,0,0,1-5.75-10.41c-3.45-15.37-28.54,4.71-28.54,4.71A125,125,0,0,0,925.25,1422.66Z"/>
          <path class="cls-8" d="M1066.63,1413.59c-8.2,2.61-19,2.32-29-1.44-6.44-2.42-45-96.58-47.32-142.08a115.62,115.62,0,0,0-1.84-13.55c-2.13-11.74-5.86-27.88-10.15-45.69-11.51-47.71-27.07-107.4-26.74-126.48.53-29.61,88.25-6.2,88.25-6.2s6,24.28,7.23,59.45c2.39,69.81,8.94,187.72,26.75,269.6C1074.57,1410.67,1070,1412.51,1066.63,1413.59Z"/>
          <path class="cls-10" d="M1024,1097.34,965,1415.46s-25.34,7.48-42.94,0c0,0-10.24-172.68-9.11-215.89s-9.74-115.64,2.48-123.62S1024,1097.34,1024,1097.34Z"/>
          <path class="cls-25" d="M991.86,871.1s40.31,6.89,49.51,21.08c13.17,20.29,45.11,87.89,45.66,121.85.74,45.72-49,61.09-55.13,43-5.06-15-17.44-108.81-26.43-137.93Z"/>
          <path class="cls-25" d="M1059.15,1191.83s-18.66,15.12-56.29,18.53c-4.24,1.1-76.48,1.1-107.07-9.42-.64-.21,1.6-65,4.19-131.75,0-.1,0-.2,0-.31.26-6.78.53-13.61.79-20.37.12-2.91.22-5.82.34-8.71.79-19.92,1.58-39.2,2.3-56.11,1.4-33.2,2.54-57.27,2.86-59.17,1.12-6.5,2.17-12,3.31-16.84,3.33-14,7.48-21.67,16.52-28.27.87-.67,8.09-4.31,14.47-7.48,5.27-2.62,10-4.92,10-4.92h0s69.54,2,76.21,19.43S1059.15,1191.83,1059.15,1191.83Z"/>
          <g>
            <g>
              <path class="cls-7" d="M985.81,875.66c-3.64.71-8.33,4.08-12.77,3.75-8.69-.63-17.74-6.47-25.41-11.53,5.23-12.49,7.38-22.35,8.14-28.73,0-.34.08-.67.11-1a29,29,0,0,0,.13-6.58h27.85s7.61,3.48,7.61,5.89q0,1.92,0,3.69c.06,3.2.19,6,.36,8.4a75.34,75.34,0,0,0,1.42,11.49S996.68,873.53,985.81,875.66Z"/>
              <path class="cls-26" d="M991.86,849.56c-21.1,4.07-33.35-7.45-36.09-10.41-.39-.42-.59-.68-.59-.68.22-.11.45-.21.7-.31,7.85-3.18,25.67-.65,35.62,3C991.56,844.36,991.69,847.16,991.86,849.56Z"/>
              <path class="cls-7" d="M948.88,827c3.77,20.29,30,19.63,41.26,18.35,3.18-.35,5.19-.76,5.19-.76,3.59-1,5.59-6.61,6.52-14,1.85-14.66-.49-36.17-3-41.68-3.73-8.28-10.75-17.23-37.11-10.77S944,801,948.88,827Z"/>
              <path class="cls-8" d="M999.87,777.58c-3.6-5-11.24-11.09-18.18-14.84-14.91-8.07-34,.25-34.07.29-21.53,9.46-8.43,56.64-1.86,54.45,5.14-1.71,1.75-4.2,4-6.21,2.7-2.43,6.5.52,7.71,2.78a3.32,3.32,0,0,0,4.73,1.05c6.7-4.24,2.34-12.71,8.75-17.9s19.4-.83,29-5C1012.52,787.55,1002.58,781.33,999.87,777.58Z"/>
            </g>
            <path class="cls-25" d="M983.86,831.58a11.08,11.08,0,0,0,9,2.17c3.3-.58,5.15-4.87,5.15-4.87S991.68,827.74,983.86,831.58Z"/>
          </g>
          <path class="cls-8" d="M955.18,922.57a3.62,3.62,0,1,1,3.61,3.61A3.62,3.62,0,0,1,955.18,922.57Z"/>
          <path class="cls-8" d="M998,919a3.62,3.62,0,1,1,3.61,3.62A3.61,3.61,0,0,1,998,919Z"/>
          <path class="cls-8" d="M959.78,965.57a3.62,3.62,0,1,1,3.61,3.62A3.61,3.61,0,0,1,959.78,965.57Z"/>
          <path class="cls-8" d="M1002.63,962a3.62,3.62,0,1,1,3.61,3.61A3.62,3.62,0,0,1,1002.63,962Z"/>
          <path class="cls-8" d="M962.41,1007.59a3.62,3.62,0,1,1,3.61,3.61A3.62,3.62,0,0,1,962.41,1007.59Z"/>
          <path class="cls-8" d="M1005.26,1004a3.62,3.62,0,1,1,3.61,3.62A3.61,3.61,0,0,1,1005.26,1004Z"/>
          <path class="cls-27" d="M973.37,1066.3S957,1078.15,900,1068.88c.26-6.78.53-13.61.79-20.37.12-2.91.22-5.82.34-8.71.79-19.92,1.58-39.2,2.3-56.11,9.05-14.7,16.63-25.35,16.63-25.35s-.73,40.35,16.26,52.86C981.25,1044.32,973.37,1066.3,973.37,1066.3Z"/>
          <path class="cls-27" d="M979.63,759.22s3.66-19.2-9.7-31.25-31.36-9.46-41.44,1.61c-3.11,3.43-20.86,0-31,10.71s-8.33,27.8-4.86,35.62c3.17,7.16-7.47,22.5,6.92,34,16.85,13.51,42.58,2,42.58,2S960,759.38,979.63,759.22Z"/>
          <path class="cls-25" d="M1001.25,779.18s-55.37,4.89-52.37,47.82l-22.42-31.87s1.64-41,53.49-41.53Z"/>
          <path class="cls-27" d="M1037.26,1073.76s1-121.78,4.19-121.78,12.11,27.83,12.11,49.72C1053.56,1029.25,1042.79,1074.81,1037.26,1073.76Z"/>
          <path class="cls-28" d="M1945.86,1433.55H1124.47a66.1,66.1,0,0,1-59-36.35l-48.32-95.87H2044.58l-44,96.93A60.12,60.12,0,0,1,1945.86,1433.55Z"/>
          <ellipse class="cls-29" cx="1530.85" cy="1290.63" rx="743.01" ry="58.26"/>
          <path class="cls-30" d="M2046.25,1288.38a5.7,5.7,0,0,1-.63.2c-16.83,4.76-37,9.24-60,13.4-5.08.91-10.32,1.81-15.68,2.69-18.41,3-38.43,5.86-59.87,8.46q-7.9,1-16.09,1.89-29.13,3.27-61.28,6h0q-11.9,1-24.18,1.92h0c-30.21,2.27-62.08,4.16-95.28,5.63l-10.75.45q-13,.52-26.27,1c-.82,0-1.65.06-2.48.09q-25.38.84-51.64,1.33-16.35.31-33,.49l-6.53.06q-17.57.16-35.43.16l-11.51,0-5.24,0c-104.34-.43-201.48-4.92-283.79-12.37l-3.53-.34h0q-18.92-1.72-36.76-3.68l-.54-.06h0l-3.06-.34q-14.28-1.59-27.78-3.3c-1.52-.19-3-.38-4.53-.59-110.74-14.35-180.14-35-180.14-57.85,0,0-1.44-9.36,7.47-19.53,27.45-31.47,107.8-94,261.62-100.71,116.4-5.1,201.51,19.69,253.06,41.84,38.59,16.62,58.39,31.75,58.39,31.75h0c.11-.08.76-.57,2-1.41,6-4.18,25.7-17,57.11-29.61,52.76-21.09,138.64-41.32,248.53-18,65.71,13.92,108.45,33.27,135.38,52.83C2063.57,1246.94,2059.19,1283.93,2046.25,1288.38Z"/>
          <path class="cls-30" d="M1783.3,1170.82s87.61-9.48,152.56,21.29,83.15,57.2,79.78,76.34-98.12,13.54-98.12,13.54-60.17-11.82-64.47-13.54S1783.3,1170.82,1783.3,1170.82Z"/>
          <path class="cls-31" d="M1730.9,1310c-1.77,9.47-10.89,15.4-17.75,18.59l-10.75.45c5.68-1.62,23.26-10.63,25.08-20.42.71-3.86-.81-8.26-4.53-13.09-18-23.37-72.4.3-73,.55l-1-5a158.9,158.9,0,0,1,30.5-9.32c22.15-4.17,37.56-.86,45.81,9.86C1730.12,1297.86,1732,1304.05,1730.9,1310Z"/>
          <path class="cls-31" d="M1944.82,1278.35c-1.16,10.24-8.91,19.84-23.06,28.52a118,118,0,0,1-11.72,6.26q-7.9,1-16.09,1.89c14.35-6,45.66-22.38,47.38-37.52.77-6.9-2.94-14.22-11-21.74-19.81-18.38-68.66-31-124.46-32.09-65.72-1.3-130.27,12.75-181.83,39.56l-1.18-4.91c52-27,117-41.19,183.06-39.85,56.41,1.12,106,14,126.3,32.89C1941.6,1260.11,1945.86,1269.19,1944.82,1278.35Z"/>
          <g>
            <path class="cls-25" d="M1086.82,1009.88s6.4,52.81-36.79,77.85l-12.77-14,20.57-52.38Z"/>
            <path class="cls-10" d="M806.68,975.39l8.79-10.95c3.36-4.19,10.31-5.23,15.4-2.31l323.05,185.14a4.19,4.19,0,0,0,5.18-.73l2-2.47c6.15-7.66,16.15-12.8,27.42-14.11a49.64,49.64,0,0,1,32.13,7.26l122,78.83a2.7,2.7,0,0,1,.89,4l-2.15,2.68a4.19,4.19,0,0,1-5.24.69l-125.94-75.38a28.38,28.38,0,0,0-18.63-4.2,26.89,26.89,0,0,0-7.1,1.78c-2.48,1-2.64,3.83-.3,5.16l144.73,82c1.68,1,2.17,2.8,1.08,4.15l-2.36,3a4.17,4.17,0,0,1-5.06.78L1173,1160.93a4.18,4.18,0,0,0-5.07.79l-2.51,3.14c-1.09,1.35-.6,3.21,1.1,4.16l147.4,82.46c1.7,1,2.19,2.81,1.1,4.17l-2.22,2.77a4.18,4.18,0,0,1-5,.8l-148.19-77.79c-2.4-1.26-5.47,0-5.63,2.24a16.21,16.21,0,0,0,.81,6.23c1.77,5.37,6.06,9.83,12.08,12.54l132.8,66.56c1.82.91,2.4,2.84,1.27,4.25l-1.34,1.68a4.16,4.16,0,0,1-4.82.91l-135.83-61.18c-10.24-4.62-17.83-12.49-20.84-21.61a27.82,27.82,0,0,1,5-26.5h0c1.11-1.38.57-3.28-1.19-4.21L810.08,988C804.86,985.25,803.33,979.57,806.68,975.39Z"/>
            <path class="cls-7" d="M942.52,1052.45s8.33-1.39,12.28.85,13.8,3.61,13.37,5.88-12.76,3.26-16,2.14S942.52,1052.45,942.52,1052.45Z"/>
            <path class="cls-7" d="M940.78,1053.58a7,7,0,0,0-.9,11c5.42,4.91,12.41,11.19,14.13,12.44,2.9,2.1,18.36,3.82,22.38-1.62,0,0-13-5.58-14.82-14.25-2-9.23-19.05-8.69-19.05-8.69Z"/>
            <path class="cls-25" d="M940.18,1070.17s-75.5-17.72-82.77-66.2c-6.41-42.74,31-106.91,40.87-117.68,11.49-12.58,32.46-17,44-18.5l1.4-.18c4.07-.49,6.68-.58,6.82-.59h0s-.91,2.92-2.43,7.87c-.59,1.91-1.27,4.14-2,6.61-7.11,23.29-29.33,79.93-36.5,111.1-4.56,19.83,38.54,59.37,39.64,59.45C949.31,1052.05,940.18,1070.17,940.18,1070.17Z"/>
            <path class="cls-27" d="M942.67,867.8s4.7-7.63,9.46-11.8c0,0,19.23,12.58,20.11,15.75s-.89,9.83-.89,9.83S959.54,882.61,942.67,867.8Z"/>
            <path class="cls-7" d="M1031.26,1075.4s1.64,19.62,6.22,21.58,13.18-4.6,14.11-8.68-10.52-16.19-15.09-16.5S1031.26,1075.4,1031.26,1075.4Z"/>
            <path class="cls-32" d="M993.1,860.48s7.18,5.69,5.48,11.69c0,0-17.92,20.78-48,25a21.24,21.24,0,0,1,6.34-8.82C961.29,885.07,989.25,869.55,993.1,860.48Z"/>
          </g>
          <path class="cls-30" d="M1622,1331.41q-16.35.31-33,.49l-6.53.06q-17.57.16-35.43.16l-11.51,0-5.24,0c-104.34-.43-201.48-4.92-283.79-12.37l-3.53-.34h0q-18.92-1.72-36.76-3.68l0,.08-.51-.14h0c-1-.28-2-.55-2.9-.83-10.73-3.12-19.15-6.42-25-9.85a34.49,34.49,0,0,1-3.81-2.52c-3.78-2.87-5.75-5.83-5.75-8.86,0,0-1-6.11,5.19-12.76,9.83-10.6,29.41-26.59,60.72-40.19,29.41-12.77,69.16-23.46,120.88-25.59,11.6-.48,22.75-.55,33.44-.3h.07c63.81,1.59,111.53,15.23,142.16,27.63,26.79,10.84,40.53,20.73,40.53,20.73S1645.69,1308.19,1622,1331.41Z"/>
          <path class="cls-31" d="M1535.52,1332.1l-5.24,0a402,402,0,0,0-48-46c-35.71-28.78-91.13-61.58-152.32-54.41-33.65,3.94-79.63,16.38-107.58,53.29a104.45,104.45,0,0,0-16.17,30.78l0,.08-.51-.14h0l-3.06-.34c.05-.16.1-.33.16-.49a108.61,108.61,0,0,1,17-32.82c15.81-21,47.72-47.59,109.9-54.87s118.29,26,154.46,55.11A407.41,407.41,0,0,1,1535.52,1332.1Z"/>
          <path class="cls-31" d="M1589,1331.9l-6.53.06a488.27,488.27,0,0,0-60.27-52.13c-45-32.71-114.87-70-192-61.86-42.42,4.48-100.37,18.62-135.61,60.59a117.66,117.66,0,0,0-16.84,26.39c-1.16,2.5-2.14,4.86-3,7-1.52-.19-3-.38-4.53-.59,1-2.72,2.18-5.73,3.67-9a124.42,124.42,0,0,1,17.36-27.2c9.27-11.12,22.94-23.61,42.8-34.61,22.82-12.65,53.82-23.34,95.72-27.77a218.41,218.41,0,0,1,58.6,1.88h.07c54.42,9,102.16,36.15,136,60.77A493.26,493.26,0,0,1,1589,1331.9Z"/>
          <path class="cls-31" d="M1422.22,1302.7c-5.81,9.92-25,15.27-43.62,17.35-3.13.34-6.23.59-9.26.76-21.2,1.16-50.06-1.37-67.44-12l1.27-4.07c14.06,8.57,39.27,13,65.81,11.53,25.63-1.41,45.44-7.89,50.48-16.5,2.9-4.94,2.72-11.58-.5-18.21-9.84-20.29-43.32-35.24-96-22.91-22.48,5.27-52.55,16.63-68.21,40.89a57.63,57.63,0,0,0-8.28,20.14l-3.53-.34a61.26,61.26,0,0,1,8.92-22.48c13-20.42,36.64-34.77,70.3-42.66,58-13.58,89.9,5,99.63,25.1C1425.8,1287.58,1426,1296.31,1422.22,1302.7Z"/>
          <path class="cls-31" d="M1895,1281.45c-2.53,19.79-40.25,33.3-62.29,39.56h0q-11.9,1-24.18,1.92c19.9-4.35,80.52-23.11,83-42.44.63-4.91-2.42-10.22-9.06-15.79-42-35.16-248.14,8.59-250.22,9l-.51-5.15c.52-.11,52.81-11.28,109.67-17.89,76.62-8.91,124.67-5.72,142.81,9.48C1892.27,1267,1895.9,1274.12,1895,1281.45Z"/>
          <path class="cls-31" d="M1678.39,1329.92l-2.26.07c-.82,0-1.65.06-2.48.09-8.91-12.73-64.34-90.65-103.8-120.88l.82-2.3h0l.8-2.3,1.16.89C1615.87,1239.32,1677.78,1329,1678.39,1329.92Z"/>
          <path class="cls-31" d="M2013.75,1263.31c-2.32,18.22-19.29,32.41-28.16,38.67-5.08.91-10.32,1.81-15.68,2.69,6.89-4,37.93-23.17,40.35-42.31.89-7-1.21-14.06-6.26-20.85-22.46-30.28-131.44-101.45-265.54-50.5-92.81,35.25-125.89,58-126.21,58.22l-1.52-4.69c.32-.24,33.61-23.15,126.84-58.57,71.9-27.32,134.34-18.29,174-5.91,46.77,14.59,81.29,39.45,94.77,57.61C2012.4,1245.76,2014.87,1254.39,2013.75,1263.31Z"/>
          <g>
            <path class="cls-33" d="M1297.28,1129.75s-23.29,12.11-.63,39.19,88.51.79,116.85,15.69,5.36,36.93,37.85,56.19,63.78-45.44,95.66-27,140.62,44.31,142.45,7.21,53.59-51.29,73.17-62.42-51.21-28.82-86.49-33.39c-24.46-3.16-142.08-66-212.8-47.65S1330.11,1111.25,1297.28,1129.75Z"/>
            <g>
              <path class="cls-34" d="M1508.55,1084.55c2-15.87-2-62.88-5.12-65.75s-31.38,25.15-35.37,39.82,1.55,34.74,12.37,44.8S1506.54,1100.65,1508.55,1084.55Z"/>
              <path class="cls-30" d="M1613.85,1186.85c-1.9-3.32-13.1-10.51-14.14-10s-1,13,.91,16.3a7.82,7.82,0,0,0,10.06,2.88A6.51,6.51,0,0,0,1613.85,1186.85Z"/>
              <path class="cls-30" d="M1379.09,1140.35c3-2.57,7.53-14.34,6.72-15.12s-14,2.67-17,5.25a6.37,6.37,0,0,0-.3,9.6A8,8,0,0,0,1379.09,1140.35Z"/>
              <path class="cls-30" d="M1487.09,1175.81c-4.09-.47-16.95,3.83-17.09,4.89s11.15,8.12,15.23,8.58,7.82-2.17,8.33-5.89S1491.18,1176.27,1487.09,1175.81Z"/>
              <path class="cls-35" d="M1460.61,1056.82c-15.68-9.11-67.42-9.09-68.46-5.57s39.22,57.16,54.89,66.27,31.88-1.41,35.5-13.75S1476.29,1065.93,1460.61,1056.82Z"/>
              <path class="cls-30" d="M1616.25,1140.2c4-1,14.06-9.42,13.75-10.46s-13.7-3.63-17.68-2.64-6.32,4.72-5.23,8.34S1612.28,1141.19,1616.25,1140.2Z"/>
              <path class="cls-30" d="M1559.2,1152.08c-3.28-2.27-16.77-4.43-17.48-3.58s5.17,12.12,8.45,14.39a8,8,0,0,0,10.45-1.29A6.39,6.39,0,0,0,1559.2,1152.08Z"/>
            </g>
          </g>
        </g>
        <g>
          <polygon class="cls-30" points="1927.86 1432.6 2065.75 1432.6 2042.95 1386.18 1905.06 1386.18 1927.86 1432.6"/>
          <path class="cls-30" d="M2044.85,1409.39c5.81,11.82,14.23,21.58,19.61,23a4.78,4.78,0,0,0,1.29.2c5.25,0,4.4-10.4-1.89-23.21s-15.66-23.21-20.91-23.21a3.06,3.06,0,0,0-1.12.2C2037.87,1387.83,2039.05,1397.59,2044.85,1409.39Z"/>
          <path class="cls-30" d="M1927.86,1432.6c-2.41,0-5.69-2.2-9.16-5.82-.68-.73-1.39-1.52-2.09-2.36a70,70,0,0,1-5.31-7.28c-.48-.77-1-1.55-1.44-2.36-1-1.73-2-3.53-2.91-5.39,0-.09-.08-.18-.13-.27-.39-.8-.75-1.58-1.09-2.35-.72-1.61-1.35-3.17-1.88-4.66-.28-.81-.54-1.59-.77-2.35a33.54,33.54,0,0,1-1.32-6,16.61,16.61,0,0,1-.14-2.36c0-3.26,1.16-5.22,3.44-5.22s5.32,2,8.56,5.22c.72.73,1.45,1.51,2.17,2.36a61.92,61.92,0,0,1,4.58,6c.52.76,1,1.54,1.53,2.35.94,1.49,1.84,3.05,2.71,4.66.42.77.82,1.55,1.21,2.35,0,.09.1.18.14.27.91,1.85,1.71,3.66,2.39,5.39.32.81.61,1.59.88,2.36a41.38,41.38,0,0,1,1.85,7.28,18.48,18.48,0,0,1,.2,2.36C1931.4,1430.4,1930.27,1432.6,1927.86,1432.6Z"/>
          <path class="cls-36" d="M2049,1406.77v2.35H1906.82c-.39-.8-.75-1.58-1.09-2.35Z"/>
          <polygon class="cls-36" points="1903.08 1399.76 1920.37 1399.76 2046.05 1399.76 2046.05 1402.11 1921.9 1402.11 1903.85 1402.11 1903.08 1399.76"/>
          <path class="cls-36" d="M2043.75,1391.4v2.36h-142a16.61,16.61,0,0,1-.14-2.36Z"/>
          <path class="cls-36" d="M2053.34,1414.78v2.36h-142c-.48-.77-1-1.55-1.44-2.36Z"/>
          <path class="cls-36" d="M2059,1424.42v2.36H1918.7c-.68-.73-1.39-1.52-2.09-2.36Z"/>
          <path class="cls-31" d="M2044.85,1409.39c5.81,11.82,14.23,21.58,19.61,23,3.95-1.45,2.77-11.2-3-23s-14.22-21.58-19.6-23C2037.87,1387.83,2039.05,1397.59,2044.85,1409.39Z"/>
        </g>
        <g>
          <path class="cls-37" d="M623.43,1432.46a4.43,4.43,0,0,1-4.18-5.85L809.09,869.27a4.42,4.42,0,1,1,8.37,2.85L627.62,1429.46A4.43,4.43,0,0,1,623.43,1432.46Z"/>
          <path class="cls-37" d="M361,1432.46a4.52,4.52,0,0,1-1.43-.24,4.43,4.43,0,0,1-2.76-5.61L546.65,869.27a4.42,4.42,0,1,1,8.37,2.85L365.17,1429.46A4.41,4.41,0,0,1,361,1432.46Z"/>
          <path class="cls-37" d="M733.43,1105.05H475.48a4.42,4.42,0,0,1,0-8.84H733.43a4.42,4.42,0,0,1,0,8.84Z"/>
          <path class="cls-37" d="M685.13,1243.7H425.28a4.42,4.42,0,1,1,0-8.84H685.13a4.42,4.42,0,0,1,0,8.84Z"/>
        </g>
        <g>
          <path class="cls-37" d="M961.94,424.81c-21.16-7.51-48.18-8.18-54.81,4.1-5.81,10.75-76.66,172.92-89.3,201.89H806.41l95.45-220.33s19.11-26,64.86-8.88S983.11,432.32,961.94,424.81Z"/>
          <path class="cls-25" d="M661.1,522.19c-10.23,19.53-73.28,79.71-69.86,86.84,3.11,6.49-.61,69.5-2.18,93.69v0c-.38,5.79-.62,9.34-.62,9.34-2.07,4.93-7.69,7.06-11.87,8a29.18,29.18,0,0,1-4.93.7s-.87-3.21-2.27-8.67c-2.61-10.17-7-28.13-11.08-47.59-6.29-30.36-11.57-64.37-7.35-78.12C603.31,415.77,657,471.32,657,471.32S671.34,502.66,661.1,522.19Z"/>
          <path class="cls-27" d="M589.06,702.72v0c-.38,5.79-.62,9.34-.62,9.34-2.07,4.93-7.69,7.06-11.87,8a76.16,76.16,0,0,1-7.2-8c-2.61-10.17-7-28.13-11.08-47.59,5.54-35,27.42-87.12,27.42-87.12Z"/>
          <path class="cls-33" d="M562.84,1064.91s-3.65,30.86,2.28,31.3c.79.06,35.2,0,35.2,0h38.6s-1-9.37-11.92-11.28-29.24-9.59-35.86-24C584.17,1045.7,562.84,1064.91,562.84,1064.91Z"/>
          <path class="cls-16" d="M560.68,1067s11.37,3.81,20.25,3.81a74.3,74.3,0,0,0,18.91-2.7s2.14-20.71,13.92-66.33c6.18-23.91,15-54.65,27.55-92.86,34.7-105.58,45.25-167.35,46.21-173.2.06-.31.08-.46.08-.46l-.12,0L580.8,688.41S594,833.93,577.17,889.78a234.69,234.69,0,0,0-6.11,26.76C560.44,977.21,560.68,1067,560.68,1067Z"/>
          <path class="cls-17" d="M571.06,916.54l42.7,85.28c6.18-23.91,15-54.65,27.55-92.86,34.7-105.58,45.25-167.35,46.21-173.2a4.38,4.38,0,0,0,0-.51L580.8,688.41S594,833.93,577.17,889.78A234.69,234.69,0,0,0,571.06,916.54Z"/>
          <path class="cls-33" d="M646.16,1064.91s1.42,30.86,7.35,31.3c.79.06,30.58-.13,30.58-.13l38,.13s-.79-9.36-11.73-11.27-29.24-9.59-35.86-24C667.49,1045.7,646.16,1064.91,646.16,1064.91Z"/>
          <path class="cls-16" d="M706.65,691.84s1.38,94.3-14.93,210.08-10.79,164.93-10.79,164.93-11.21,3.63-15.73,4c-11.53.94-23.35-2.7-23.35-2.7S618.5,952.32,625.2,894.37s-32-198.86-32-198.86Z"/>
          <path class="cls-7" d="M629,467.45l18.7,16.42,30.58-1.34c-.07-2.47-.63-12.71-1.15-22,0-.55-.06-1.1-.09-1.63-.45-7.9-.85-14.69-.85-14.69L650.05,428l-9.73-6c0,.17-.4,8.64-.46,9.88C638.74,453.81,629,467.45,629,467.45Z"/>
          <path class="cls-25" d="M712.86,695.92c-.42,49.77-3.74,166.21-6.18,168.58-25.93,25-140-6.86-146-34.43s23-353.49,67.25-366.51c9.19-2.69,50.3,23.41,50.3,23.41s15.71,9.93,20.77,35.61c1.87,9.51,8,77.4,11.56,122.76.94,12.09,1.71,22.58,2.16,29.94C712.91,678.32,713,685.72,712.86,695.92Z"/>
          <path class="cls-38" d="M641.89,432.53c4.65,11.21,26.16,23.37,35.19,28,0-.55-.06-1.1-.09-1.63-.45-7.9-.85-14.69-.85-14.69L650.05,428C643.91,427.06,640,427.91,641.89,432.53Z"/>
          <path class="cls-7" d="M685.79,445.32s-47.21,4.39-49.49-25.05-9.92-48.71,20.13-52.76,36.79,6.73,39.94,16.38S698,443.42,685.79,445.32Z"/>
          <path class="cls-37" d="M691.1,383.34,676.38,406.1c-6.37-2.82-9.43-1.57-10.52,8.35s-17.39,20.55-25,10.26c0,0-29.31-51.73-21.53-60.56,12.3-14,42-10.26,63-8.38C704.09,357.73,707.06,381.5,691.1,383.34Z"/>
          <path class="cls-27" d="M712.86,695.92c-79.12-79.62-83.57-159.24-83.57-159.24,42.22,23.81,67.31,24.22,80.32,67.49.94,12.09,2.66,63.75,3.11,71.11C712.91,678.32,713,685.72,712.86,695.92Z"/>
          <path class="cls-7" d="M839.56,541.44s4.05-4.91,5.54-6.91c2-2.88,10.88-6,22-7.44,0,0,8.43,1.06,3.32,8.69-3.42,5.1-3,2.1-7.95,9.21s-12.75,11.35-19,10l-7.1,1.3L831,545.13Z"/>
          <path class="cls-25" d="M623.74,492.08s-57.24,52.77,114,128c26.14,11.48,107.37-61.43,107.37-61.43s-1.06-13.46-7.67-19.43c0,0-81.4,30-90.26,30.92-7.86.85-53.92-71.47-68.94-87.62S623.74,492.08,623.74,492.08Z"/>
          <path class="cls-25" d="M696.57,358.93s-8.52,74.61-57,76.33L617.48,404.6s49.35-17.72,44.58-58.28Z"/>
          <path class="cls-12" d="M629.46,323s20.88-5.83,35.54,6,15,30.85,5.17,43.09c-3,3.79,3.48,21.56-6,33.77s-27.36,13.19-36,10.9c-7.93-2.1-22,11.42-36.32-1.54-16.74-15.19-9.12-43.68-9.12-43.68S590.32,326.1,629.46,323Z"/>
          <path class="cls-27" d="M674.31,467.11c-.59-.24-33.81-17.93-37.68-16.65s-8.7,13.1-8.7,13.1l53.43,22.58S681.76,470.25,674.31,467.11Z"/>
        </g>
        <g>
          <polygon class="cls-30" points="275.41 1432.81 469.73 1432.81 437.59 1367.4 243.28 1367.4 275.41 1432.81"/>
          <path class="cls-30" d="M440.27,1400.1c8.19,16.66,20,30.41,27.63,32.43a6.79,6.79,0,0,0,1.83.28c7.39,0,6.19-14.65-2.68-32.71s-22.07-32.7-29.46-32.7a4.19,4.19,0,0,0-1.58.28C430.43,1369.72,432.09,1383.47,440.27,1400.1Z"/>
          <path class="cls-30" d="M275.41,1432.81c-3.4,0-8-3.11-12.9-8.21-1-1-2-2.13-2.95-3.31a96.09,96.09,0,0,1-7.48-10.27c-.68-1.08-1.37-2.18-2-3.31-1.44-2.44-2.82-5-4.1-7.61l-.18-.37c-.56-1.13-1.07-2.23-1.54-3.32-1-2.26-1.9-4.47-2.65-6.57-.4-1.13-.76-2.24-1.09-3.31a48.59,48.59,0,0,1-1.86-8.46,24.61,24.61,0,0,1-.2-3.31c0-4.6,1.64-7.36,4.85-7.36s7.51,2.76,12.07,7.36c1,1,2,2.12,3.06,3.31a92.08,92.08,0,0,1,6.45,8.46c.73,1.07,1.45,2.18,2.16,3.31,1.32,2.1,2.59,4.31,3.82,6.57.58,1.09,1.15,2.19,1.7,3.32.07.12.13.25.19.37,1.29,2.62,2.41,5.17,3.37,7.61.45,1.13.86,2.23,1.24,3.31a57.76,57.76,0,0,1,2.61,10.27,26.87,26.87,0,0,1,.28,3.31C280.4,1429.7,278.81,1432.81,275.41,1432.81Z"/>
          <path class="cls-36" d="M446.11,1396.41v3.32H245.77c-.56-1.13-1.07-2.23-1.54-3.32Z"/>
          <polygon class="cls-36" points="240.49 1386.53 264.86 1386.53 441.96 1386.53 441.96 1389.84 267.02 1389.84 241.58 1389.84 240.49 1386.53"/>
          <path class="cls-36" d="M438.72,1374.76v3.31H238.63a24.61,24.61,0,0,1-.2-3.31Z"/>
          <path class="cls-36" d="M452.24,1407.71V1411H252.08c-.68-1.08-1.37-2.18-2-3.31Z"/>
          <path class="cls-36" d="M460.19,1421.29v3.31H262.51c-1-1-2-2.13-2.95-3.31Z"/>
          <path class="cls-31" d="M440.27,1400.1c8.19,16.66,20,30.41,27.63,32.43,5.57-2,3.9-15.79-4.27-32.43s-20-30.4-27.62-32.42C430.43,1369.72,432.09,1383.47,440.27,1400.1Z"/>
        </g>
        <g>
          <path class="cls-30" d="M715.13,1428.39c-56.45,14.87-102.47-11.74-117.24-67.81l53.69-14.15c9.12,34.6,32.56,32.7,49.4,28.26,35.4-9.33,32.11-37.32,29.06-48.93l53.69-14.15C795.44,1356.06,779,1411.56,715.13,1428.39Z"/>
          <path class="cls-36" d="M685.63,1424c-28.54,0-48.55-15-60.88-28.62a122.53,122.53,0,0,1-22.52-36.27l3.3-1.25A121.34,121.34,0,0,0,627.42,1393c20,22.15,44.41,30.94,72.48,26.12,29.88-5.12,51.65-20.77,64.73-46.51,10.85-21.37,13-45.33,11.44-60.63l3.51-.38c1.63,15.82-.61,40.59-11.82,62.66-13.42,26.41-36.68,43.15-67.27,48.4A87.8,87.8,0,0,1,685.63,1424Z"/>
          <path class="cls-36" d="M687.55,1411.16c-17.16,0-33.7-7.47-48.66-22.16a128.63,128.63,0,0,1-24-33.14l3.18-1.56a126.83,126.83,0,0,0,23.35,32.18c19.94,19.54,41.78,25.59,64.91,18,25.57-8.4,42.7-25.82,50.92-51.79a106.21,106.21,0,0,0,4.72-36.93l3.51-.32a107.76,107.76,0,0,1-4.84,38.23c-5.89,18.7-19.91,43.28-53.23,54.23A63.61,63.61,0,0,1,687.55,1411.16Z"/>
          <path class="cls-36" d="M689,1392.06c-37,0-55.3-37.78-55.51-38.21l3.18-1.56A78.14,78.14,0,0,0,653.32,1374c14.63,13.22,31.46,17.44,50,12.56,45.65-12,40.29-62.08,40.23-62.58l3.5-.43c.06.53,5.75,53.71-42.85,66.49A60,60,0,0,1,689,1392.06Z"/>
          <path class="cls-31" d="M651.93,1346.34c.51,2-11.17,6.71-26.09,10.64s-27.44,5.55-28,3.6,11.17-6.71,26.09-10.64S651.42,1344.4,651.93,1346.34Z"/>
          <path class="cls-31" d="M783.73,1311.61c.51,2-11.17,6.71-26.09,10.64s-27.44,5.55-27.95,3.6,11.17-6.7,26.09-10.64S783.22,1309.67,783.73,1311.61Z"/>
        </g>
        <g>
          <path class="cls-30" d="M2138.45,1425.5c-54.71-20.35-77-68.61-56.79-123l52,19.36c-12.47,33.53,7.79,45.48,24.11,51.55,34.31,12.76,47.75-12,51.93-23.26l52.05,19.35C2245.76,1412.63,2200.33,1448.52,2138.45,1425.5Z"/>
          <path class="cls-36" d="M2116.88,1404.9c-23.33-16.44-31.08-40.18-33.28-58.46a122.6,122.6,0,0,1,2.47-42.62l3.42.88a121.31,121.31,0,0,0-2.36,41.37c3.61,29.64,18.48,50.87,44.2,63.1,27.38,13,54.19,12.77,79.7-.75,21.18-11.21,36.76-29.55,44.28-43l3.08,1.71c-7.77,13.87-23.87,32.83-45.74,44.41-26.19,13.87-54.84,14.16-82.87.83A87.41,87.41,0,0,1,2116.88,1404.9Z"/>
          <path class="cls-36" d="M2125.82,1395.54c-14-9.88-23.24-25.52-27-46.15a128,128,0,0,1-.54-40.92l3.49.56a127.18,127.18,0,0,0,.55,39.76c5.05,27.45,19.42,45,42.71,52.08,25.73,7.86,49.77,3.49,71.45-13a105.93,105.93,0,0,0,25.13-27.47l3.05,1.76a107.43,107.43,0,0,1-26,28.47c-15.58,11.89-41.2,23.91-74.74,13.67A63.31,63.31,0,0,1,2125.82,1395.54Z"/>
          <path class="cls-36" d="M2138,1380.76c-30.23-21.3-23.46-62.74-23.38-63.21l3.5.56a77.89,77.89,0,0,0,1.12,27.32c4.34,19.23,15.67,32.38,33.66,39.08,44.23,16.48,68.69-27.55,68.93-28l3.11,1.66c-.26.48-26.23,47.23-73.32,29.68A59.94,59.94,0,0,1,2138,1380.76Z"/>
          <path class="cls-31" d="M2134,1322c-.7,1.89-13-.94-27.46-6.32s-25.62-11.27-24.92-13.16,13,1,27.46,6.33S2134.74,1320.15,2134,1322Z"/>
          <path class="cls-31" d="M2261.79,1369.55c-.71,1.89-13-1-27.46-6.33s-25.62-11.27-24.92-13.15,13,1,27.46,6.33S2262.49,1367.67,2261.79,1369.55Z"/>
        </g>
        <rect class="cls-8" y="1432.6" width="2726.68" height="7.23" rx="3.09"/>
        <path class="cls-13" d="M1759.54,902.18h-243a9.45,9.45,0,0,1-9.45-9.44h0a9.45,9.45,0,0,1,9.45-9.45h243a9.45,9.45,0,0,1,9.44,9.45h0A9.44,9.44,0,0,1,1759.54,902.18Z"/>
      </g>
    </g>
  </g>
</svg>
