<svg xmlns="http://www.w3.org/2000/svg" viewBox="0 0 2726.68 1632.2">
  <defs>
    <style>
      .cls-1 {
        fill: #fbeedd;
      }

      .cls-2 {
        fill: #b0cfa3;
      }

      .cls-3 {
        fill: #8bb07e;
      }

      .cls-4 {
        fill: #de8140;
      }

      .cls-5 {
        fill: #f4ba57;
      }

      .cls-6 {
        fill: #f2a63f;
      }

      .cls-7 {
        fill: #d6efcb;
      }

      .cls-8 {
        fill: #9ec08f;
      }

      .cls-9 {
        fill: #304885;
      }

      .cls-10 {
        fill: #739ce7;
      }

      .cls-11 {
        fill: #99bdf9;
      }

      .cls-12 {
        fill: #f4dfc9;
      }

      .cls-13 {
        fill: #e9cbae;
      }

      .cls-14 {
        fill: #f4b68a;
      }

      .cls-15 {
        fill: #da733e;
      }

      .cls-16 {
        fill: #27385f;
      }

      .cls-17 {
        fill: #f3b283;
      }

      .cls-18 {
        fill: #304f90;
      }

      .cls-19 {
        fill: #243d6c;
      }

      .cls-20 {
        fill: #dd915c;
      }

      .cls-21 {
        fill: #2e3a61;
      }

      .cls-22 {
        fill: #f3b484;
      }

      .cls-23 {
        fill: #eb9a57;
      }

      .cls-24 {
        fill: #e19a69;
      }

      .cls-25 {
        fill: #e37331;
      }

      .cls-26 {
        fill: #f09455;
      }

      .cls-27 {
        fill: #f9ebdc;
      }

      .cls-28 {
        fill: #f9daa5;
      }

      .cls-29 {
        fill: #2f3550;
      }
    </style>
  </defs>
  <g id="Ebene_2" data-name="Ebene 2">
    <g id="eatable_onboarding" data-name="eatable onboarding">
      <g id="einkaufen">
        <path class="cls-1" d="M168.84,1628.77s-317.28-340.66-53.66-709.47c233.9-327.24,506.61-304.87,706.7-172.07,85.21,56.56,330.91,7,540-326C1647.08-32.86,2635.6,242.54,2455.36,941.16c-87.22,338.09,265.46,350.38,85.75,688.32Z"/>
        <g>
          <g>
            <g>
              <g>
                <path class="cls-2" d="M1464.9,584.59c-.09,1.77-.16,2.7-.16,2.7l-.85-2.63c-4.63-14.26-27.23-84.65-47.79-163-28.45-108.44-53-232.15-20.69-243.59,61.2-21.68,72.48,151.58,72.65,279.43C1468.17,520.45,1465.55,572.4,1464.9,584.59Z"/>
                <path class="cls-2" d="M1524.78,443.79c-22.11,49.06-41.3,90.33-52.31,115.05-4.79,10.78-8,18.4-9.28,22.16,1.07-6.11,4-22.49,8.07-45.81v0c6.19-34.94,15.17-85.4,25-140.2,23.91-133.2,53-291.89,59.81-314.58,12-40,67.23-125.22,104.41-51.09C1684.65,77.47,1591.43,295.92,1524.78,443.79Z"/>
                <path class="cls-2" d="M1529.24,513.78c-22.86,24.13-42.06,43.69-52.8,54.5-5.86,5.92-9.19,9.22-9.19,9.22s5.85-12.47,15.82-32.4c9.42-18.83,22.5-44.3,37.81-72.16C1571,381.6,1644.8,264.53,1690.56,271.29,1742.78,279,1612.09,426.34,1529.24,513.78Z"/>
                <path class="cls-3" d="M1464.9,584.59c-.32,0-.66,0-1,.07-4.63-14.26-27.23-84.65-47.79-163,9.59,14.37,26.93,33.64,52,35.84C1468.17,520.45,1465.55,572.4,1464.9,584.59Z"/>
                <path class="cls-3" d="M1524.78,443.79c-22.11,49.06-41.3,90.33-52.31,115.05a199.78,199.78,0,0,1-1.21-23.65v0c6.19-34.94,15.17-85.4,25-140.2C1500.12,414.09,1508.14,435.28,1524.78,443.79Z"/>
                <path class="cls-3" d="M1529.24,513.78c-22.86,24.13-42.06,43.69-52.8,54.5,1-6.22,3.45-14.28,6.63-23.18,9.42-18.83,22.5-44.3,37.81-72.16C1521.23,484.62,1522.89,502,1529.24,513.78Z"/>
              </g>
              <path class="cls-2" d="M1463.17,581l-.46,2.61C1462.49,583.52,1462.64,582.63,1463.17,581Z"/>
              <path class="cls-4" d="M1493.86,757.14c-38.34,108.63-86.08,227.07-86.08,227.07l-107.87-32.33s12.63-80.45,31.17-170c21.62-104.38,34-209.7,78.31-237.1a83.83,83.83,0,0,1,38.28-12,93.33,93.33,0,0,1,19.3.57c1.52.2,3,.43,4.49.68a103.17,103.17,0,0,1,11,2.62c1.41.39,2.8.84,4.17,1.32a105.3,105.3,0,0,1,13.79,5.81c18.67,9.49,33.71,23.78,39.61,39.22C1557.75,629.46,1522.84,675.07,1493.86,757.14Z"/>
            </g>
            <g>
              <path class="cls-5" d="M1441.16,890.21c-28.34,86-36.76,180.29-25.12,280.93a56.22,56.22,0,0,0,45.16,48.63c16.65-.09,49.49-30.35,68.28-69a144.85,144.85,0,0,0,11.67-33.3c18.83-89.33,53.7-196.89,96.95-251.87,44.23-56.22,103.82-123.42,185.74-169.64l0,0c7.91-4.52,193.79-139.88,193.79-139.88,18.49-19.55-3.41-41.46-3.41-41.46s-17.66,15.48-71.51,46.49-148.43-5.33-148.46-5.33a90.14,90.14,0,0,0-84,5,666.12,666.12,0,0,0-144.41,118.22C1508.8,741.35,1466.83,812.4,1441.16,890.21Z"/>
              <path class="cls-6" d="M1541.15,1117.5c18.83-89.33,53.7-196.89,96.95-251.87,44.23-56.22,103.82-123.42,185.74-169.64l0,0c1.43-1,56.85-41.9-4.58-78.91-60.11-36.22-305.48,233.59-289.81,533.74A144.85,144.85,0,0,0,1541.15,1117.5Z"/>
            </g>
            <g>
              <path class="cls-2" d="M1316.16,768.14a200.55,200.55,0,0,1-28.53,35.07c-42.61,42-109.48,73.1-195.57,72.28,0,0-36.14-34.45-53.66-78.29h0c-12.15-30.41-21-75.19,0-108.42,13.54-21.42,30.95-31.55,48.6-36.89,30-9.12,60.64-4.42,74-17.78,13.22-13.16,32-24.53,52.67-31.08,3.37-1.07,6.79-2,10.26-2.81h0c1.43-.34,2.85-.65,4.31-.93a.15.15,0,0,1,.09,0c31.83-6.22,65.83-.12,89.47,28.25a101.26,101.26,0,0,1,14.7,24.09C1347.71,685.64,1341.2,728.83,1316.16,768.14Z"/>
              <path class="cls-7" d="M1065.78,683.84s-28.41,22.3-19.71,47,31.16,13.28,38.18-3.81S1084.45,675.55,1065.78,683.84Z"/>
              <path class="cls-8" d="M1317.86,627.51a101.92,101.92,0,0,1,14.7,24.09c15.15,34,36,124.35,10.92,163.67L1309.9,846c-42.6,42-131.75,30.31-217.84,29.5,0,0-36.13-34.45-53.66-78.29h0s106.49,42.13,206.79-45.83C1290.75,711.4,1310.2,665.61,1317.86,627.51Z"/>
              <g>
                <path class="cls-2" d="M1155.44,582.59c-17.58-10.47-35.36,4.24-56,12.31s-60.39,7.92-60.39,7.92a288.75,288.75,0,0,1,43.13-46.89C1109,532.55,1155.44,582.59,1155.44,582.59Z"/>
                <path class="cls-3" d="M1155.44,582.59c-16.52-13.56-47.07-21.33-62-15.23S1039,602.82,1039,602.82a288.75,288.75,0,0,1,43.13-46.89C1109,532.55,1155.44,582.59,1155.44,582.59Z"/>
              </g>
              <path class="cls-8" d="M1161,634.1c13.22-13.16,32-24.53,52.67-31.08-35.11,13.17-54.48,57.67-67.8,52.51-14.29-5.54-57.27-3.73-58.91-3.65C1117,642.76,1147.64,647.46,1161,634.1Z"/>
              <path class="cls-8" d="M1228.3,599.28c-1.11.31-2.53.62-4.31.93C1225.42,599.87,1226.84,599.56,1228.3,599.28Z"/>
              <path class="cls-3" d="M1148.39,654.64h0c-11.26-24.88-5.17-55.74,1.92-77.25,5.64-17.11,16.46-40.22,21.77-51.2a2.86,2.86,0,0,1,5.3.36l2.14,6.48a23.37,23.37,0,0,1-2.18,19.45c-10.88,18-32.73,60-22.89,94.66C1155.56,651,1150.39,659.09,1148.39,654.64Z"/>
            </g>
          </g>
          <g>
            <path class="cls-9" d="M1380.16,766.77l-3.51-1.4c15.51-23.08,39.57-38.9,58.51-46.22a154.14,154.14,0,0,1,34.6-9.13,3.45,3.45,0,0,1,3.06,1.18l2.94,3.42a2.9,2.9,0,0,1-1.77,4.72C1457.05,721.76,1403.58,731.93,1380.16,766.77Z"/>
            <path class="cls-10" d="M1314.19,773.37c17.78-44.43,42.81-34.41,73.68-22s55.91,22.38,38.12,66.8c-12.74,31.84-48.1,47.63-79,35.27S1301.44,805.2,1314.19,773.37Z"/>
            <path class="cls-11" d="M1332.92,764.18c1.11-8,13.93-16.34,21.89-15.23s11.67,10,10.55,18-12.08,14.8-20,13.69A14.56,14.56,0,0,1,1332.92,764.18Z"/>
          </g>
          <path class="cls-12" d="M1742.81,784.55l95.35,679.27c11.83,84.24-53.59,159.48-138.66,159.48H1555.83a121.86,121.86,0,0,1-121.13-135.11l80.69-631.86Z"/>
          <path class="cls-12" d="M1242,784.55s231.12,78.81,500.78,0l-79.46,840.9H1160.17Z"/>
          <path class="cls-13" d="M1242,784.55l95.35,681c11.83,84.47-53.59,159.9-138.66,159.9H1055.05c-72.54,0-129-63.16-121.13-135.46l68.3-705.44s33.65,6.57,115.51,6.57C1198.8,791.12,1242,784.55,1242,784.55Z"/>
          <path class="cls-4" d="M1669.69,860.28a17.9,17.9,0,1,0-26.88,15.47c7.6,60.26-4.38,109.51-34.26,139.69-27.16,27.43-68.37,37.6-119.15,29.4-44.65-7.2-74-56.62-90.83-96.8-12.08-28.9-19.54-57.36-23.37-74.25a17.9,17.9,0,1,0-20.56,2c9.62,44.17,45.26,175.3,131.5,189.21a226.42,226.42,0,0,0,36.13,3c41.36,0,75.79-13,100.82-38.24,34.26-34.6,48.28-89.51,40.13-155.78A17.89,17.89,0,0,0,1669.69,860.28Z"/>
        </g>
        <g>
          <g>
            <path class="cls-4" d="M1974,1040.91a176.86,176.86,0,0,0,39.07,8.1c52.54,5,115.65-11,174.09-59.56,0,0,5.52-43.72-6.92-83.48h0c-8.64-27.58-27.53-63.16-60.43-74.19-21.2-7.1-38.76-4.33-53.81,1.85-25.6,10.48-44,30.78-60.57,29.12-16.38-1.65-35.58,1.06-53.35,8.09q-4.36,1.71-8.59,3.8h0c-1.17.57-2.32,1.15-3.47,1.77a.1.1,0,0,0-.07,0c-25.25,13.49-45.11,36.61-45.47,69.2a89.46,89.46,0,0,0,3.37,24.67C1906.41,1002.06,1934.94,1028,1974,1040.91Z"/>
            <path class="cls-14" d="M2098.29,843.67s31.87-.58,39.67,21.16-13.92,26.45-28.25,18.67S2080.9,848.41,2098.29,843.67Z"/>
            <path class="cls-15" d="M1894.43,945.64a89.53,89.53,0,0,0,3.37,24.68c8.61,31.74,44.72,105.12,83.76,118.07,0,0,77.44,35.57,121.71,19,49.43-18.48,79.86-57.54,83.87-118,0,0,5.52-43.71-6.93-83.47h0s-49.37,88.18-167,83.91C1959.74,987.93,1920.91,967.44,1894.43,945.64Z"/>
            <g>
              <path class="cls-2" d="M1980.51,824.38c6.19-17,26.56-16.81,45.19-22.79s45.73-28.25,45.73-28.25a254.75,254.75,0,0,0-55.65-8C1984.42,764.24,1980.51,824.38,1980.51,824.38Z"/>
              <path class="cls-3" d="M1980.51,824.38c3.75-18.48,20.32-40.83,33.92-45s57-6.07,57-6.07a254.75,254.75,0,0,0-55.65-8C1984.42,764.24,1980.51,824.38,1980.51,824.38Z"/>
            </g>
            <path class="cls-15" d="M2005.39,862.75c-16.38-1.65-35.58,1.06-53.35,8.09,31.36-10.56,69.41,9.08,75.65-1.87,6.69-11.76,37.1-34.48,38.27-35.34C2040.36,844.11,2022,864.41,2005.39,862.75Z"/>
            <path class="cls-8" d="M1940,876.41c.93-.41,2.08-1,3.47-1.77C1942.27,875.21,1941.12,875.79,1940,876.41Z"/>
            <path class="cls-3" d="M2025.49,869.74h0c-6.16-23.29-27.52-41-44.36-51.78-13.4-8.56-33.68-18.34-43.44-22.89a2.53,2.53,0,0,0-3.43,3.2l2.15,5.63A20.62,20.62,0,0,0,1948.75,816c17.47,6.25,55.86,22.83,68.42,52C2018.59,871.28,2026.61,873.91,2025.49,869.74Z"/>
          </g>
          <path class="cls-16" d="M1892.19,1564.4s-23.42,17.55-59.31,8.27c0,0-28.94-6.59-35.29,7.84,0,0,44.38,22.55,55.61,28.71,8.47,4.65,17.3,12,23.54,17.66a11.64,11.64,0,0,0,16.85-1.3c2-2.4,4.19-5.26,6.64-8.58,6.84-9.27,22.79-39.23,22.79-39.23Z"/>
          <path class="cls-9" d="M1878.44,1555.48s14.26,32.89,47.18,26.84c0,0,67.18-55.48,113.27-113.11,15-18.72,27.7-37.66,35.19-55,30.56-70.75,113-176.28,165.48-229.76L2108.36,1137s-42,84.54-97.94,188.37C1970.12,1400.18,1922.63,1485,1878.44,1555.48Z"/>
          <path class="cls-16" d="M2010.42,1325.36l28.47,143.85c15-18.72,27.7-37.66,35.19-55,30.56-70.75,113-176.28,165.48-229.76L2108.36,1137S2066.33,1221.53,2010.42,1325.36Z"/>
          <path class="cls-16" d="M2117.66,1583.48s1.43,26.25-30.38,29.75c0,0-18.18.09-18.23,16.79l92.46.3s2.68-6.74,3.33-21.17c.5-11.08-10.73-40.05-10.73-40.05Z"/>
          <path class="cls-9" d="M2151.39,1137s-58.45,64.22-95.55,179.93c-20.18,62.95,37,221.23,48.15,276.22,0,0,38.36,3.26,64.59-6.88,0,0,2-113.58-13.35-201.13-8.58-49,77-104.78,114.34-193.31,25.43-60.23-5.51-59.21-43.52-60.65Z"/>
          <path class="cls-17" d="M2218.86,850.46c32.52,18.36,99.1,1.43,99.1,1.43s-27-30.91-14.76-80.69l-25.53,13-27.42,13.92a226.17,226.17,0,0,0-3,24.59c-.31,4.06-.59,8.6-.79,13.57A85.27,85.27,0,0,0,2218.86,850.46Z"/>
          <path class="cls-18" d="M2099.62,1133.67c0,5.72,6.59,8.45,8,8.73,13.12,2.4,49.74,16.64,82.73,19.91,27.78,2.91,53.57.15,81.91-5.54,3.75-.76,12.56-3.13,13.18-6.72.79-3.93,109.29-221.21,24.94-314.55-2-2.19-18.63,1.76-33.86,5.37a62.49,62.49,0,0,1-38.48-3.14l-14.28,7.51C2206.2,855,2173,889.73,2169.14,917c-2,13.86-9.9,24.11-12.19,36.3q-1.27,6.76-2.6,13.21-2.59,12.62-5.35,24c-5,20.6-10.19,38.34-15.34,53.66-5.47,16.27-10.84,29.81-15.63,41.13-6.22,14.68-11.48,25.65-14.76,34C2101,1125.27,2099.62,1129.91,2099.62,1133.67Z"/>
          <path class="cls-19" d="M2103.27,1119.36c153.18-72.17,206.22-210.75,206.22-210.75S2185,954.52,2154.35,966.48q-2.59,12.62-5.35,24c-5,20.6-10.19,38.34-15.34,53.66-5.47,16.27-10.84,29.81-15.63,41.13C2111.81,1100,2106.55,1111,2103.27,1119.36Z"/>
          <g>
            <path class="cls-17" d="M1999.39,1081.22s-21.3-8.73-26.19-8-18.43-2.69-17.66,1.75c.54,3.06,18,6.28,18,6.28s-19.51-4.39-18,.17c1,3.14,5.19,15.65,11.64,19.73,7.72,4.89,21.7,2.53,38.08.16C2035.34,1096.93,1999.39,1081.22,1999.39,1081.22Z"/>
            <path class="cls-18" d="M2002.76,1096.25c-4.9-12.77-7.13-18.55-7.13-18.55s100-81.52,110.21-88.51c6.94-4.77,76.08-56.45,109.78-96.72a70.53,70.53,0,0,1,68.58-23.76l21,4.4c25.35,5.31,33.59,37.4,13.92,54.26-55.39,47.49-148.81,102.56-166.22,114-43.24,28.44-138.89,68.29-138.89,68.29S2006.6,1106.28,2002.76,1096.25Z"/>
          </g>
          <path class="cls-20" d="M2247.24,822.68c32,1.79,52.77-24.61,52.77-24.61s-14.45-8-22.34-13.9l-27.42,13.92A226.17,226.17,0,0,0,2247.24,822.68Z"/>
          <path class="cls-17" d="M2233.62,789.84s48.45,34.77,69.64,4.27,41.71-46.57,11.67-70.06-44.2-16.07-53.75-7.6S2221.56,780,2233.62,789.84Z"/>
          <path class="cls-16" d="M2256.06,688.89a78.18,78.18,0,0,1,5.65-20s3,12.6,26.06,10.86,59.5,2.27,71.66,28.5a55.19,55.19,0,0,1,2.08,5.14c2.2-5.81,2.73-14.53,2.73-14.53,4.37,11.29,0,25.42,0,25.42h0l.18,1.24c5.08,4.29,9.34,17.64,9.34,17.64-1.53-3.72-5.27-6.15-8.6-7.65.1,20.41-8.18,40.37-22.7,46.31-21.25,8.68-21.08,2.06-42.45,16.23,0,0-5.73-7.11-1.82-11.89s18.68-11.73,10.43-18.68-11.3.87-14.34-3.9,12.16-18.68-7.38-31.71S2254.33,700.62,2256.06,688.89Z"/>
        </g>
        <g>
          <path class="cls-21" d="M826.76,115c-.09-2.3-1.86-27.07-39.6-28.37,0,0,18.56,2.21,21.76,10.37,0,0-12.63-10.08-22.92-6.84s-16.34,21.27-16.4,27.2,5.66,25,12.19,26.67a19.87,19.87,0,0,0,7.91,0,88.77,88.77,0,0,0-5.07,9c-15.06,30.91.47,61.12,13.22,57.78,8.18-2.14,10.49,11.81,10.49,11.81l79.43-64.3S858.59,98,826.76,115Z"/>
          <path class="cls-9" d="M854.41,1025.61l-16.87,6.28s-73.28-101.63-82.3-191.05c-1.61-16-1.07-31.44,2.41-45.72,0,0-.72-4.09-2-11.32-.58-3.38-1.29-7.44-2.11-12.1-2.38-13.65-5.66-32.32-9.4-53.59-8.63-48.94-19.8-111.5-28.47-157.49l4.54-1.46,49.19-15.87L779.59,511l36.63-9.64s8.18,16,15.49,91.61c1.35,9.92,2.58,20.86,3.5,32.72a647.56,647.56,0,0,1-3.48,132.43c-1.68,13.14-3.8,26.71-6.44,40.65-1.92,10.22-2.21,24.15-1.4,40.14C827.58,912,854.41,1025.61,854.41,1025.61Z"/>
          <path class="cls-16" d="M835.21,625.69,755.68,783.8c-.58-3.38-1.29-7.44-2.11-12.1-2.38-13.65-5.66-32.32-9.4-53.59-8.63-48.94-19.8-111.5-28.47-157.49l4.54-1.46,49.19-15.87L779.59,511l36.63-9.64s8.18,16,15.49,91.61C833.06,602.89,834.29,613.83,835.21,625.69Z"/>
          <path class="cls-9" d="M800.22,521.65l-1.84-15.79C767.54,514.06,685.12,483,685.12,483s-29.88,26.27-26,89.23c1.91,30.73,5.41,161.32,9.06,200,1.32,14,2.48,24,2.95,28a0,0,0,0,1,0,0,5.54,5.54,0,0,1-.89,3.43,180.87,180.87,0,0,0-13.49,28.35c-35.86,95.56,5.52,213.23,5.52,213.23l10.74-4.33S696.62,909.88,715.75,852c3.25-9.81,6.36-17.52,9.22-22.13,8.32-13.43,16-35.36,23-61.46,13.24-49.33,23.9-113.51,31-163C780,605.43,800.22,521.65,800.22,521.65Z"/>
          <path class="cls-22" d="M1043.23,501.48c-6.64,5.88-24.26-14.3-26.69-17a1.49,1.49,0,0,0-.25-.38l5.36-14.94s23.11-.89,26.94,2.94S1050.51,495.23,1043.23,501.48Z"/>
          <path class="cls-22" d="M1021.65,469.18l-2.3,15.45s-1,0-2.81-.13c-5.61-.38-19.27-1.14-34.72-2.81-23.24-2.29-50.82-6.38-61.8-13.15-16.72-10.21-44.17-41.49-62-72.77a22,22,0,0,1-1.28-2.3c-9.32-16.6-15.83-33.07-16.34-46.22a66.12,66.12,0,0,1,2.17-20.94A53.41,53.41,0,0,1,852,307.42a9.36,9.36,0,0,1,1.79-2.17,44,44,0,0,1,12.13-10.34c3.06-1.28,6.38.25,9.83,3.95V299a58.65,58.65,0,0,1,8.81,13c.13.13.25.26.25.39.64,1.15,1.28,2.42,2.05,3.83a3.38,3.38,0,0,1,.51.89q2.1,4.41,4.21,9.19c15.7,34.22,32.43,86.06,46.35,101.51,6,6.63,33.45,19.66,55.28,29.36C1008.88,464.08,1021.65,469.18,1021.65,469.18Z"/>
          <path class="cls-22" d="M859.15,330.15c-9.68,4.49-21.38,7.55-35.52,8.32-53,2.91-65.07-43.58-67.26-74.43a44.39,44.39,0,0,1,18.2-2.3c3.76.2,7.68.59,10.92,1,6.49-3.39,18.14-19.85,24.87-47.38l2.29,1.06,38.26,18s-4.06,12.45-7.06,24.36c-2.34,9.33-4,18.34-2.62,20.86,3,1.22,4.82,2,4.82,2a.1.1,0,0,0,0,.05A263,263,0,0,1,859.15,330.15Z"/>
          <path class="cls-23" d="M872.42,365c-.4,1.06-.84,2.09-1.33,3.15C857.66,397,832.8,516.85,832.8,516.85c3.54,21.54-161.9-4.23-162.32-23.85-5.83-20.8,20.67-54.21,35.62-71a48.15,48.15,0,0,0,5-6.75,47.18,47.18,0,0,0,6.78-19.78c2.93-27.81,1.81-53.87,2.06-69.71h0c2.92-2.17,5.75-4.16,8.38-6.06a75.63,75.63,0,0,0,10.19-8.46c2.88-3,4.68-6.13,4.89-9.63a50.83,50.83,0,0,0-.21-8.07c-.12-1.28-.29-2.56-.48-3.84A109.49,109.49,0,0,0,735,264.07c14.23-5.76,39.54-2.33,39.54-2.33s0,1.4-.05,3.7c-.08,9.25,0,33,3,37.47,3.7,5.59,71.48,30.09,75.06,22.5s-6.13-42.43-6.48-43.75a.1.1,0,0,1,0-.05c22.7,8.92,30.81,16.39,30.81,16.39C863.19,306.88,883,336.89,872.42,365Z"/>
          <path class="cls-24" d="M850.92,234.4s-4.07,12.44-7.07,24.37c-22.37-6.24-29.16-29.75-31.2-42.35Z"/>
          <path class="cls-22" d="M855.63,247.58S802.12,235.19,810.34,202s6.86-57.17,41.37-50.67,38,20.82,37.94,32.57S869.76,249.94,855.63,247.58Z"/>
          <path class="cls-21" d="M892.66,165c-5.76-12-12.53-11.4-16.76-9.26-25.14-23.27-49.81-4.26-49.81-4.26-9.49,22.93-30.06,32.3-30.06,32.3s8.22,8.42,32.05,8.23c7.27-.06,14.59-3.4,21.25-8a128.27,128.27,0,0,1-27.9,20.81c29.82-5.71,49.82-40.24,51.87-43.9,2.53,3.73,7.36,11.67,7.77,18.38.55,9.11-2.59,26.81,2.63,27.48C883.7,206.82,901.28,183.08,892.66,165Z"/>
          <path class="cls-23" d="M876.87,298s12.88,22.47,14.81,28.26c0,0-16.71-.65-23.45,12.21C868.23,338.47,866.61,301,876.87,298Z"/>
          <path class="cls-4" d="M788.26,476.58c-32.63-.34-60.26-34.22-77.15-61.3a47.18,47.18,0,0,0,6.78-19.78c2.93-27.81,1.81-53.87,2.06-69.71h0c2.92-2.17,5.75-4.16,8.38-6.06a75.63,75.63,0,0,0,10.19-8.46C765.24,356.43,832.5,477.05,788.26,476.58Z"/>
          <path class="cls-16" d="M724.76,1053.93h-85s-2-13,2.4-22.77c4.25-9.43,10.92-13.72,9.32-25.12,5.4,5.55,14.2,11.78,26.48,10.13,1.51,2.44,9.72,15.5,14.75,19.11C698.29,1039.27,723.05,1037.85,724.76,1053.93Z"/>
          <path class="cls-16" d="M907.21,1053.93h-85s-3.18-13.55,2.4-22.77c4.94-8.16,3.05-12.81-.61-19.56a33,33,0,0,0,14.31,2.69c4.23-.24,8.71-2.16,12.64-4.44,3.65,4.17,19.31,21.91,24.21,25.43C880.74,1039.27,905.5,1037.85,907.21,1053.93Z"/>
          <g>
            <path class="cls-9" d="M992.15,447.14l-4.16-1c13.81-28.39,38.37-50,58.53-61.18A175,175,0,0,1,1084,369.22a3.91,3.91,0,0,1,3.63.85l3.84,3.38a3.29,3.29,0,0,1-1.24,5.58C1071.54,384.42,1013,404.27,992.15,447.14Z"/>
            <path class="cls-25" d="M919,464.93c13-52.76,42.73-45.43,79.4-36.38s66.38,16.37,53.37,69.13c-9.32,37.8-46.6,61.12-83.27,52.08S909.67,502.74,919,464.93Z"/>
            <path class="cls-26" d="M938.62,451.66c0-9.13,13.09-20.57,22.22-20.57s14.7,9.42,14.7,18.55-11.26,18.55-20.39,18.55A16.53,16.53,0,0,1,938.62,451.66Z"/>
          </g>
          <path class="cls-22" d="M911.6,494.34l-4.47,16.34s-5.62-1-14.56-2.68c-2.68-.52-4.21-.9-4.21-.9-7.15-1.4-15.71-3.32-25-5.36h-.12c-16-3.83-33.84-8.43-48.9-13.53-10.6-3.71-19.79-7.66-26-11.62a16.55,16.55,0,0,1-1.79-1.28c-14.94-10.85-32.68-42.77-46.47-77-1.92-4.72-3.7-9.45-5.49-14A349.15,349.15,0,0,1,720,335.76a137,137,0,0,1-3.44-23.11,55.47,55.47,0,0,1-.13-6.51C716.63,269.11,735,264,735,264a12.71,12.71,0,0,1,1.28-.38c3.19-.52,6.51,1.65,10,5.87,4.35,5.23,8.94,13.79,13.67,24.13,7.27,16.47,14.93,37.79,22.08,59,4,11.61,7.79,23.23,11.62,34,2.17,6.51,4.34,12.64,6.39,18.25,4,10.73,7.53,19.41,10.72,24.9,2,3.58,7.92,8.56,15.7,14.17,13.54,9.83,33.33,21.71,50.56,31.41,7.15,4.09,13.92,7.79,19.54,10.85C905.59,491.14,911.6,494.34,911.6,494.34Z"/>
          <path class="cls-23" d="M759.87,293.68c-24.58-6.78-43.54,12.42-43.54,12.42.31-37,18.71-42,18.71-42C742.44,261,751,273.82,759.87,293.68Z"/>
          <path class="cls-22" d="M911.6,494.34s8,.17,12.55-2.6,17.38-6.55,23.17-5.92c0,0,2.15.88,1.39,2.9s-10.2,3.65-10.2,7.43c0,0,11.84-.38,15.36-1.89s17.13,2,19.78,3.53-17.26,13.55-26.07,18.39-40.45-5.5-40.45-5.5Z"/>
        </g>
        <g>
          <g>
            <path class="cls-27" d="M905.6,1626.33a6.21,6.21,0,0,1-5.87-5.58L871,1431.7l-41.36-271.89-11.57-76,29.46-1,5.11,44.13,35.89,310.16L909.78,1621C910.11,1623.8,908.15,1626.33,905.6,1626.33Z"/>
            <path class="cls-27" d="M604.17,1083.78,591.06,1170h0l-36.21,238-32.37,212.77a6.2,6.2,0,0,1-5.86,5.58c-2.55,0-4.52-2.53-4.18-5.38l27.91-241.21,29.85-258,4.51-38.92Z"/>
            <path class="cls-13" d="M591.06,1170c1.72-37-20.86-48.22-20.86-48.22l4.51-38.92,29.46,1Z"/>
            <path class="cls-13" d="M852.62,1126.94c-19.08,9.77-23,32.87-23,32.87l-11.57-76,29.46-1Z"/>
          </g>
          <rect class="cls-27" x="474.37" y="1053.93" width="473.49" height="29.85" rx="12.38"/>
        </g>
        <path class="cls-3" d="M2395.05,1625.74H2286.19c-5.84-5,4-16.18,14.35-16.94,4.48-.34,10.14.6,16.61,2,1.5-19.9,10.06-109.35,42.3-105.76,36.25,4,0,39.4-10.25,60.34-7.59,15.5-15.6,37.75-19.26,48.24,2.94.64,6,1.27,9.1,1.84,4.81-14.75,22.69-64.38,45.42-61.49,26.7,3.38,16,23.28-2.95,35.09-13.88,8.69-30.93,21-39,27a115.55,115.55,0,0,0,21.29,1.7C2382.42,1617.29,2391.52,1622.79,2395.05,1625.74Z"/>
        <path class="cls-3" d="M298.15,1625.74H407c5.84-5-4-16.18-14.35-16.94-4.48-.34-10.14.6-16.62,2-1.49-19.9-10.05-109.35-42.29-105.76-36.26,4,0,39.4,10.25,60.34,7.59,15.5,15.6,37.75,19.26,48.24-2.95.64-6,1.27-9.11,1.84-4.8-14.75-22.68-64.38-45.42-61.49-26.69,3.38-16,23.28,3,35.09,13.88,8.69,30.93,21,39,27a115.73,115.73,0,0,1-21.3,1.7C310.78,1617.29,301.67,1622.79,298.15,1625.74Z"/>
        <g>
          <path class="cls-5" d="M1302.35,1460.14c4.67,23.42,10.39,43.69,17,61.21,51.55,135.82,159,106.54,263.9,106.54,118.41,0,118.18-79.32,118.18-186.54s-65.59-192.41-184-192.41S1281.41,1355,1302.35,1460.14Z"/>
          <g>
            <path class="cls-6" d="M1773.54,1476.2c.74-108.62-78.25-195.89-183.7-224.86-107.62-29.55-197,42.75-196.82,148.1.17,105.83,91.39,210.65,200.54,224.73C1699.13,1637.8,1772.82,1581.86,1773.54,1476.2Z"/>
            <path class="cls-28" d="M1764.06,1473.58c.7-103.21-74.35-186.13-174.55-213.66-102.25-28.08-187.17,40.62-187,140.72.16,100.56,86.84,200.16,190.55,213.54C1693.36,1627.13,1763.38,1574,1764.06,1473.58Z"/>
            <g>
              <path class="cls-5" d="M1581.57,1413.13l29.33-110.37c2.18-8.21-4.22-17.89-13.12-19.83a231.55,231.55,0,0,0-86.22-2.85c-8.27,1.28-11.58,10.56-6.7,18.79l67.66,114.07C1575,1417,1580.5,1417.14,1581.57,1413.13Z"/>
              <path class="cls-5" d="M1607,1447l110,68.73c8.18,5.11,17.53,2,19.14-6.5a221.53,221.53,0,0,0,4-40.82,277.09,277.09,0,0,0-4-46.52c-1.54-8.93-10.82-15.57-18.78-13.45l-110.37,29.36C1602.9,1438.86,1603,1444.52,1607,1447Z"/>
              <path class="cls-5" d="M1600.19,1426.58l108.74-28.92c8.1-2.16,10.65-11.94,5.21-20.05a311.7,311.7,0,0,0-28.26-36.27,352.5,352.5,0,0,0-36.69-34.72c-7.45-6.08-17.25-4.32-19.85,3.54l-36,109C1592,1423.09,1596.23,1427.63,1600.19,1426.58Z"/>
              <path class="cls-5" d="M1589.72,1457.23l33.63,121.44c2.51,9,12.3,15,20.08,12.13a182.78,182.78,0,0,0,34.57-16.75,197.17,197.17,0,0,0,32.66-25.91c5.66-5.59,3.48-16.25-4.42-21.58l-109.52-73.91C1592.8,1450,1588.5,1452.82,1589.72,1457.23Z"/>
              <path class="cls-5" d="M1563,1416.45l-73.47-108.8c-5.47-8.1-16.06-10.31-21.7-4.51a178.08,178.08,0,0,0-23.54,29.95,211.13,211.13,0,0,0-18.53,38.4c-2.81,7.75,3,17.59,11.72,19.92l121.19,32.3C1563,1424.86,1565.7,1420.41,1563,1416.45Z"/>
              <path class="cls-5" d="M1558.67,1433.66,1439,1412.84c-8.9-1.54-15.35,5.6-13.19,14.67a278,278,0,0,0,13.63,42.14A335.34,335.34,0,0,0,1462,1514c5,8.19,15.42,10.78,21.15,5.26l79.4-76.54C1565.42,1440,1563,1434.41,1558.67,1433.66Z"/>
              <path class="cls-5" d="M1569.42,1452.22l-64.55,88.28c-4.8,6.57-1.41,17.26,7,21.9a282.39,282.39,0,0,0,40.4,18.51,289.07,289.07,0,0,0,45.78,12.33c8.77,1.58,15-5.56,12.72-14.47l-32.26-123.41C1577.34,1450.94,1571.76,1449,1569.42,1452.22Z"/>
            </g>
          </g>
        </g>
        <g>
          <path class="cls-21" d="M1305.68,899.58c.49-2-42.8,19.57-45,22-20.3,22.52-14.52,51.91-2.9,52.19,7.45.18,6,12.57,6,12.57l83-35.11S1336.81,893,1305.68,899.58Z"/>
          <path class="cls-21" d="M1315.9,904.13s3-32.34-33.16-32.34c0,0,10.94,3,16.61,8.91,0,0-23-13.53-48.12,7.26s-9.5,72.93-17.13,82.83-37.32,11.88-33.69,43.88,94.25,72.1,88.43,98.58c0,0,35.52-52.2,10.12-76,0,0,12.38,11.66,13.64,25.52,0,0,3.36-27.06-13.86-35.71-15.23-7.66-27.72-35.67-26.4-40.68S1315.9,904.13,1315.9,904.13Z"/>
          <path class="cls-24" d="M1283.09,1056.27c-5.57-26.83-40.36-35.15-56.81-13.24a29,29,0,0,0-5.73,14.09c-3.75,30.46,44.94,154.5,51.91,165.73,12.7,20.45,87.45,90.54,87.45,90.54l13.78-8.35s-53-89.76-61.23-98.16C1303,1197.16,1293.67,1107.21,1283.09,1056.27Z"/>
          <path class="cls-24" d="M1354.67,1305.08s20.11-13.2,27.72-12.35,29.65,7.19,29.91,10.43-24.54,5.26-26.21,7-18.52,13-24.63,9.49S1354.67,1305.08,1354.67,1305.08Z"/>
          <path class="cls-23" d="M1214.41,1603.35l-18-2.64s-60.4-48-69.39-137.56a159.77,159.77,0,0,1-.43-27.69,4.84,4.84,0,0,0-.63-3.06l0,0c-1.93-3-6.75-10.39-13.26-21-6.42-10.4-17.41-30.07-29.5-52.14-21.78-39.74-47.13-87.27-55.83-102.41-27.71-48.25-14.35-80.69-14.35-80.69s77.3-7.64,98.49-26.17l7.63,11.76s16.75,74.15,15.95,74.49q1.25,3.78,2.52,7.7c13.22,40.8,28.42,91.8,36.71,133.33,4.66,23.37,7.13,43.73,5.8,57.6-.45,4.76.1,12.07,1.37,21.1C1189,1509.22,1214.41,1603.35,1214.41,1603.35Z"/>
          <path class="cls-16" d="M1252.09,1626.08h-74.94s-1.8-11.42,2.12-20.09c3.75-8.31,9.1-8.58.68-21.61,4.76,4.9,20.07,6.93,30.91,5.47,1.32,2.15,8.56,16.59,13,19.78C1228.75,1613.15,1250.59,1611.89,1252.09,1626.08Z"/>
          <path class="cls-4" d="M1137.63,1244c-6.55,36.11-22,96.2-54.41,115.32-21.78-39.74-47.13-87.27-55.83-102.41-27.71-48.25-14.35-80.69-14.35-80.69s77.3-7.64,98.49-26.17l7.63,11.76s16.75,74.15,15.95,74.49Q1136.36,1240.05,1137.63,1244Z"/>
          <path class="cls-18" d="M1275.08,1039.62s10.59,11,15.43,24.22c0,0-16.9,48.54-56.41,54.63C1234.1,1118.47,1265.36,1039.6,1275.08,1039.62Z"/>
          <path class="cls-23" d="M1085.07,1181.77l.25-14c-27.93,3.52-96.29-33.37-96.29-33.37s-29.22,19.43-33.22,74.92c-1.95,27.09-14.3,141.64-15.67,175.85-.5,12.4-.66,21.25-.72,24.78a.08.08,0,0,1,0,0,4.92,4.92,0,0,1-1.19,2.88,160.17,160.17,0,0,0-15.13,23.2c-42.62,79.28-20.33,187-20.33,187l9.89-2.52s36-111.68,59.59-160c4-8.2,7.62-14.57,10.66-18.26,8.86-10.75,18.19-29,27.4-51,17.39-41.55,34.28-96.39,46.33-138.85C1057.5,1252.61,1085.07,1181.77,1085.07,1181.77Z"/>
          <path class="cls-22" d="M1248.49,1088.22c-45.65-10.48-16.48-74.64-13.84-73.51,6.33-1.29,20.22-12.39,32.65-34.08l1.68,1.45,28,24.59s-6.48,9.56-11.94,18.92c-4.26,7.33-7.88,14.56-7.3,17C1280,1044.4,1260.67,1091,1248.49,1088.22Z"/>
          <path class="cls-24" d="M1297,1006.67s-6.49,9.55-11.94,18.93c-17.43-10.75-17.45-32.33-16.11-43.51Z"/>
          <path class="cls-22" d="M1297.8,1019s-42.33-23.56-27.26-49.69,19.76-46.78,47.43-32.85,27.11,26.91,24.2,36.86S1309.19,1024.44,1297.8,1019Z"/>
          <path class="cls-21" d="M1349.32,958.06c-1.94-11.6-7.83-12.71-11.94-11.93-15.63-25.85-41.17-15.76-41.17-15.76-13.64,17.11-33.37,20-33.37,20s4.92,9.14,25.15,14.79c6.19,1.73,13.2.68,20-1.59a113.18,113.18,0,0,1-28.72,10.82c26.67,2.45,52-21.94,54.67-24.55,1.23,3.78,3.39,11.69,2.1,17.48-1.75,7.86-8.73,22.09-4.47,23.93C1331.54,991.29,1352.23,975.47,1349.32,958.06Z"/>
          <path class="cls-16" d="M962.37,1626.08H887.43s-1.8-11.42,2.12-20.09c3.75-8.31,9.62-12.09,8.22-22.15,4.76,4.9,12.52,10.39,23.36,8.93,1.32,2.16,8.57,13.67,13,16.86C939,1613.15,960.87,1611.89,962.37,1626.08Z"/>
          <path class="cls-18" d="M1253.87,1139.08c-9.65,3.36-23.18,5.2-37,6.71-19.7,2.15-40,3.62-50.71,7.87-3.89,1.55-6.49,3.46-7.3,5.91-4.62,13.89-25,35.33-25,35.33C1003.35,1189,989,1134.38,989,1134.38c87.8-102.1,236.46-131.65,236.46-131.65s10.62-4.5,37.36,16.75c17.84,14.19,15.49,19.63,15.49,19.63S1282.24,1129.18,1253.87,1139.08Z"/>
          <path class="cls-19" d="M1216.84,1145.79c-19.7,2.15-40,3.62-50.71,7.87-4.35-65.09,26.36-114,26.36-114S1212.53,1121.16,1216.84,1145.79Z"/>
          <path class="cls-22" d="M1237.12,1027s-49.38,4.88-53.34,37,47.35,162.81,54.7,174.64c13.37,21.55,92.15,95.41,92.15,95.41l14.52-8.8s-55.88-94.59-64.53-103.44C1267,1207.91,1253.85,1038.14,1237.12,1027Z"/>
          <path class="cls-18" d="M1185.2,1083.31c.13.73,45.58,14.84,74.83,0,0,0,6.26-67.49-28.66-63.83s-55.6,14.66-56.48,31.38S1185.2,1083.31,1185.2,1083.31Z"/>
          <path class="cls-22" d="M1326.14,1324.67s17.72-16.27,25.37-16.66,30.41,2.32,31.2,5.47-23.38,9.15-24.74,11.17-16.18,15.83-22.77,13.33S1326.14,1324.67,1326.14,1324.67Z"/>
        </g>
        <rect class="cls-29" y="1624.96" width="2726.68" height="7.23" rx="3.07"/>
      </g>
    </g>
  </g>
</svg>
