<?xml version="1.0" encoding="utf-8"?>
<!-- Generator: Adobe Illustrator 26.2.1, SVG Export Plug-In . SVG Version: 6.00 Build 0)  -->
<svg version="1.1" id="Ebene_1" xmlns="http://www.w3.org/2000/svg" xmlns:xlink="http://www.w3.org/1999/xlink" x="0px" y="0px"
	 viewBox="0 0 16 16" style="enable-background:new 0 0 16 16;" xml:space="preserve">
<path d="M13.4,3c-0.1,0-0.2,0-0.3,0c0.3-0.3,0.5-0.6,0.7-0.9l0,0c0-0.1,0.1-0.1,0.1-0.1c0.1-0.3,0.3-0.5,0-0.8
	c-0.6-0.2-1,0.2-1.5,0.5c0-0.3,0.1-0.5,0.2-0.7c0.1-0.3,0.1-0.5-0.2-0.7c-0.2-0.2-0.4-0.1-0.6,0c-0.6,0.6-0.8,1.4-1.1,2.1
	c-0.2,0.5-0.3,1.1-0.4,1.6c0,0.2-0.1,0.3-0.1,0.5C10.1,4.9,10,4.9,9.7,4.8C9.3,4.6,8.9,4.7,8.6,4.9c-0.8,0.4-1.4,1-2,1.7
	c-1.2,1.2-2,2.7-2.7,4.2c-0.2,0.4-0.3,0.8-0.5,1.2c-0.3,0.8-0.5,1.5-0.7,2.3c0,0.1-0.1,0.2-0.1,0.4c-0.1,0.3-0.2,0.6-0.2,0.9
	c-0.1,0.3,0.1,0.5,0.4,0.4c0.1,0,0.2-0.1,0.3-0.1c0.3-0.2,0.5-0.3,0.8-0.5c0.6-0.5,1.2-0.9,1.8-1.4c1.8-1.5,3.4-3,4.9-4.8
	c0,0,0-0.1,0.1-0.1c0.3-0.4,0.6-0.9,0.9-1.4c0.2-0.5,0.4-1,0.1-1.5c-0.1-0.1,0-0.2,0.1-0.3c0.7-0.5,1.3-0.9,2-1.5
	c0.1-0.1,0.3-0.3,0.4-0.5C14,3.7,14.1,3.4,14,3.2C13.9,3,13.6,2.9,13.4,3z M11.6,5.1c-0.4,0.4-0.4,0.4-0.9,0c0,0-0.1-0.1-0.1-0.1
	c-0.1,0-0.1-0.1-0.1-0.1c0-0.1,0.1-0.1,0.1-0.2c0,0,0.1-0.1,0.1-0.1l0,0c0-0.3,0.1-0.5,0.2-0.8C11,3.5,11,3.2,11.1,2.9
	c0-0.1,0-0.2,0.1-0.3c0.2-0.8,0.4-1.3,0.8-1.8c0,0,0,0,0,0c0,0,0-0.1,0.1-0.1c0,0.4-0.1,0.8-0.2,1.1l0,0c-0.1,0.4-0.3,0.9-0.5,1.3
	c0,0.1-0.1,0.2-0.1,0.3c0,0.1,0.1,0.1,0.1,0.2c0.1,0.1,0.2,0.1,0.3,0c0.1,0,0.2-0.1,0.2-0.2c0,0,0-0.1,0-0.1c0-0.1,0.1-0.1,0.1-0.2
	c0.1-0.7,0.7-1.1,1.3-1.5l0.1-0.1c0,0,0,0,0.1,0c0,0,0,0,0,0.1c0,0.1,0,0.2-0.1,0.3c-0.2,0.3-0.4,0.5-0.6,0.8
	c-0.4,0.5-0.7,1-1.2,1.4c-0.1,0.1-0.2,0.1-0.1,0.3c0.1,0.1,0.2,0.2,0.3,0.2c0.1,0,0.2,0,0.3-0.1c0.3-0.5,0.8-0.8,1.3-1
	c0.1,0,0.2,0,0.2,0c0.1,0.1,0,0.1,0,0.2C13.4,3.8,13.2,4,13,4.1c-0.2,0.2-0.5,0.4-0.8,0.6C12.1,4.8,12,4.9,12,4.9h0
	C11.9,5,11.7,5.1,11.6,5.1L11.6,5.1z M10.2,8.3C10.1,8.2,10,8.1,9.9,8C9.8,8,9.5,7.8,9.4,8.1C9.3,8.3,9.3,8.5,9.5,8.6
	c0.1,0.1,0.2,0.1,0.3,0.2c0,0,0,0,0,0c0,0,0,0,0,0c-0.5,0.5-1,1.1-1.4,1.6c0,0,0,0,0,0c0,0,0,0,0,0c-0.1-0.1-0.3-0.2-0.4-0.3
	c-0.2-0.1-0.3-0.1-0.4,0.1c-0.1,0.1-0.1,0.3,0,0.4c0.1,0.1,0.2,0.2,0.4,0.3c0,0,0,0,0,0c0,0,0,0,0,0c-0.2,0.2-0.5,0.4-0.7,0.7
	c-0.9,0.9-1.8,1.7-2.8,2.5c-0.1,0.1-0.2,0.1-0.3,0C4,14,3.9,13.9,3.8,14c-0.1,0-0.1,0-0.2,0.1c-0.1,0.1-0.2,0.3,0.1,0.5c0,0,0,0,0,0
	c0,0,0,0-0.1,0C3.4,14.7,3.1,15,3,15c0,0,0,0,0,0C3,15,3,15,3,15c0-0.5,0.2-0.9,0.4-1.4c0.1-0.2,0.1-0.4,0.2-0.6
	c0.1,0.1,0.2,0.1,0.3,0.2c0.2,0.1,0.3,0.1,0.4,0c0.1-0.2,0-0.3,0-0.4c-0.1-0.1-0.2-0.2-0.2-0.2c0,0-0.1-0.1-0.1-0.1
	c-0.1-0.1-0.1-0.1-0.1-0.2L4,11.6c0.5-1.1,1.1-2.3,1.8-3.4C5.9,8.2,6,8.1,6,8.1c0,0,0.1,0.1,0.2,0.1c0.1,0.1,0.3,0.2,0.5,0.3
	c0.1,0,0.2,0.1,0.4,0c0.2-0.2,0-0.4,0-0.4C7,7.9,6.8,7.7,6.5,7.6c-0.1,0-0.1,0-0.1,0c0,0,0,0,0.1-0.1l0.1-0.1C7,6.9,7.4,6.4,8,6
	c0.4-0.4,0.8-0.6,1.1-0.7c0.7-0.1,1.2,0.3,1.6,0.6c0.4,0.4,0.5,0.9,0.2,1.4c-0.1,0.2-0.2,0.5-0.4,0.7c-0.1,0.1-0.1,0.2-0.2,0.3
	C10.3,8.3,10.3,8.3,10.2,8.3C10.2,8.3,10.2,8.3,10.2,8.3z"/>
</svg>
