<?xml version="1.0" standalone="no"?>
<!DOCTYPE svg PUBLIC "-//W3C//DTD SVG 1.1//EN" "http://www.w3.org/Graphics/SVG/1.1/DTD/svg11.dtd" >
<!--
2022-3-8: Created with FontForge (http://fontforge.org)
-->
<svg xmlns="http://www.w3.org/2000/svg" xmlns:xlink="http://www.w3.org/1999/xlink" version="1.1">
<metadata>
Created by FontForge 20170731 at Tue Mar  8 10:39:56 2022
 By Lionel,,,
orioniconlibrary.com
</metadata>
<defs>
<font id="eatable-iconfont" horiz-adv-x="496" >
  <font-face 
    font-family="eatable-iconfont"
    font-weight="400"
    font-stretch="normal"
    units-per-em="512"
    panose-1="2 0 5 3 0 0 0 0 0 0"
    ascent="448"
    descent="-64"
    bbox="-0.5 -56.0605 497.552 440.546"
    underline-thickness="25.6"
    underline-position="-51.2"
    unicode-range="U+0020-FBAB"
  />
    <missing-glyph />
    <glyph glyph-name="angle-down-1" unicode="&#x6c0;" horiz-adv-x="208" arabic-form="final" 
d="M2 246c-1 -1 -2 -4 -2 -6c0 -5 100 -120 104 -120s104 115 104 120c0 4 -4 8 -8 8c-2 0 -22 -22 -49 -53c-25 -29 -46 -53 -47 -53s-22 24 -47 53c-27 31 -47 53 -49 53s-5 -1 -6 -2z" />
    <glyph glyph-name="angle-up-1" unicode="&#x6c1;" horiz-adv-x="208" arabic-form="initial" 
d="M50 190c-28 -32 -50 -60 -50 -62c0 -4 4 -8 8 -8c2 0 22 22 49 53c25 29 46 53 47 53s22 -24 47 -53c27 -31 47 -53 49 -53c4 0 8 4 8 8c0 5 -100 120 -104 120c-2 0 -22 -20 -54 -58z" />
    <glyph glyph-name="angle-right-1" unicode="&#x6c1;" horiz-adv-x="128" arabic-form="final" 
d="M2 294c-1 -1 -2 -4 -2 -6s22 -22 53 -49c29 -25 53 -46 53 -47s-24 -22 -53 -47c-31 -27 -53 -47 -53 -49c0 -4 4 -8 8 -8c5 0 120 100 120 104s-115 104 -120 104c-2 0 -5 -1 -6 -2z" />
    <glyph glyph-name="heart-2" unicode="&#x6be;" horiz-adv-x="480" arabic-form="isolated" 
d="M480 288l-1 -1c0 -5 0 -12 -1 -17v-2c-1 -5 -3 -12 -4 -17c-27 -94 -149 -205 -234 -275c-85 71 -207 174 -234 276c-3 10 -6 26 -6 36v3c2 64 56 117 120 117v0c52 0 103 -33 120 -80c17 46 68 80 120 80c66 0 120 -54 120 -120z" />
    <glyph glyph-name="close-1" unicode="&#x67a;" horiz-adv-x="192" arabic-form="isolated" 
d="M2 294c-1 -1 -2 -4 -2 -6s19 -22 42 -45l43 -43l-43 -43c-23 -23 -42 -43 -42 -45c0 -4 4 -8 8 -8c2 0 22 19 45 42l43 43l43 -43c23 -23 43 -42 45 -42s5 1 6 2s2 4 2 6s-19 22 -42 45l-43 43l43 43c23 23 42 43 42 45c0 4 -4 8 -8 8c-2 0 -22 -19 -45 -42l-43 -43
l-43 43c-23 23 -43 42 -45 42s-5 -1 -6 -2z" />
    <glyph glyph-name="url-1" unicode="&#x6be;" arabic-form="final" 
d="M362 437c23 6 52 3 76 -8c15 -7 38 -31 46 -47c18 -36 16 -78 -6 -110c-4 -5 -36 -38 -71 -73c-47 -47 -67 -66 -76 -71c-10 -6 -13 -9 -19 -19c-8 -15 -129 -137 -146 -148c-24 -15 -58 -21 -84 -14c-39 10 -69 41 -79 80c-7 26 -1 61 15 85c4 5 36 38 71 73
c47 47 67 66 76 71c10 6 13 9 19 19c5 8 24 29 62 68c77 78 87 86 116 94zM364 421c-6 -2 -15 -6 -21 -9c-10 -6 -145 -139 -143 -141c0 0 8 0 16 1l14 1l56 55c66 65 69 67 97 67c15 0 19 0 29 -5c14 -7 27 -20 34 -34c4 -10 5 -14 5 -29c0 -29 -1 -30 -75 -104
c-72 -72 -70 -70 -101 -70c-16 0 -20 1 -29 6c-19 10 -30 24 -36 46l-3 11l-11 -5c-10 -5 -10 -6 -9 -12c5 -24 25 -49 48 -60c28 -14 54 -14 82 0c13 6 20 13 80 73c37 37 69 71 72 76c14 24 14 58 2 83c-10 21 -22 33 -42 43c-15 8 -18 8 -35 9c-13 0 -23 0 -30 -2z
M364 377c-7 -3 -18 -13 -62 -56l-52 -52l15 -8c21 -10 40 -29 50 -48c4 -8 7 -14 7 -16s1 -3 2 -3s24 23 53 52c46 46 53 54 56 63c9 28 -3 55 -29 67c-11 5 -27 5 -40 1zM202 254c-5 -1 -15 -5 -23 -9c-13 -6 -20 -13 -80 -73c-37 -37 -69 -71 -72 -76
c-8 -14 -12 -33 -11 -52c3 -45 39 -80 84 -83c20 -1 38 2 53 11c10 6 145 139 143 141c0 0 -8 0 -16 -1l-14 -1l-57 -56c-67 -65 -69 -66 -96 -66c-15 0 -19 1 -29 5c-14 7 -27 20 -34 34c-4 10 -5 14 -5 29c0 29 0 29 74 103c59 59 65 64 76 68c17 6 40 5 55 -3
c19 -10 30 -24 36 -46l3 -11l11 5c10 5 10 6 9 12c-5 24 -25 49 -48 60c-21 10 -38 13 -59 9zM225 210c3 -16 15 -31 31 -38c14 -6 17 -6 15 2c-3 16 -15 31 -31 38c-14 6 -17 6 -15 -2zM119 138c-46 -46 -53 -54 -56 -63c-12 -37 15 -74 52 -71c20 1 26 6 81 61l50 50
l-15 8c-21 10 -40 29 -50 48c-4 8 -7 14 -7 16s-1 3 -2 3s-24 -23 -53 -52z" />
    <glyph glyph-name="angle-left-1" unicode="&#x6c1;" horiz-adv-x="128" arabic-form="isolated" 
d="M58 246c-38 -32 -58 -52 -58 -54c0 -4 115 -104 120 -104c4 0 8 4 8 8c0 2 -22 22 -53 49c-29 25 -53 46 -53 47s24 22 53 47c31 27 53 47 53 49c0 4 -4 8 -8 8c-2 0 -30 -22 -62 -50z" />
    <glyph glyph-name="external-link-1" unicode="&#x6c1;" arabic-form="medial" 
d="M2 437c3 4 488 5 492 1s3 -489 -1 -492c-2 -2 -38 -2 -134 -2c-123 0 -132 1 -134 4s-2 5 0 8s11 4 129 4h126v232v232h-232h-232v-126c0 -118 -1 -127 -4 -129s-5 -2 -8 0s-4 11 -4 134c0 96 0 132 2 134zM50 150c-3 -3 -3 -9 0 -12c2 -2 20 -2 67 -2h64l-91 -91
c-50 -50 -90 -91 -90 -93c0 -4 4 -8 8 -8c2 0 44 40 93 90l90 90l1 -64c1 -58 1 -65 4 -67s5 -2 8 0s4 9 4 78c0 54 0 76 -2 78c-3 4 -152 5 -156 1z" />
    <glyph glyph-name="space" unicode=" " horiz-adv-x="200" 
 />
    <glyph glyph-name="plus-1" unicode="&#xfb42;" horiz-adv-x="352" 
d="M147 366c3 3 56 3 59 0c2 -2 2 -21 2 -72v-70h70c51 0 70 0 72 -2c3 -3 3 -57 0 -60c-2 -2 -21 -2 -72 -2h-70v-70c0 -51 0 -70 -2 -72c-3 -3 -56 -3 -59 0c-2 2 -3 21 -3 72v70h-69c-51 0 -70 0 -72 2c-3 3 -3 57 0 60c2 2 21 2 72 2h69v70c0 51 1 70 3 72zM160 282
c0 -51 0 -70 -2 -72s-21 -2 -72 -2h-70v-16v-16h70c51 0 70 0 72 -2s2 -21 2 -72v-70h16h16v70c0 51 1 70 3 72s21 2 72 2h69v16v16h-69c-51 0 -70 0 -72 2s-3 21 -3 72v70h-16h-16v-70z" />
    <glyph glyph-name="heart-1" unicode="&#xfb3b;" 
d="M100 413c30 7 68 0 97 -16c15 -9 38 -29 45 -41c3 -4 5 -8 6 -8s3 4 6 8c7 12 30 32 45 41c55 31 117 23 159 -19c32 -32 44 -73 35 -123c-15 -87 -87 -175 -218 -269c-13 -10 -26 -18 -27 -18c-6 0 -70 47 -109 82c-91 80 -139 162 -139 237c0 60 43 113 100 126z
M105 398c-18 -3 -41 -16 -56 -31c-28 -28 -38 -64 -30 -109c14 -81 83 -166 204 -254l25 -18l23 16c90 65 157 135 186 195c14 29 23 64 23 89c0 44 -25 84 -63 102c-35 17 -68 16 -105 -2c-22 -11 -42 -31 -52 -51c-6 -12 -8 -14 -12 -14s-6 2 -12 14
c-22 45 -79 73 -131 63z" />
    <glyph glyph-name="cooking-pot-1" unicode="&#xfb30;" 
d="M232 349c14 6 31 2 43 -9c8 -8 11 -14 11 -27l1 -12l14 -2c33 -6 78 -27 112 -50l18 -12l1 -15v-14h9c8 0 9 1 10 6c3 17 37 34 44 22c3 -5 -1 -11 -10 -13c-10 -2 -18 -10 -20 -19c-2 -11 -4 -12 -19 -12h-14v-34c0 -38 -3 -52 -13 -71c-8 -16 -26 -34 -42 -42
c-23 -12 -28 -13 -129 -13s-106 1 -129 13c-16 8 -35 26 -43 42c-10 19 -12 33 -12 71v34h-14c-15 0 -17 1 -19 12c-2 9 -10 17 -20 19c-9 2 -13 8 -10 13c7 12 41 -5 44 -22c1 -5 2 -6 10 -6h9v14l1 15l18 12c34 23 86 46 115 50l10 2v10c0 17 9 31 24 38zM235 333
c-7 -4 -11 -13 -11 -22v-7h23c21 0 23 0 24 4c2 7 -4 18 -11 23c-8 5 -17 6 -25 2zM209 285c-10 -2 -26 -5 -35 -8c-18 -5 -61 -26 -70 -33l-5 -4h150h150l-12 7c-55 34 -118 47 -178 38zM80 175c0 -52 1 -62 11 -81c6 -13 22 -29 35 -35c21 -10 26 -11 121 -11
c58 0 92 1 99 2c24 5 49 23 59 44c10 19 11 29 11 81v49h-168h-168v-49z" />
    <glyph glyph-name="fridge-1" unicode="&#xfb39;" horiz-adv-x="335" 
d="M26 438c4 1 61 1 145 1h138l7 -5c4 -3 10 -9 13 -13l6 -8v-221v-221l-6 -9c-3 -5 -9 -11 -13 -13l-7 -4h-141h-141l-8 5c-4 3 -10 9 -13 13l-5 8l-1 217c0 149 1 219 2 224c3 10 15 23 24 26zM31 422c-2 -1 -6 -4 -9 -7l-5 -5l-1 -81v-81h152h152l-1 81v81l-7 6l-6 7
h-136c-75 0 -137 0 -139 -1zM66 373c3 4 8 4 11 0c2 -2 2 -13 2 -38c0 -31 -1 -36 -4 -38s-4 -2 -7 0s-4 7 -4 38c0 25 0 36 2 38zM16 103l1 -129l6 -6l7 -7h138h138l6 7l7 6v129l1 129h-152h-152v-129zM66 181c-2 -2 -2 -16 -2 -46c0 -39 1 -44 4 -46s4 -2 7 0s4 7 4 46
c1 45 0 49 -7 49c-2 0 -5 -1 -6 -3z" />
    <glyph glyph-name="invoice-1" unicode="&#xfb3f;" horiz-adv-x="352" 
d="M2 438c1 1 4 2 5 2s13 -7 26 -15l23 -15l23 15c13 8 24 15 25 15s12 -7 25 -15l23 -15l23 15c13 8 24 15 25 15s12 -7 25 -15l23 -15l22 15c12 8 24 15 26 15s14 -11 29 -26l27 -27v-219c0 -225 0 -224 -7 -224c-1 0 -13 7 -26 15l-23 15l-23 -15c-13 -8 -24 -15 -25 -15
s-12 7 -25 15l-23 15l-23 -15c-13 -8 -24 -15 -25 -15s-12 7 -25 15l-23 15l-22 -15c-12 -8 -24 -15 -26 -15s-14 11 -29 26l-27 27v219c0 168 0 220 2 222zM81 407c-12 -8 -24 -15 -25 -15s-10 5 -20 12s-18 12 -19 12s-1 -93 -1 -207v-206l20 -20c11 -11 21 -19 22 -19
s12 6 23 14s22 14 23 14s13 -7 26 -15l22 -15l23 15c13 8 24 15 25 15s13 -7 26 -15l22 -15l23 15c13 8 24 15 25 15s11 -5 21 -12l18 -12l1 206v207l-19 19c-11 11 -22 20 -23 20s-12 -6 -23 -14s-22 -14 -23 -14s-12 7 -25 15l-23 15l-22 -15c-13 -8 -25 -15 -26 -15
s-11 6 -23 14s-23 15 -24 15s-12 -6 -24 -14zM66 294c2 2 20 2 71 2c62 0 68 -1 70 -4s2 -5 0 -8s-8 -4 -70 -4c-48 0 -68 0 -70 2c-3 3 -4 9 -1 12zM258 294c4 4 26 2 29 -2c2 -3 2 -5 0 -8c-3 -4 -24 -6 -28 -2c-3 3 -4 9 -1 12zM66 230c2 2 16 2 55 2c47 0 52 -1 54 -4
s2 -5 0 -8s-7 -4 -54 -4c-36 0 -52 0 -54 2c-3 3 -4 9 -1 12zM258 230c4 4 26 2 29 -2c2 -3 2 -5 0 -8c-3 -4 -24 -6 -28 -2c-3 3 -4 9 -1 12zM66 166c2 2 20 2 71 2c62 0 68 -1 70 -4s2 -5 0 -8s-8 -4 -70 -4c-48 0 -68 0 -70 2c-3 3 -4 9 -1 12zM258 166c4 4 26 2 29 -2
c2 -3 2 -5 0 -8c-3 -4 -24 -6 -28 -2c-3 3 -4 9 -1 12zM66 102c2 2 16 2 55 2c47 0 52 -1 54 -4s2 -5 0 -8s-7 -4 -54 -4c-36 0 -52 0 -54 2c-3 3 -4 9 -1 12zM258 102c-3 -3 -2 -9 1 -12c4 -4 25 -2 28 2c2 3 2 5 0 8c-3 4 -25 6 -29 2z" />
    <glyph glyph-name="export-1" unicode="&#xfb36;" horiz-adv-x="488" 
d="M3 406c4 4 264 3 267 -1c2 -2 2 -22 2 -70c0 -62 -1 -68 -4 -70s-4 -2 -7 0s-4 8 -4 65l-1 62h-120h-120v-200v-200h120h120l1 62c0 57 1 63 4 65s4 2 7 0s4 -8 4 -70c0 -48 0 -68 -2 -70c-3 -4 -263 -5 -267 -1c-3 3 -3 425 0 428zM371 286c-1 -1 -3 -4 -3 -6
s19 -20 45 -42l45 -38h-179c-168 0 -180 -1 -182 -4s-2 -5 0 -8s14 -4 182 -4h179l-45 -38c-26 -22 -45 -40 -45 -42c0 -4 4 -8 8 -8c5 0 112 92 112 96s-107 96 -112 96c-2 0 -4 -1 -5 -2z" />
    <glyph glyph-name="guide-1" unicode="&#xfb3a;" 
d="M322 422c3 3 105 3 108 0c1 -1 2 -8 2 -16v-14h30c20 0 30 0 32 -2c3 -3 3 -361 0 -364c-2 -2 -26 -2 -96 -2c-105 0 -107 0 -123 -14c-11 -9 -16 -21 -18 -36c-3 -19 -15 -19 -18 0c-2 15 -7 27 -18 36c-16 14 -18 14 -123 14c-70 0 -94 0 -96 2s-2 45 -2 182
c0 151 1 180 3 182s28 2 100 2l98 -1l12 -6c12 -5 30 -21 34 -29c1 -3 1 -3 2 0c1 2 6 7 11 13c12 13 29 22 47 23l13 1v13c0 8 1 15 2 16zM336 332c0 -42 0 -76 1 -76s9 5 19 12s19 12 21 12s7 -4 13 -8s14 -9 18 -12l8 -4v76v76h-40h-40v-76zM16 208v-168h89
c105 0 106 -1 127 -20l8 -7v157c0 181 1 171 -17 189c-17 17 -16 17 -119 17h-88v-168zM293 373c-7 -2 -13 -7 -20 -14c-18 -18 -17 -8 -17 -189v-157l8 7c4 4 12 10 19 13l12 6l93 1h92v168v168h-24h-24v-70c0 -71 0 -74 -7 -74c-1 0 -13 7 -26 15l-23 15l-23 -15
c-13 -8 -25 -15 -26 -15c-7 0 -7 3 -7 74v70h-8c-5 0 -14 -1 -19 -3zM66 310c2 2 18 2 63 2c54 0 60 -1 62 -4s2 -5 0 -8s-8 -4 -62 -4c-42 0 -60 0 -62 2c-3 3 -4 9 -1 12zM66 246c2 2 18 2 63 2c54 0 60 -1 62 -4s2 -5 0 -8s-8 -4 -62 -4c-42 0 -60 0 -62 2
c-3 3 -4 9 -1 12zM66 182c2 2 18 2 63 2c54 0 60 -1 62 -4s2 -5 0 -8s-8 -4 -62 -4c-42 0 -60 0 -62 2c-3 3 -4 9 -1 12zM306 182c2 2 18 2 63 2c54 0 60 -1 62 -4s2 -5 0 -8s-8 -4 -62 -4c-42 0 -60 0 -62 2c-3 3 -4 9 -1 12zM66 118c2 2 18 2 63 2c54 0 60 -1 62 -4
s2 -5 0 -8s-8 -4 -62 -4c-42 0 -60 0 -62 2c-3 3 -4 9 -1 12zM306 118c-3 -3 -2 -9 1 -12c2 -2 20 -2 62 -2c54 0 60 1 62 4s2 5 0 8s-8 4 -62 4c-45 0 -61 0 -63 -2z" />
    <glyph glyph-name="square-bulleted-list-1" unicode="&#xfb49;" 
d="M3 374c3 3 72 3 75 0s3 -73 0 -76s-72 -3 -75 0s-3 73 0 76zM16 336v-24h24h24v24v24h-24h-24v-24zM163 342c2 2 40 2 166 2c154 0 164 -1 166 -4s2 -5 0 -8s-13 -4 -166 -4c-119 0 -164 0 -166 2c-3 3 -3 9 0 12zM3 230c3 3 72 3 75 0s3 -73 0 -76s-72 -3 -75 0
s-3 73 0 76zM16 192v-24h24h24v24v24h-24h-24v-24zM163 198c2 2 40 2 166 2c154 0 164 -1 166 -4s2 -5 0 -8s-13 -4 -166 -4c-119 0 -164 0 -166 2c-3 3 -3 9 0 12zM3 86c2 2 12 2 37 2s36 0 38 -2c3 -3 3 -73 0 -76s-72 -3 -75 0s-3 73 0 76zM16 48v-24h24h24v24v24h-24
h-24v-24zM163 54c-3 -3 -3 -9 0 -12c2 -2 47 -2 166 -2c153 0 164 1 166 4s2 5 0 8s-12 4 -166 4c-126 0 -164 0 -166 -2z" />
    <glyph glyph-name="exit-1" unicode="&#xfb35;" horiz-adv-x="320" 
d="M19 332c11 11 21 20 23 20s28 -25 60 -57l58 -58l58 58c32 32 58 57 60 57c4 0 42 -38 42 -42c0 -2 -25 -28 -57 -60l-58 -58l58 -58c32 -32 57 -58 57 -60c0 -4 -38 -42 -42 -42c-2 0 -28 25 -60 57l-58 58l-58 -58c-32 -32 -58 -57 -60 -57c-4 0 -42 38 -42 42
c0 2 25 28 57 60l58 58l-58 58c-32 32 -57 58 -57 60s8 11 19 22zM30 321l-11 -11l58 -58c32 -32 57 -58 57 -60s-25 -28 -57 -60l-58 -58l12 -11l11 -12l58 58c32 32 58 57 60 57s28 -25 60 -57l58 -58l11 12l12 11l-58 58c-32 32 -57 58 -57 60s25 28 57 60l58 58l-12 11
l-11 12l-58 -58c-32 -32 -58 -57 -60 -57s-29 26 -60 57s-57 57 -58 57s-6 -5 -12 -11z" />
    <glyph glyph-name="radar-1" unicode="&#xfb43;" 
d="M242 438c3 3 19 3 42 -1c28 -4 46 -10 71 -22c52 -25 89 -61 114 -112c11 -22 12 -27 8 -30c-1 -1 -44 -18 -95 -38l-94 -36l-1 -11c-1 -13 -8 -23 -19 -30c-6 -4 -10 -5 -20 -5c-11 0 -15 1 -22 6c-15 10 -21 27 -16 45c3 10 15 23 24 25l6 1v103c0 77 0 103 2 105z
M165 425c21 8 18 8 23 5c4 -2 5 -9 1 -12c-1 -1 -9 -4 -17 -7c-44 -16 -82 -44 -111 -82c-12 -16 -30 -52 -36 -73c-16 -57 -10 -116 16 -168c57 -113 192 -160 306 -105c82 39 133 120 133 212c0 22 2 27 10 24c6 -2 6 -8 5 -36c-2 -39 -9 -70 -26 -103
c-43 -86 -135 -139 -232 -135c-38 2 -68 9 -101 26c-87 44 -141 136 -136 233c3 63 29 119 73 163c27 27 55 45 92 58zM256 327v-97l6 -1c3 -1 9 -4 13 -8l8 -7l86 33c48 18 88 34 89 35c3 2 -5 18 -19 40c-37 56 -101 94 -170 101l-13 1v-97zM172 305c13 8 11 8 16 5
c6 -3 4 -9 -4 -15c-26 -20 -41 -39 -50 -65c-7 -19 -7 -50 -1 -69c12 -41 43 -72 84 -84c8 -2 19 -4 32 -4c17 0 23 1 37 6c20 7 35 16 48 30c17 17 30 43 33 67c1 10 5 15 10 14c7 -1 7 -7 4 -24c-4 -19 -16 -45 -28 -59c-18 -22 -44 -39 -71 -46c-17 -5 -49 -4 -66 0
c-39 10 -72 36 -89 71c-12 25 -14 36 -14 63c0 19 1 25 6 40c3 10 9 22 13 28c8 14 26 32 40 42zM239 214c-9 -4 -14 -12 -14 -22c0 -8 0 -10 6 -16s9 -7 17 -7s11 1 16 6c10 10 10 25 -1 35c-5 5 -18 7 -24 4z" />
    <glyph glyph-name="store-1" unicode="&#xfb4a;" 
d="M77 404c3 3 14 4 171 4s167 -1 170 -4c2 -2 19 -30 37 -62s35 -61 37 -63c3 -4 4 -7 3 -17c-2 -23 -17 -45 -37 -54l-10 -5v-111c0 -84 -1 -112 -3 -114c-3 -3 -392 -3 -395 0c-2 2 -2 30 -2 114v111l-9 4c-20 8 -37 32 -39 55c-1 10 0 13 3 17c2 2 20 31 38 63
s34 60 36 62zM80 378c-4 -7 -17 -29 -28 -49s-23 -39 -25 -43l-3 -6h49h50l17 54c9 30 16 55 16 56s-12 2 -34 2h-34zM170 380c-2 -7 -9 -31 -16 -54s-13 -43 -14 -44c-1 -2 11 -2 50 -2h50v56v56h-33h-33zM256 336v-56h50c39 0 50 0 49 2c-1 1 -6 21 -13 44s-14 47 -16 54
l-4 12h-33h-33v-56zM340 390c0 -1 7 -26 16 -56l17 -54h49h50l-5 8c-3 5 -17 30 -32 56l-27 47l-34 1c-23 0 -34 -1 -34 -2zM17 258c3 -15 14 -30 28 -37c11 -6 35 -5 45 0c15 8 26 22 29 37l1 6h-52h-52zM137 258c3 -15 14 -30 28 -37c11 -6 35 -5 45 0c15 8 26 22 29 37
l1 6h-52h-52zM257 258c3 -15 14 -30 28 -37c11 -6 35 -5 45 0c15 8 26 22 29 37l1 6h-52h-52zM377 258c3 -15 14 -30 28 -37c11 -6 35 -5 45 0c15 8 26 22 29 37l1 6h-52h-52zM122 227c-9 -14 -34 -27 -51 -27h-7v-104v-104h104h104v86c0 64 0 86 2 88c3 3 104 3 107 0
c2 -2 3 -24 3 -88v-86h24h24v104v103l-11 2c-19 2 -36 11 -49 28l-4 6l-5 -6c-7 -10 -15 -17 -27 -23c-9 -5 -14 -5 -28 -5s-19 1 -28 5c-11 5 -20 12 -28 23l-4 6l-5 -6c-7 -10 -15 -17 -27 -23c-9 -5 -14 -5 -28 -5s-19 1 -28 5c-10 5 -30 22 -30 26s-4 2 -8 -5zM114 166
c3 3 120 3 123 0s3 -105 0 -108s-120 -3 -123 0s-3 105 0 108zM128 112v-40h48h48v40v40h-48h-48v-40zM288 72v-80h40h40v80v80h-40h-40v-80z" />
    <glyph glyph-name="detective-1" unicode="&#xfb33;" horiz-adv-x="497" 
d="M177 436c5 5 9 5 30 -5c24 -11 40 -17 46 -16c3 1 17 6 31 13c31 15 34 15 45 -2c4 -6 14 -28 24 -49l18 -38l22 -13c12 -7 35 -19 50 -26s29 -14 32 -15c6 -3 8 -10 4 -13c-2 -2 -60 -12 -87 -15l-11 -1l4 -5c5 -7 8 -26 7 -38c-2 -17 -17 -39 -28 -42
c-4 -1 -4 -4 -6 -13c-5 -27 -21 -57 -41 -76c-12 -11 -18 -14 -23 -10s-3 7 12 22c21 21 34 47 37 75c1 12 2 13 13 16c8 2 16 14 19 25s1 26 -4 32c-3 4 -4 4 -10 -9c-12 -24 -30 -34 -56 -32c-8 1 -18 3 -23 5c-14 7 -22 17 -26 36c-1 5 -2 6 -7 6c-6 0 -7 0 -9 -10
c-3 -13 -9 -23 -19 -29c-16 -10 -43 -11 -59 -3c-10 5 -23 19 -28 31c-2 5 -5 9 -6 9c-7 0 -11 -26 -6 -42c3 -10 11 -20 18 -20c6 0 9 -4 10 -17c3 -24 20 -54 42 -74c13 -12 17 -19 10 -22c-6 -2 -9 -1 -23 12c-23 22 -39 49 -44 75c-1 7 -4 12 -5 12c-5 0 -15 11 -20 21
c-5 9 -6 12 -6 30c0 17 1 21 5 27l4 8l-4 1c-2 1 -19 3 -35 5c-53 7 -59 10 -56 19c1 2 26 15 56 30l54 26l16 35c17 38 27 58 33 64zM291 414c-11 -5 -25 -11 -31 -13c-14 -4 -24 -1 -52 12c-20 9 -21 10 -24 6c-3 -5 -32 -68 -34 -74c-1 -4 0 -5 24 -9c43 -7 70 -9 102 -6
c28 2 73 9 75 11s-31 71 -37 78l-4 5zM95 304c-23 -12 -41 -22 -40 -23c13 -4 95 -12 150 -15c69 -3 149 1 217 12l22 3l-21 10c-12 6 -30 16 -41 23l-21 12l-14 -3c-64 -13 -116 -14 -179 -2c-15 3 -27 5 -28 5s-22 -10 -45 -22zM146 249c3 -8 9 -18 14 -22
c20 -18 56 -12 63 11c1 4 3 8 2 9s-16 2 -35 3s-36 2 -39 3c-5 1 -6 0 -5 -4zM309 250c-12 -1 -24 -2 -29 -2h-8l2 -8c3 -11 11 -19 22 -22c18 -5 31 -2 42 9c6 6 13 19 13 23c0 2 -9 2 -42 0zM132 118c5 6 13 1 13 -7c0 -6 14 -24 28 -37c7 -6 27 -22 45 -36l32 -26l15 15
c8 8 27 25 42 39c27 25 38 36 46 48s11 9 31 -31l18 -37l13 -4c35 -11 61 -32 73 -58c8 -16 11 -32 7 -37c-2 -3 -33 -3 -246 -3c-278 1 -250 -1 -246 19c8 38 37 68 80 80l13 4l17 34c9 19 18 36 19 37zM357 91c-1 -2 -23 -22 -48 -45s-45 -43 -44 -44c8 -8 52 -42 55 -42
c2 0 5 6 10 22c4 12 9 23 10 24s13 5 27 8s27 7 28 7c3 1 -33 73 -36 73c-1 0 -1 -1 -2 -3zM118 56c-11 -22 -16 -34 -14 -35c1 0 13 -4 27 -7s26 -8 27 -9s5 -11 9 -22s7 -21 8 -22s27 -1 58 -1l57 1l-32 25c-71 55 -100 78 -111 91l-12 14zM74 24c-23 -9 -40 -25 -50 -46
c-9 -19 -15 -18 64 -18c38 0 69 0 69 1s-2 9 -5 17l-5 15l-31 8c-17 4 -32 8 -33 10c-2 2 -2 5 0 10l2 6s-6 -1 -11 -3zM413 25c0 -1 1 -3 2 -5c4 -8 0 -11 -33 -19l-32 -8l-5 -17l-6 -16h70c79 0 74 -2 65 17c-7 14 -23 30 -38 38c-14 7 -23 12 -23 10z" />
    <glyph glyph-name="settings-1" unicode="&#xfb46;" 
d="M50 406c3 3 9 3 12 0c2 -2 2 -49 2 -200v-198h22c19 0 23 -1 25 -4s2 -5 0 -8s-7 -3 -55 -3s-53 0 -55 3s-2 5 0 8s6 4 25 4h22v198c0 151 0 198 2 200zM242 406c1 1 4 2 6 2c8 0 8 -1 8 -106v-102h22c19 0 23 -1 25 -4s2 -5 0 -8s-6 -4 -25 -4h-22l-1 -102
c0 -95 -1 -103 -4 -105s-4 -2 -7 0s-4 10 -4 105v102h-22c-19 0 -23 1 -25 4s-2 5 0 8s6 4 25 4h22v102c0 76 0 102 2 104zM434 406c-2 -2 -2 -12 -2 -32v-30h-22c-19 0 -23 -1 -25 -4s-2 -5 0 -8s6 -4 25 -4h22v-174c0 -163 1 -175 4 -177s4 -2 7 0s4 14 4 177l1 174h22
c19 0 23 1 25 4s2 5 0 8s-6 4 -25 4h-22v30c0 30 -1 34 -8 34c-2 0 -5 -1 -6 -2z" />
    <glyph glyph-name="user-1" unicode="&#xfb4b;" horiz-adv-x="497" 
d="M220 437c57 12 113 -13 135 -59c11 -24 14 -39 14 -98c0 -57 -3 -71 -12 -95c-8 -19 -20 -39 -33 -54l-11 -13v-14c0 -21 5 -29 25 -39c14 -7 27 -10 52 -16c14 -3 28 -8 39 -13c30 -15 57 -47 66 -77c5 -16 27 -15 -246 -15c-276 0 -250 -2 -246 17c7 30 32 62 60 76
c9 4 24 9 38 12c31 7 50 14 64 22c15 10 20 17 20 34v13l-11 12c-15 17 -30 41 -38 64l-6 19l-1 59c-1 67 1 80 13 106c14 29 44 52 78 59zM223 421c-39 -8 -67 -36 -75 -76c-4 -19 -4 -112 0 -131c6 -28 19 -54 41 -77l12 -13l-1 -20c-1 -18 0 -20 -6 -28
c-13 -19 -39 -31 -86 -42c-33 -7 -47 -14 -63 -30c-10 -10 -22 -29 -25 -40l-2 -4h230c126 0 229 0 229 1c0 5 -15 28 -26 39c-15 15 -35 26 -57 31c-46 11 -71 20 -84 34c-11 11 -13 20 -13 42v18l9 9c12 11 30 38 36 54c9 23 11 37 11 92c0 57 -3 71 -13 92
c-19 39 -68 60 -117 49z" />
    <glyph glyph-name="search-1" unicode="&#xfb45;" horiz-adv-x="383" 
d="M118 374c6 1 19 1 31 1c38 -1 68 -15 95 -42c18 -18 28 -35 36 -59c4 -13 6 -19 6 -41s-1 -28 -5 -41c-5 -17 -16 -37 -25 -49l-6 -7l66 -67c36 -36 67 -67 67 -69c0 -4 -4 -8 -8 -8c-2 0 -34 30 -70 66l-66 67l-8 -6c-12 -9 -31 -20 -48 -25c-13 -4 -19 -5 -41 -5
s-29 1 -42 5c-24 8 -40 19 -58 37s-29 35 -37 59c-4 13 -5 18 -5 42s1 29 5 42c8 24 19 41 37 59c22 22 47 36 76 41zM115 357c-47 -10 -87 -51 -97 -98c-19 -91 61 -171 152 -152c48 10 88 50 98 98c19 91 -62 172 -153 152z" />
    <glyph glyph-name="basket-1" unicode="&#xfb2c;" 
d="M125 320c42 46 73 80 75 80c4 0 8 -4 8 -8c0 -2 -30 -36 -66 -77s-66 -74 -66 -74s78 -1 173 -1h173l-67 74c-37 41 -67 76 -67 78c0 4 4 8 8 8c2 0 34 -35 75 -80l72 -79l25 -1c21 -1 25 -1 27 -4s2 -5 0 -8s-5 -4 -17 -4h-15l-24 -118c-13 -65 -24 -119 -25 -120
c-2 -2 -38 -2 -166 -2s-164 0 -166 2c-1 1 -12 54 -24 117s-22 115 -23 117c-1 3 -4 4 -16 4s-16 1 -18 4s-2 5 0 8s6 4 27 4h25zM59 180c5 -24 15 -74 22 -112l13 -68h154h153l22 108c12 59 21 110 22 112l1 4h-197h-198zM146 173c1 2 4 3 6 3c8 0 9 -4 8 -65
c0 -54 -2 -60 -5 -62s-4 -2 -7 0s-4 8 -4 62c0 42 0 60 2 62zM242 173c1 2 4 3 6 3c8 0 9 -4 8 -65c0 -54 -2 -60 -5 -62s-4 -2 -7 0s-4 8 -4 62c0 42 0 60 2 62zM338 173c-2 -2 -2 -20 -2 -62c0 -54 1 -60 4 -62s4 -2 7 0s5 8 5 62c1 61 0 65 -8 65c-2 0 -5 -1 -6 -3z" />
  </font>
</defs>
</svg>
